M48
; DRILL file {KiCad 7.0.7} date Mon Jan  1 11:16:17 2024
; FORMAT={3:3/ absolute / metric / suppress leading zeros}
; #@! TF.CreationDate,2024-01-01T11:16:17+09:00
; #@! TF.GenerationSoftware,Kicad,Pcbnew,7.0.7
; #@! TF.FileFunction,MixedPlating,1,2
FMAT,2
METRIC,TZ
; #@! TA.AperFunction,Plated,PTH,ViaDrill
T1C0.300
; #@! TA.AperFunction,Plated,PTH,ViaDrill
T2C0.400
; #@! TA.AperFunction,Plated,PTH,ComponentDrill
T3C0.500
%
G90
G05
T1
X113250Y-54895
X128750Y-58205
T2
X101600Y-52100
X101600Y-60800
X103000Y-53700
X103350Y-59670
X107000Y-55820
X107000Y-56820
X108000Y-60720
X108700Y-60720
X109400Y-60720
X109450Y-55320
X109450Y-56320
X109450Y-57320
X109450Y-59270
X119400Y-52420
X119400Y-60720
X119900Y-52920
X119900Y-60220
X122100Y-52880
X122100Y-60180
X122600Y-52380
X122600Y-60680
X132550Y-53830
X132550Y-55780
X132550Y-56780
X132550Y-57780
X132600Y-52380
X133300Y-52380
X134000Y-52380
X135000Y-56280
X135000Y-57280
X138650Y-53430
X139000Y-59400
X140400Y-52300
X140400Y-61000
T3
X100000Y-53000
X100000Y-54000
X100000Y-55000
X100000Y-56000
X100000Y-57000
X100000Y-58000
X100000Y-59000
X100000Y-60000
X121000Y-53000
X121000Y-54000
X121000Y-55000
X121000Y-56000
X121000Y-57000
X121000Y-58000
X121000Y-59000
X121000Y-60000
X142000Y-53100
X142000Y-54100
X142000Y-55100
X142000Y-56100
X142000Y-57100
X142000Y-58100
X142000Y-59100
X142000Y-60100
T0
M30
