%TF.GenerationSoftware,KiCad,Pcbnew,7.0.7*%
%TF.CreationDate,2024-01-01T11:16:13+09:00*%
%TF.ProjectId,crow_imu,63726f77-5f69-46d7-952e-6b696361645f,rev?*%
%TF.SameCoordinates,Original*%
%TF.FileFunction,Copper,L2,Bot*%
%TF.FilePolarity,Positive*%
%FSLAX46Y46*%
G04 Gerber Fmt 4.6, Leading zero omitted, Abs format (unit mm)*
G04 Created by KiCad (PCBNEW 7.0.7) date 2024-01-01 11:16:13*
%MOMM*%
%LPD*%
G01*
G04 APERTURE LIST*
%ADD10C,0.100000*%
%ADD11C,0.150000*%
%ADD12C,0.300000*%
%ADD13C,0.400000*%
%TA.AperFunction,ComponentPad*%
%ADD14C,0.800000*%
%TD*%
%TA.AperFunction,ComponentPad*%
%ADD15O,0.800000X0.800000*%
%TD*%
%TA.AperFunction,ComponentPad*%
%ADD16C,0.850000*%
%TD*%
%TA.AperFunction,ComponentPad*%
%ADD17O,0.850000X0.850000*%
%TD*%
%TA.AperFunction,ViaPad*%
%ADD18C,0.600000*%
%TD*%
%TA.AperFunction,ViaPad*%
%ADD19C,0.500000*%
%TD*%
%TA.AperFunction,ViaPad*%
%ADD20C,0.800000*%
%TD*%
G04 APERTURE END LIST*
D10*
D11*
X177002200Y-166007200D02*
X285002200Y-166007200D01*
X285002200Y-198007200D01*
X177002200Y-198007200D01*
X177002200Y-166007200D01*
D10*
D11*
X10000000Y-10000000D02*
X287002200Y-10000000D01*
X287002200Y-200007200D01*
X10000000Y-200007200D01*
X10000000Y-10000000D01*
D10*
D11*
X12000000Y-12000000D02*
X285002200Y-12000000D01*
X285002200Y-198007200D01*
X12000000Y-198007200D01*
X12000000Y-12000000D01*
D10*
D11*
X60000000Y-12000000D02*
X60000000Y-10000000D01*
D10*
D11*
X110000000Y-12000000D02*
X110000000Y-10000000D01*
D10*
D11*
X160000000Y-12000000D02*
X160000000Y-10000000D01*
D10*
D11*
X210000000Y-12000000D02*
X210000000Y-10000000D01*
D10*
D11*
X260000000Y-12000000D02*
X260000000Y-10000000D01*
D10*
D11*
X36089160Y-11593604D02*
X35346303Y-11593604D01*
X35717731Y-11593604D02*
X35717731Y-10293604D01*
X35717731Y-10293604D02*
X35593922Y-10479319D01*
X35593922Y-10479319D02*
X35470112Y-10603128D01*
X35470112Y-10603128D02*
X35346303Y-10665033D01*
D10*
D11*
X85346303Y-10417414D02*
X85408207Y-10355509D01*
X85408207Y-10355509D02*
X85532017Y-10293604D01*
X85532017Y-10293604D02*
X85841541Y-10293604D01*
X85841541Y-10293604D02*
X85965350Y-10355509D01*
X85965350Y-10355509D02*
X86027255Y-10417414D01*
X86027255Y-10417414D02*
X86089160Y-10541223D01*
X86089160Y-10541223D02*
X86089160Y-10665033D01*
X86089160Y-10665033D02*
X86027255Y-10850747D01*
X86027255Y-10850747D02*
X85284398Y-11593604D01*
X85284398Y-11593604D02*
X86089160Y-11593604D01*
D10*
D11*
X135284398Y-10293604D02*
X136089160Y-10293604D01*
X136089160Y-10293604D02*
X135655826Y-10788842D01*
X135655826Y-10788842D02*
X135841541Y-10788842D01*
X135841541Y-10788842D02*
X135965350Y-10850747D01*
X135965350Y-10850747D02*
X136027255Y-10912652D01*
X136027255Y-10912652D02*
X136089160Y-11036461D01*
X136089160Y-11036461D02*
X136089160Y-11345985D01*
X136089160Y-11345985D02*
X136027255Y-11469795D01*
X136027255Y-11469795D02*
X135965350Y-11531700D01*
X135965350Y-11531700D02*
X135841541Y-11593604D01*
X135841541Y-11593604D02*
X135470112Y-11593604D01*
X135470112Y-11593604D02*
X135346303Y-11531700D01*
X135346303Y-11531700D02*
X135284398Y-11469795D01*
D10*
D11*
X185965350Y-10726938D02*
X185965350Y-11593604D01*
X185655826Y-10231700D02*
X185346303Y-11160271D01*
X185346303Y-11160271D02*
X186151064Y-11160271D01*
D10*
D11*
X236027255Y-10293604D02*
X235408207Y-10293604D01*
X235408207Y-10293604D02*
X235346303Y-10912652D01*
X235346303Y-10912652D02*
X235408207Y-10850747D01*
X235408207Y-10850747D02*
X235532017Y-10788842D01*
X235532017Y-10788842D02*
X235841541Y-10788842D01*
X235841541Y-10788842D02*
X235965350Y-10850747D01*
X235965350Y-10850747D02*
X236027255Y-10912652D01*
X236027255Y-10912652D02*
X236089160Y-11036461D01*
X236089160Y-11036461D02*
X236089160Y-11345985D01*
X236089160Y-11345985D02*
X236027255Y-11469795D01*
X236027255Y-11469795D02*
X235965350Y-11531700D01*
X235965350Y-11531700D02*
X235841541Y-11593604D01*
X235841541Y-11593604D02*
X235532017Y-11593604D01*
X235532017Y-11593604D02*
X235408207Y-11531700D01*
X235408207Y-11531700D02*
X235346303Y-11469795D01*
D10*
D11*
X285965350Y-10293604D02*
X285717731Y-10293604D01*
X285717731Y-10293604D02*
X285593922Y-10355509D01*
X285593922Y-10355509D02*
X285532017Y-10417414D01*
X285532017Y-10417414D02*
X285408207Y-10603128D01*
X285408207Y-10603128D02*
X285346303Y-10850747D01*
X285346303Y-10850747D02*
X285346303Y-11345985D01*
X285346303Y-11345985D02*
X285408207Y-11469795D01*
X285408207Y-11469795D02*
X285470112Y-11531700D01*
X285470112Y-11531700D02*
X285593922Y-11593604D01*
X285593922Y-11593604D02*
X285841541Y-11593604D01*
X285841541Y-11593604D02*
X285965350Y-11531700D01*
X285965350Y-11531700D02*
X286027255Y-11469795D01*
X286027255Y-11469795D02*
X286089160Y-11345985D01*
X286089160Y-11345985D02*
X286089160Y-11036461D01*
X286089160Y-11036461D02*
X286027255Y-10912652D01*
X286027255Y-10912652D02*
X285965350Y-10850747D01*
X285965350Y-10850747D02*
X285841541Y-10788842D01*
X285841541Y-10788842D02*
X285593922Y-10788842D01*
X285593922Y-10788842D02*
X285470112Y-10850747D01*
X285470112Y-10850747D02*
X285408207Y-10912652D01*
X285408207Y-10912652D02*
X285346303Y-11036461D01*
D10*
D11*
X60000000Y-198007200D02*
X60000000Y-200007200D01*
D10*
D11*
X110000000Y-198007200D02*
X110000000Y-200007200D01*
D10*
D11*
X160000000Y-198007200D02*
X160000000Y-200007200D01*
D10*
D11*
X210000000Y-198007200D02*
X210000000Y-200007200D01*
D10*
D11*
X260000000Y-198007200D02*
X260000000Y-200007200D01*
D10*
D11*
X36089160Y-199600804D02*
X35346303Y-199600804D01*
X35717731Y-199600804D02*
X35717731Y-198300804D01*
X35717731Y-198300804D02*
X35593922Y-198486519D01*
X35593922Y-198486519D02*
X35470112Y-198610328D01*
X35470112Y-198610328D02*
X35346303Y-198672233D01*
D10*
D11*
X85346303Y-198424614D02*
X85408207Y-198362709D01*
X85408207Y-198362709D02*
X85532017Y-198300804D01*
X85532017Y-198300804D02*
X85841541Y-198300804D01*
X85841541Y-198300804D02*
X85965350Y-198362709D01*
X85965350Y-198362709D02*
X86027255Y-198424614D01*
X86027255Y-198424614D02*
X86089160Y-198548423D01*
X86089160Y-198548423D02*
X86089160Y-198672233D01*
X86089160Y-198672233D02*
X86027255Y-198857947D01*
X86027255Y-198857947D02*
X85284398Y-199600804D01*
X85284398Y-199600804D02*
X86089160Y-199600804D01*
D10*
D11*
X135284398Y-198300804D02*
X136089160Y-198300804D01*
X136089160Y-198300804D02*
X135655826Y-198796042D01*
X135655826Y-198796042D02*
X135841541Y-198796042D01*
X135841541Y-198796042D02*
X135965350Y-198857947D01*
X135965350Y-198857947D02*
X136027255Y-198919852D01*
X136027255Y-198919852D02*
X136089160Y-199043661D01*
X136089160Y-199043661D02*
X136089160Y-199353185D01*
X136089160Y-199353185D02*
X136027255Y-199476995D01*
X136027255Y-199476995D02*
X135965350Y-199538900D01*
X135965350Y-199538900D02*
X135841541Y-199600804D01*
X135841541Y-199600804D02*
X135470112Y-199600804D01*
X135470112Y-199600804D02*
X135346303Y-199538900D01*
X135346303Y-199538900D02*
X135284398Y-199476995D01*
D10*
D11*
X185965350Y-198734138D02*
X185965350Y-199600804D01*
X185655826Y-198238900D02*
X185346303Y-199167471D01*
X185346303Y-199167471D02*
X186151064Y-199167471D01*
D10*
D11*
X236027255Y-198300804D02*
X235408207Y-198300804D01*
X235408207Y-198300804D02*
X235346303Y-198919852D01*
X235346303Y-198919852D02*
X235408207Y-198857947D01*
X235408207Y-198857947D02*
X235532017Y-198796042D01*
X235532017Y-198796042D02*
X235841541Y-198796042D01*
X235841541Y-198796042D02*
X235965350Y-198857947D01*
X235965350Y-198857947D02*
X236027255Y-198919852D01*
X236027255Y-198919852D02*
X236089160Y-199043661D01*
X236089160Y-199043661D02*
X236089160Y-199353185D01*
X236089160Y-199353185D02*
X236027255Y-199476995D01*
X236027255Y-199476995D02*
X235965350Y-199538900D01*
X235965350Y-199538900D02*
X235841541Y-199600804D01*
X235841541Y-199600804D02*
X235532017Y-199600804D01*
X235532017Y-199600804D02*
X235408207Y-199538900D01*
X235408207Y-199538900D02*
X235346303Y-199476995D01*
D10*
D11*
X285965350Y-198300804D02*
X285717731Y-198300804D01*
X285717731Y-198300804D02*
X285593922Y-198362709D01*
X285593922Y-198362709D02*
X285532017Y-198424614D01*
X285532017Y-198424614D02*
X285408207Y-198610328D01*
X285408207Y-198610328D02*
X285346303Y-198857947D01*
X285346303Y-198857947D02*
X285346303Y-199353185D01*
X285346303Y-199353185D02*
X285408207Y-199476995D01*
X285408207Y-199476995D02*
X285470112Y-199538900D01*
X285470112Y-199538900D02*
X285593922Y-199600804D01*
X285593922Y-199600804D02*
X285841541Y-199600804D01*
X285841541Y-199600804D02*
X285965350Y-199538900D01*
X285965350Y-199538900D02*
X286027255Y-199476995D01*
X286027255Y-199476995D02*
X286089160Y-199353185D01*
X286089160Y-199353185D02*
X286089160Y-199043661D01*
X286089160Y-199043661D02*
X286027255Y-198919852D01*
X286027255Y-198919852D02*
X285965350Y-198857947D01*
X285965350Y-198857947D02*
X285841541Y-198796042D01*
X285841541Y-198796042D02*
X285593922Y-198796042D01*
X285593922Y-198796042D02*
X285470112Y-198857947D01*
X285470112Y-198857947D02*
X285408207Y-198919852D01*
X285408207Y-198919852D02*
X285346303Y-199043661D01*
D10*
D11*
X10000000Y-60000000D02*
X12000000Y-60000000D01*
D10*
D11*
X10000000Y-110000000D02*
X12000000Y-110000000D01*
D10*
D11*
X10000000Y-160000000D02*
X12000000Y-160000000D01*
D10*
D11*
X10690476Y-35222176D02*
X11309523Y-35222176D01*
X10566666Y-35593604D02*
X10999999Y-34293604D01*
X10999999Y-34293604D02*
X11433333Y-35593604D01*
D10*
D11*
X11092857Y-84912652D02*
X11278571Y-84974557D01*
X11278571Y-84974557D02*
X11340476Y-85036461D01*
X11340476Y-85036461D02*
X11402380Y-85160271D01*
X11402380Y-85160271D02*
X11402380Y-85345985D01*
X11402380Y-85345985D02*
X11340476Y-85469795D01*
X11340476Y-85469795D02*
X11278571Y-85531700D01*
X11278571Y-85531700D02*
X11154761Y-85593604D01*
X11154761Y-85593604D02*
X10659523Y-85593604D01*
X10659523Y-85593604D02*
X10659523Y-84293604D01*
X10659523Y-84293604D02*
X11092857Y-84293604D01*
X11092857Y-84293604D02*
X11216666Y-84355509D01*
X11216666Y-84355509D02*
X11278571Y-84417414D01*
X11278571Y-84417414D02*
X11340476Y-84541223D01*
X11340476Y-84541223D02*
X11340476Y-84665033D01*
X11340476Y-84665033D02*
X11278571Y-84788842D01*
X11278571Y-84788842D02*
X11216666Y-84850747D01*
X11216666Y-84850747D02*
X11092857Y-84912652D01*
X11092857Y-84912652D02*
X10659523Y-84912652D01*
D10*
D11*
X11402380Y-135469795D02*
X11340476Y-135531700D01*
X11340476Y-135531700D02*
X11154761Y-135593604D01*
X11154761Y-135593604D02*
X11030952Y-135593604D01*
X11030952Y-135593604D02*
X10845238Y-135531700D01*
X10845238Y-135531700D02*
X10721428Y-135407890D01*
X10721428Y-135407890D02*
X10659523Y-135284080D01*
X10659523Y-135284080D02*
X10597619Y-135036461D01*
X10597619Y-135036461D02*
X10597619Y-134850747D01*
X10597619Y-134850747D02*
X10659523Y-134603128D01*
X10659523Y-134603128D02*
X10721428Y-134479319D01*
X10721428Y-134479319D02*
X10845238Y-134355509D01*
X10845238Y-134355509D02*
X11030952Y-134293604D01*
X11030952Y-134293604D02*
X11154761Y-134293604D01*
X11154761Y-134293604D02*
X11340476Y-134355509D01*
X11340476Y-134355509D02*
X11402380Y-134417414D01*
D10*
D11*
X10659523Y-185593604D02*
X10659523Y-184293604D01*
X10659523Y-184293604D02*
X10969047Y-184293604D01*
X10969047Y-184293604D02*
X11154761Y-184355509D01*
X11154761Y-184355509D02*
X11278571Y-184479319D01*
X11278571Y-184479319D02*
X11340476Y-184603128D01*
X11340476Y-184603128D02*
X11402380Y-184850747D01*
X11402380Y-184850747D02*
X11402380Y-185036461D01*
X11402380Y-185036461D02*
X11340476Y-185284080D01*
X11340476Y-185284080D02*
X11278571Y-185407890D01*
X11278571Y-185407890D02*
X11154761Y-185531700D01*
X11154761Y-185531700D02*
X10969047Y-185593604D01*
X10969047Y-185593604D02*
X10659523Y-185593604D01*
D10*
D11*
X287002200Y-60000000D02*
X285002200Y-60000000D01*
D10*
D11*
X287002200Y-110000000D02*
X285002200Y-110000000D01*
D10*
D11*
X287002200Y-160000000D02*
X285002200Y-160000000D01*
D10*
D11*
X285692676Y-35222176D02*
X286311723Y-35222176D01*
X285568866Y-35593604D02*
X286002199Y-34293604D01*
X286002199Y-34293604D02*
X286435533Y-35593604D01*
D10*
D11*
X286095057Y-84912652D02*
X286280771Y-84974557D01*
X286280771Y-84974557D02*
X286342676Y-85036461D01*
X286342676Y-85036461D02*
X286404580Y-85160271D01*
X286404580Y-85160271D02*
X286404580Y-85345985D01*
X286404580Y-85345985D02*
X286342676Y-85469795D01*
X286342676Y-85469795D02*
X286280771Y-85531700D01*
X286280771Y-85531700D02*
X286156961Y-85593604D01*
X286156961Y-85593604D02*
X285661723Y-85593604D01*
X285661723Y-85593604D02*
X285661723Y-84293604D01*
X285661723Y-84293604D02*
X286095057Y-84293604D01*
X286095057Y-84293604D02*
X286218866Y-84355509D01*
X286218866Y-84355509D02*
X286280771Y-84417414D01*
X286280771Y-84417414D02*
X286342676Y-84541223D01*
X286342676Y-84541223D02*
X286342676Y-84665033D01*
X286342676Y-84665033D02*
X286280771Y-84788842D01*
X286280771Y-84788842D02*
X286218866Y-84850747D01*
X286218866Y-84850747D02*
X286095057Y-84912652D01*
X286095057Y-84912652D02*
X285661723Y-84912652D01*
D10*
D11*
X286404580Y-135469795D02*
X286342676Y-135531700D01*
X286342676Y-135531700D02*
X286156961Y-135593604D01*
X286156961Y-135593604D02*
X286033152Y-135593604D01*
X286033152Y-135593604D02*
X285847438Y-135531700D01*
X285847438Y-135531700D02*
X285723628Y-135407890D01*
X285723628Y-135407890D02*
X285661723Y-135284080D01*
X285661723Y-135284080D02*
X285599819Y-135036461D01*
X285599819Y-135036461D02*
X285599819Y-134850747D01*
X285599819Y-134850747D02*
X285661723Y-134603128D01*
X285661723Y-134603128D02*
X285723628Y-134479319D01*
X285723628Y-134479319D02*
X285847438Y-134355509D01*
X285847438Y-134355509D02*
X286033152Y-134293604D01*
X286033152Y-134293604D02*
X286156961Y-134293604D01*
X286156961Y-134293604D02*
X286342676Y-134355509D01*
X286342676Y-134355509D02*
X286404580Y-134417414D01*
D10*
D11*
X285661723Y-185593604D02*
X285661723Y-184293604D01*
X285661723Y-184293604D02*
X285971247Y-184293604D01*
X285971247Y-184293604D02*
X286156961Y-184355509D01*
X286156961Y-184355509D02*
X286280771Y-184479319D01*
X286280771Y-184479319D02*
X286342676Y-184603128D01*
X286342676Y-184603128D02*
X286404580Y-184850747D01*
X286404580Y-184850747D02*
X286404580Y-185036461D01*
X286404580Y-185036461D02*
X286342676Y-185284080D01*
X286342676Y-185284080D02*
X286280771Y-185407890D01*
X286280771Y-185407890D02*
X286156961Y-185531700D01*
X286156961Y-185531700D02*
X285971247Y-185593604D01*
X285971247Y-185593604D02*
X285661723Y-185593604D01*
D10*
D11*
X200458026Y-193793328D02*
X200458026Y-192293328D01*
X200458026Y-192293328D02*
X200815169Y-192293328D01*
X200815169Y-192293328D02*
X201029455Y-192364757D01*
X201029455Y-192364757D02*
X201172312Y-192507614D01*
X201172312Y-192507614D02*
X201243741Y-192650471D01*
X201243741Y-192650471D02*
X201315169Y-192936185D01*
X201315169Y-192936185D02*
X201315169Y-193150471D01*
X201315169Y-193150471D02*
X201243741Y-193436185D01*
X201243741Y-193436185D02*
X201172312Y-193579042D01*
X201172312Y-193579042D02*
X201029455Y-193721900D01*
X201029455Y-193721900D02*
X200815169Y-193793328D01*
X200815169Y-193793328D02*
X200458026Y-193793328D01*
X202600884Y-193793328D02*
X202600884Y-193007614D01*
X202600884Y-193007614D02*
X202529455Y-192864757D01*
X202529455Y-192864757D02*
X202386598Y-192793328D01*
X202386598Y-192793328D02*
X202100884Y-192793328D01*
X202100884Y-192793328D02*
X201958026Y-192864757D01*
X202600884Y-193721900D02*
X202458026Y-193793328D01*
X202458026Y-193793328D02*
X202100884Y-193793328D01*
X202100884Y-193793328D02*
X201958026Y-193721900D01*
X201958026Y-193721900D02*
X201886598Y-193579042D01*
X201886598Y-193579042D02*
X201886598Y-193436185D01*
X201886598Y-193436185D02*
X201958026Y-193293328D01*
X201958026Y-193293328D02*
X202100884Y-193221900D01*
X202100884Y-193221900D02*
X202458026Y-193221900D01*
X202458026Y-193221900D02*
X202600884Y-193150471D01*
X203100884Y-192793328D02*
X203672312Y-192793328D01*
X203315169Y-192293328D02*
X203315169Y-193579042D01*
X203315169Y-193579042D02*
X203386598Y-193721900D01*
X203386598Y-193721900D02*
X203529455Y-193793328D01*
X203529455Y-193793328D02*
X203672312Y-193793328D01*
X204743741Y-193721900D02*
X204600884Y-193793328D01*
X204600884Y-193793328D02*
X204315170Y-193793328D01*
X204315170Y-193793328D02*
X204172312Y-193721900D01*
X204172312Y-193721900D02*
X204100884Y-193579042D01*
X204100884Y-193579042D02*
X204100884Y-193007614D01*
X204100884Y-193007614D02*
X204172312Y-192864757D01*
X204172312Y-192864757D02*
X204315170Y-192793328D01*
X204315170Y-192793328D02*
X204600884Y-192793328D01*
X204600884Y-192793328D02*
X204743741Y-192864757D01*
X204743741Y-192864757D02*
X204815170Y-193007614D01*
X204815170Y-193007614D02*
X204815170Y-193150471D01*
X204815170Y-193150471D02*
X204100884Y-193293328D01*
X205458026Y-193650471D02*
X205529455Y-193721900D01*
X205529455Y-193721900D02*
X205458026Y-193793328D01*
X205458026Y-193793328D02*
X205386598Y-193721900D01*
X205386598Y-193721900D02*
X205458026Y-193650471D01*
X205458026Y-193650471D02*
X205458026Y-193793328D01*
X205458026Y-192864757D02*
X205529455Y-192936185D01*
X205529455Y-192936185D02*
X205458026Y-193007614D01*
X205458026Y-193007614D02*
X205386598Y-192936185D01*
X205386598Y-192936185D02*
X205458026Y-192864757D01*
X205458026Y-192864757D02*
X205458026Y-193007614D01*
D10*
D11*
X177002200Y-194507200D02*
X285002200Y-194507200D01*
D10*
D11*
X178458026Y-196593328D02*
X178458026Y-195093328D01*
X179315169Y-196593328D02*
X178672312Y-195736185D01*
X179315169Y-195093328D02*
X178458026Y-195950471D01*
X179958026Y-196593328D02*
X179958026Y-195593328D01*
X179958026Y-195093328D02*
X179886598Y-195164757D01*
X179886598Y-195164757D02*
X179958026Y-195236185D01*
X179958026Y-195236185D02*
X180029455Y-195164757D01*
X180029455Y-195164757D02*
X179958026Y-195093328D01*
X179958026Y-195093328D02*
X179958026Y-195236185D01*
X181529455Y-196450471D02*
X181458027Y-196521900D01*
X181458027Y-196521900D02*
X181243741Y-196593328D01*
X181243741Y-196593328D02*
X181100884Y-196593328D01*
X181100884Y-196593328D02*
X180886598Y-196521900D01*
X180886598Y-196521900D02*
X180743741Y-196379042D01*
X180743741Y-196379042D02*
X180672312Y-196236185D01*
X180672312Y-196236185D02*
X180600884Y-195950471D01*
X180600884Y-195950471D02*
X180600884Y-195736185D01*
X180600884Y-195736185D02*
X180672312Y-195450471D01*
X180672312Y-195450471D02*
X180743741Y-195307614D01*
X180743741Y-195307614D02*
X180886598Y-195164757D01*
X180886598Y-195164757D02*
X181100884Y-195093328D01*
X181100884Y-195093328D02*
X181243741Y-195093328D01*
X181243741Y-195093328D02*
X181458027Y-195164757D01*
X181458027Y-195164757D02*
X181529455Y-195236185D01*
X182815170Y-196593328D02*
X182815170Y-195807614D01*
X182815170Y-195807614D02*
X182743741Y-195664757D01*
X182743741Y-195664757D02*
X182600884Y-195593328D01*
X182600884Y-195593328D02*
X182315170Y-195593328D01*
X182315170Y-195593328D02*
X182172312Y-195664757D01*
X182815170Y-196521900D02*
X182672312Y-196593328D01*
X182672312Y-196593328D02*
X182315170Y-196593328D01*
X182315170Y-196593328D02*
X182172312Y-196521900D01*
X182172312Y-196521900D02*
X182100884Y-196379042D01*
X182100884Y-196379042D02*
X182100884Y-196236185D01*
X182100884Y-196236185D02*
X182172312Y-196093328D01*
X182172312Y-196093328D02*
X182315170Y-196021900D01*
X182315170Y-196021900D02*
X182672312Y-196021900D01*
X182672312Y-196021900D02*
X182815170Y-195950471D01*
X184172313Y-196593328D02*
X184172313Y-195093328D01*
X184172313Y-196521900D02*
X184029455Y-196593328D01*
X184029455Y-196593328D02*
X183743741Y-196593328D01*
X183743741Y-196593328D02*
X183600884Y-196521900D01*
X183600884Y-196521900D02*
X183529455Y-196450471D01*
X183529455Y-196450471D02*
X183458027Y-196307614D01*
X183458027Y-196307614D02*
X183458027Y-195879042D01*
X183458027Y-195879042D02*
X183529455Y-195736185D01*
X183529455Y-195736185D02*
X183600884Y-195664757D01*
X183600884Y-195664757D02*
X183743741Y-195593328D01*
X183743741Y-195593328D02*
X184029455Y-195593328D01*
X184029455Y-195593328D02*
X184172313Y-195664757D01*
X186029455Y-195807614D02*
X186529455Y-195807614D01*
X186743741Y-196593328D02*
X186029455Y-196593328D01*
X186029455Y-196593328D02*
X186029455Y-195093328D01*
X186029455Y-195093328D02*
X186743741Y-195093328D01*
X187386598Y-196450471D02*
X187458027Y-196521900D01*
X187458027Y-196521900D02*
X187386598Y-196593328D01*
X187386598Y-196593328D02*
X187315170Y-196521900D01*
X187315170Y-196521900D02*
X187386598Y-196450471D01*
X187386598Y-196450471D02*
X187386598Y-196593328D01*
X188100884Y-196593328D02*
X188100884Y-195093328D01*
X188100884Y-195093328D02*
X188458027Y-195093328D01*
X188458027Y-195093328D02*
X188672313Y-195164757D01*
X188672313Y-195164757D02*
X188815170Y-195307614D01*
X188815170Y-195307614D02*
X188886599Y-195450471D01*
X188886599Y-195450471D02*
X188958027Y-195736185D01*
X188958027Y-195736185D02*
X188958027Y-195950471D01*
X188958027Y-195950471D02*
X188886599Y-196236185D01*
X188886599Y-196236185D02*
X188815170Y-196379042D01*
X188815170Y-196379042D02*
X188672313Y-196521900D01*
X188672313Y-196521900D02*
X188458027Y-196593328D01*
X188458027Y-196593328D02*
X188100884Y-196593328D01*
X189600884Y-196450471D02*
X189672313Y-196521900D01*
X189672313Y-196521900D02*
X189600884Y-196593328D01*
X189600884Y-196593328D02*
X189529456Y-196521900D01*
X189529456Y-196521900D02*
X189600884Y-196450471D01*
X189600884Y-196450471D02*
X189600884Y-196593328D01*
X190243742Y-196164757D02*
X190958028Y-196164757D01*
X190100885Y-196593328D02*
X190600885Y-195093328D01*
X190600885Y-195093328D02*
X191100885Y-196593328D01*
X191600884Y-196450471D02*
X191672313Y-196521900D01*
X191672313Y-196521900D02*
X191600884Y-196593328D01*
X191600884Y-196593328D02*
X191529456Y-196521900D01*
X191529456Y-196521900D02*
X191600884Y-196450471D01*
X191600884Y-196450471D02*
X191600884Y-196593328D01*
X194600884Y-196593328D02*
X194600884Y-195093328D01*
X194743742Y-196021900D02*
X195172313Y-196593328D01*
X195172313Y-195593328D02*
X194600884Y-196164757D01*
X195815170Y-196593328D02*
X195815170Y-195593328D01*
X195815170Y-195093328D02*
X195743742Y-195164757D01*
X195743742Y-195164757D02*
X195815170Y-195236185D01*
X195815170Y-195236185D02*
X195886599Y-195164757D01*
X195886599Y-195164757D02*
X195815170Y-195093328D01*
X195815170Y-195093328D02*
X195815170Y-195236185D01*
X197172314Y-196521900D02*
X197029456Y-196593328D01*
X197029456Y-196593328D02*
X196743742Y-196593328D01*
X196743742Y-196593328D02*
X196600885Y-196521900D01*
X196600885Y-196521900D02*
X196529456Y-196450471D01*
X196529456Y-196450471D02*
X196458028Y-196307614D01*
X196458028Y-196307614D02*
X196458028Y-195879042D01*
X196458028Y-195879042D02*
X196529456Y-195736185D01*
X196529456Y-195736185D02*
X196600885Y-195664757D01*
X196600885Y-195664757D02*
X196743742Y-195593328D01*
X196743742Y-195593328D02*
X197029456Y-195593328D01*
X197029456Y-195593328D02*
X197172314Y-195664757D01*
X198458028Y-196593328D02*
X198458028Y-195807614D01*
X198458028Y-195807614D02*
X198386599Y-195664757D01*
X198386599Y-195664757D02*
X198243742Y-195593328D01*
X198243742Y-195593328D02*
X197958028Y-195593328D01*
X197958028Y-195593328D02*
X197815170Y-195664757D01*
X198458028Y-196521900D02*
X198315170Y-196593328D01*
X198315170Y-196593328D02*
X197958028Y-196593328D01*
X197958028Y-196593328D02*
X197815170Y-196521900D01*
X197815170Y-196521900D02*
X197743742Y-196379042D01*
X197743742Y-196379042D02*
X197743742Y-196236185D01*
X197743742Y-196236185D02*
X197815170Y-196093328D01*
X197815170Y-196093328D02*
X197958028Y-196021900D01*
X197958028Y-196021900D02*
X198315170Y-196021900D01*
X198315170Y-196021900D02*
X198458028Y-195950471D01*
X199815171Y-196593328D02*
X199815171Y-195093328D01*
X199815171Y-196521900D02*
X199672313Y-196593328D01*
X199672313Y-196593328D02*
X199386599Y-196593328D01*
X199386599Y-196593328D02*
X199243742Y-196521900D01*
X199243742Y-196521900D02*
X199172313Y-196450471D01*
X199172313Y-196450471D02*
X199100885Y-196307614D01*
X199100885Y-196307614D02*
X199100885Y-195879042D01*
X199100885Y-195879042D02*
X199172313Y-195736185D01*
X199172313Y-195736185D02*
X199243742Y-195664757D01*
X199243742Y-195664757D02*
X199386599Y-195593328D01*
X199386599Y-195593328D02*
X199672313Y-195593328D01*
X199672313Y-195593328D02*
X199815171Y-195664757D01*
X201529456Y-195093328D02*
X202529456Y-195093328D01*
X202529456Y-195093328D02*
X201886599Y-196593328D01*
X203100884Y-196450471D02*
X203172313Y-196521900D01*
X203172313Y-196521900D02*
X203100884Y-196593328D01*
X203100884Y-196593328D02*
X203029456Y-196521900D01*
X203029456Y-196521900D02*
X203100884Y-196450471D01*
X203100884Y-196450471D02*
X203100884Y-196593328D01*
X204100885Y-195093328D02*
X204243742Y-195093328D01*
X204243742Y-195093328D02*
X204386599Y-195164757D01*
X204386599Y-195164757D02*
X204458028Y-195236185D01*
X204458028Y-195236185D02*
X204529456Y-195379042D01*
X204529456Y-195379042D02*
X204600885Y-195664757D01*
X204600885Y-195664757D02*
X204600885Y-196021900D01*
X204600885Y-196021900D02*
X204529456Y-196307614D01*
X204529456Y-196307614D02*
X204458028Y-196450471D01*
X204458028Y-196450471D02*
X204386599Y-196521900D01*
X204386599Y-196521900D02*
X204243742Y-196593328D01*
X204243742Y-196593328D02*
X204100885Y-196593328D01*
X204100885Y-196593328D02*
X203958028Y-196521900D01*
X203958028Y-196521900D02*
X203886599Y-196450471D01*
X203886599Y-196450471D02*
X203815170Y-196307614D01*
X203815170Y-196307614D02*
X203743742Y-196021900D01*
X203743742Y-196021900D02*
X203743742Y-195664757D01*
X203743742Y-195664757D02*
X203815170Y-195379042D01*
X203815170Y-195379042D02*
X203886599Y-195236185D01*
X203886599Y-195236185D02*
X203958028Y-195164757D01*
X203958028Y-195164757D02*
X204100885Y-195093328D01*
X205243741Y-196450471D02*
X205315170Y-196521900D01*
X205315170Y-196521900D02*
X205243741Y-196593328D01*
X205243741Y-196593328D02*
X205172313Y-196521900D01*
X205172313Y-196521900D02*
X205243741Y-196450471D01*
X205243741Y-196450471D02*
X205243741Y-196593328D01*
X205815170Y-195093328D02*
X206815170Y-195093328D01*
X206815170Y-195093328D02*
X206172313Y-196593328D01*
D10*
D11*
X177002200Y-191507200D02*
X285002200Y-191507200D01*
D10*
D12*
X264413853Y-193785528D02*
X263913853Y-193071242D01*
X263556710Y-193785528D02*
X263556710Y-192285528D01*
X263556710Y-192285528D02*
X264128139Y-192285528D01*
X264128139Y-192285528D02*
X264270996Y-192356957D01*
X264270996Y-192356957D02*
X264342425Y-192428385D01*
X264342425Y-192428385D02*
X264413853Y-192571242D01*
X264413853Y-192571242D02*
X264413853Y-192785528D01*
X264413853Y-192785528D02*
X264342425Y-192928385D01*
X264342425Y-192928385D02*
X264270996Y-192999814D01*
X264270996Y-192999814D02*
X264128139Y-193071242D01*
X264128139Y-193071242D02*
X263556710Y-193071242D01*
X265628139Y-193714100D02*
X265485282Y-193785528D01*
X265485282Y-193785528D02*
X265199568Y-193785528D01*
X265199568Y-193785528D02*
X265056710Y-193714100D01*
X265056710Y-193714100D02*
X264985282Y-193571242D01*
X264985282Y-193571242D02*
X264985282Y-192999814D01*
X264985282Y-192999814D02*
X265056710Y-192856957D01*
X265056710Y-192856957D02*
X265199568Y-192785528D01*
X265199568Y-192785528D02*
X265485282Y-192785528D01*
X265485282Y-192785528D02*
X265628139Y-192856957D01*
X265628139Y-192856957D02*
X265699568Y-192999814D01*
X265699568Y-192999814D02*
X265699568Y-193142671D01*
X265699568Y-193142671D02*
X264985282Y-193285528D01*
X266199567Y-192785528D02*
X266556710Y-193785528D01*
X266556710Y-193785528D02*
X266913853Y-192785528D01*
X267485281Y-193642671D02*
X267556710Y-193714100D01*
X267556710Y-193714100D02*
X267485281Y-193785528D01*
X267485281Y-193785528D02*
X267413853Y-193714100D01*
X267413853Y-193714100D02*
X267485281Y-193642671D01*
X267485281Y-193642671D02*
X267485281Y-193785528D01*
X267485281Y-192856957D02*
X267556710Y-192928385D01*
X267556710Y-192928385D02*
X267485281Y-192999814D01*
X267485281Y-192999814D02*
X267413853Y-192928385D01*
X267413853Y-192928385D02*
X267485281Y-192856957D01*
X267485281Y-192856957D02*
X267485281Y-192999814D01*
D10*
D11*
X178386598Y-193721900D02*
X178600884Y-193793328D01*
X178600884Y-193793328D02*
X178958026Y-193793328D01*
X178958026Y-193793328D02*
X179100884Y-193721900D01*
X179100884Y-193721900D02*
X179172312Y-193650471D01*
X179172312Y-193650471D02*
X179243741Y-193507614D01*
X179243741Y-193507614D02*
X179243741Y-193364757D01*
X179243741Y-193364757D02*
X179172312Y-193221900D01*
X179172312Y-193221900D02*
X179100884Y-193150471D01*
X179100884Y-193150471D02*
X178958026Y-193079042D01*
X178958026Y-193079042D02*
X178672312Y-193007614D01*
X178672312Y-193007614D02*
X178529455Y-192936185D01*
X178529455Y-192936185D02*
X178458026Y-192864757D01*
X178458026Y-192864757D02*
X178386598Y-192721900D01*
X178386598Y-192721900D02*
X178386598Y-192579042D01*
X178386598Y-192579042D02*
X178458026Y-192436185D01*
X178458026Y-192436185D02*
X178529455Y-192364757D01*
X178529455Y-192364757D02*
X178672312Y-192293328D01*
X178672312Y-192293328D02*
X179029455Y-192293328D01*
X179029455Y-192293328D02*
X179243741Y-192364757D01*
X179886597Y-193793328D02*
X179886597Y-192793328D01*
X179886597Y-192293328D02*
X179815169Y-192364757D01*
X179815169Y-192364757D02*
X179886597Y-192436185D01*
X179886597Y-192436185D02*
X179958026Y-192364757D01*
X179958026Y-192364757D02*
X179886597Y-192293328D01*
X179886597Y-192293328D02*
X179886597Y-192436185D01*
X180458026Y-192793328D02*
X181243741Y-192793328D01*
X181243741Y-192793328D02*
X180458026Y-193793328D01*
X180458026Y-193793328D02*
X181243741Y-193793328D01*
X182386598Y-193721900D02*
X182243741Y-193793328D01*
X182243741Y-193793328D02*
X181958027Y-193793328D01*
X181958027Y-193793328D02*
X181815169Y-193721900D01*
X181815169Y-193721900D02*
X181743741Y-193579042D01*
X181743741Y-193579042D02*
X181743741Y-193007614D01*
X181743741Y-193007614D02*
X181815169Y-192864757D01*
X181815169Y-192864757D02*
X181958027Y-192793328D01*
X181958027Y-192793328D02*
X182243741Y-192793328D01*
X182243741Y-192793328D02*
X182386598Y-192864757D01*
X182386598Y-192864757D02*
X182458027Y-193007614D01*
X182458027Y-193007614D02*
X182458027Y-193150471D01*
X182458027Y-193150471D02*
X181743741Y-193293328D01*
X183100883Y-193650471D02*
X183172312Y-193721900D01*
X183172312Y-193721900D02*
X183100883Y-193793328D01*
X183100883Y-193793328D02*
X183029455Y-193721900D01*
X183029455Y-193721900D02*
X183100883Y-193650471D01*
X183100883Y-193650471D02*
X183100883Y-193793328D01*
X183100883Y-192864757D02*
X183172312Y-192936185D01*
X183172312Y-192936185D02*
X183100883Y-193007614D01*
X183100883Y-193007614D02*
X183029455Y-192936185D01*
X183029455Y-192936185D02*
X183100883Y-192864757D01*
X183100883Y-192864757D02*
X183100883Y-193007614D01*
X184886598Y-193364757D02*
X185600884Y-193364757D01*
X184743741Y-193793328D02*
X185243741Y-192293328D01*
X185243741Y-192293328D02*
X185743741Y-193793328D01*
X186886598Y-192793328D02*
X186886598Y-193793328D01*
X186529455Y-192221900D02*
X186172312Y-193293328D01*
X186172312Y-193293328D02*
X187100883Y-193293328D01*
D10*
D11*
X263458026Y-196593328D02*
X263458026Y-195093328D01*
X264815170Y-196593328D02*
X264815170Y-195093328D01*
X264815170Y-196521900D02*
X264672312Y-196593328D01*
X264672312Y-196593328D02*
X264386598Y-196593328D01*
X264386598Y-196593328D02*
X264243741Y-196521900D01*
X264243741Y-196521900D02*
X264172312Y-196450471D01*
X264172312Y-196450471D02*
X264100884Y-196307614D01*
X264100884Y-196307614D02*
X264100884Y-195879042D01*
X264100884Y-195879042D02*
X264172312Y-195736185D01*
X264172312Y-195736185D02*
X264243741Y-195664757D01*
X264243741Y-195664757D02*
X264386598Y-195593328D01*
X264386598Y-195593328D02*
X264672312Y-195593328D01*
X264672312Y-195593328D02*
X264815170Y-195664757D01*
X265529455Y-196450471D02*
X265600884Y-196521900D01*
X265600884Y-196521900D02*
X265529455Y-196593328D01*
X265529455Y-196593328D02*
X265458027Y-196521900D01*
X265458027Y-196521900D02*
X265529455Y-196450471D01*
X265529455Y-196450471D02*
X265529455Y-196593328D01*
X265529455Y-195664757D02*
X265600884Y-195736185D01*
X265600884Y-195736185D02*
X265529455Y-195807614D01*
X265529455Y-195807614D02*
X265458027Y-195736185D01*
X265458027Y-195736185D02*
X265529455Y-195664757D01*
X265529455Y-195664757D02*
X265529455Y-195807614D01*
X268172313Y-196593328D02*
X267315170Y-196593328D01*
X267743741Y-196593328D02*
X267743741Y-195093328D01*
X267743741Y-195093328D02*
X267600884Y-195307614D01*
X267600884Y-195307614D02*
X267458027Y-195450471D01*
X267458027Y-195450471D02*
X267315170Y-195521900D01*
X269886598Y-195021900D02*
X268600884Y-196950471D01*
X271172313Y-196593328D02*
X270315170Y-196593328D01*
X270743741Y-196593328D02*
X270743741Y-195093328D01*
X270743741Y-195093328D02*
X270600884Y-195307614D01*
X270600884Y-195307614D02*
X270458027Y-195450471D01*
X270458027Y-195450471D02*
X270315170Y-195521900D01*
D10*
D11*
X177002200Y-187507200D02*
X285002200Y-187507200D01*
D10*
D13*
X178693928Y-188211638D02*
X179836785Y-188211638D01*
X179015357Y-190211638D02*
X179265357Y-188211638D01*
X180253452Y-190211638D02*
X180420119Y-188878304D01*
X180503452Y-188211638D02*
X180396309Y-188306876D01*
X180396309Y-188306876D02*
X180479643Y-188402114D01*
X180479643Y-188402114D02*
X180586786Y-188306876D01*
X180586786Y-188306876D02*
X180503452Y-188211638D01*
X180503452Y-188211638D02*
X180479643Y-188402114D01*
X181086786Y-188878304D02*
X181848690Y-188878304D01*
X181455833Y-188211638D02*
X181241548Y-189925923D01*
X181241548Y-189925923D02*
X181312976Y-190116400D01*
X181312976Y-190116400D02*
X181491548Y-190211638D01*
X181491548Y-190211638D02*
X181682024Y-190211638D01*
X182634405Y-190211638D02*
X182455833Y-190116400D01*
X182455833Y-190116400D02*
X182384405Y-189925923D01*
X182384405Y-189925923D02*
X182598690Y-188211638D01*
X184170119Y-190116400D02*
X183967738Y-190211638D01*
X183967738Y-190211638D02*
X183586785Y-190211638D01*
X183586785Y-190211638D02*
X183408214Y-190116400D01*
X183408214Y-190116400D02*
X183336785Y-189925923D01*
X183336785Y-189925923D02*
X183432024Y-189164019D01*
X183432024Y-189164019D02*
X183551071Y-188973542D01*
X183551071Y-188973542D02*
X183753452Y-188878304D01*
X183753452Y-188878304D02*
X184134404Y-188878304D01*
X184134404Y-188878304D02*
X184312976Y-188973542D01*
X184312976Y-188973542D02*
X184384404Y-189164019D01*
X184384404Y-189164019D02*
X184360595Y-189354495D01*
X184360595Y-189354495D02*
X183384404Y-189544971D01*
X185134405Y-190021161D02*
X185217738Y-190116400D01*
X185217738Y-190116400D02*
X185110595Y-190211638D01*
X185110595Y-190211638D02*
X185027262Y-190116400D01*
X185027262Y-190116400D02*
X185134405Y-190021161D01*
X185134405Y-190021161D02*
X185110595Y-190211638D01*
X185265357Y-188973542D02*
X185348690Y-189068780D01*
X185348690Y-189068780D02*
X185241548Y-189164019D01*
X185241548Y-189164019D02*
X185158214Y-189068780D01*
X185158214Y-189068780D02*
X185265357Y-188973542D01*
X185265357Y-188973542D02*
X185241548Y-189164019D01*
D10*
D11*
X178958026Y-185607614D02*
X178458026Y-185607614D01*
X178458026Y-186393328D02*
X178458026Y-184893328D01*
X178458026Y-184893328D02*
X179172312Y-184893328D01*
X179743740Y-186393328D02*
X179743740Y-185393328D01*
X179743740Y-184893328D02*
X179672312Y-184964757D01*
X179672312Y-184964757D02*
X179743740Y-185036185D01*
X179743740Y-185036185D02*
X179815169Y-184964757D01*
X179815169Y-184964757D02*
X179743740Y-184893328D01*
X179743740Y-184893328D02*
X179743740Y-185036185D01*
X180672312Y-186393328D02*
X180529455Y-186321900D01*
X180529455Y-186321900D02*
X180458026Y-186179042D01*
X180458026Y-186179042D02*
X180458026Y-184893328D01*
X181815169Y-186321900D02*
X181672312Y-186393328D01*
X181672312Y-186393328D02*
X181386598Y-186393328D01*
X181386598Y-186393328D02*
X181243740Y-186321900D01*
X181243740Y-186321900D02*
X181172312Y-186179042D01*
X181172312Y-186179042D02*
X181172312Y-185607614D01*
X181172312Y-185607614D02*
X181243740Y-185464757D01*
X181243740Y-185464757D02*
X181386598Y-185393328D01*
X181386598Y-185393328D02*
X181672312Y-185393328D01*
X181672312Y-185393328D02*
X181815169Y-185464757D01*
X181815169Y-185464757D02*
X181886598Y-185607614D01*
X181886598Y-185607614D02*
X181886598Y-185750471D01*
X181886598Y-185750471D02*
X181172312Y-185893328D01*
X182529454Y-186250471D02*
X182600883Y-186321900D01*
X182600883Y-186321900D02*
X182529454Y-186393328D01*
X182529454Y-186393328D02*
X182458026Y-186321900D01*
X182458026Y-186321900D02*
X182529454Y-186250471D01*
X182529454Y-186250471D02*
X182529454Y-186393328D01*
X182529454Y-185464757D02*
X182600883Y-185536185D01*
X182600883Y-185536185D02*
X182529454Y-185607614D01*
X182529454Y-185607614D02*
X182458026Y-185536185D01*
X182458026Y-185536185D02*
X182529454Y-185464757D01*
X182529454Y-185464757D02*
X182529454Y-185607614D01*
X185029455Y-186321900D02*
X184886597Y-186393328D01*
X184886597Y-186393328D02*
X184600883Y-186393328D01*
X184600883Y-186393328D02*
X184458026Y-186321900D01*
X184458026Y-186321900D02*
X184386597Y-186250471D01*
X184386597Y-186250471D02*
X184315169Y-186107614D01*
X184315169Y-186107614D02*
X184315169Y-185679042D01*
X184315169Y-185679042D02*
X184386597Y-185536185D01*
X184386597Y-185536185D02*
X184458026Y-185464757D01*
X184458026Y-185464757D02*
X184600883Y-185393328D01*
X184600883Y-185393328D02*
X184886597Y-185393328D01*
X184886597Y-185393328D02*
X185029455Y-185464757D01*
X185672311Y-186393328D02*
X185672311Y-185393328D01*
X185672311Y-185679042D02*
X185743740Y-185536185D01*
X185743740Y-185536185D02*
X185815169Y-185464757D01*
X185815169Y-185464757D02*
X185958026Y-185393328D01*
X185958026Y-185393328D02*
X186100883Y-185393328D01*
X186815168Y-186393328D02*
X186672311Y-186321900D01*
X186672311Y-186321900D02*
X186600882Y-186250471D01*
X186600882Y-186250471D02*
X186529454Y-186107614D01*
X186529454Y-186107614D02*
X186529454Y-185679042D01*
X186529454Y-185679042D02*
X186600882Y-185536185D01*
X186600882Y-185536185D02*
X186672311Y-185464757D01*
X186672311Y-185464757D02*
X186815168Y-185393328D01*
X186815168Y-185393328D02*
X187029454Y-185393328D01*
X187029454Y-185393328D02*
X187172311Y-185464757D01*
X187172311Y-185464757D02*
X187243740Y-185536185D01*
X187243740Y-185536185D02*
X187315168Y-185679042D01*
X187315168Y-185679042D02*
X187315168Y-186107614D01*
X187315168Y-186107614D02*
X187243740Y-186250471D01*
X187243740Y-186250471D02*
X187172311Y-186321900D01*
X187172311Y-186321900D02*
X187029454Y-186393328D01*
X187029454Y-186393328D02*
X186815168Y-186393328D01*
X187815168Y-185393328D02*
X188100883Y-186393328D01*
X188100883Y-186393328D02*
X188386597Y-185679042D01*
X188386597Y-185679042D02*
X188672311Y-186393328D01*
X188672311Y-186393328D02*
X188958025Y-185393328D01*
X189172312Y-186536185D02*
X190315169Y-186536185D01*
X190672311Y-186393328D02*
X190672311Y-185393328D01*
X190672311Y-184893328D02*
X190600883Y-184964757D01*
X190600883Y-184964757D02*
X190672311Y-185036185D01*
X190672311Y-185036185D02*
X190743740Y-184964757D01*
X190743740Y-184964757D02*
X190672311Y-184893328D01*
X190672311Y-184893328D02*
X190672311Y-185036185D01*
X191386597Y-186393328D02*
X191386597Y-185393328D01*
X191386597Y-185536185D02*
X191458026Y-185464757D01*
X191458026Y-185464757D02*
X191600883Y-185393328D01*
X191600883Y-185393328D02*
X191815169Y-185393328D01*
X191815169Y-185393328D02*
X191958026Y-185464757D01*
X191958026Y-185464757D02*
X192029455Y-185607614D01*
X192029455Y-185607614D02*
X192029455Y-186393328D01*
X192029455Y-185607614D02*
X192100883Y-185464757D01*
X192100883Y-185464757D02*
X192243740Y-185393328D01*
X192243740Y-185393328D02*
X192458026Y-185393328D01*
X192458026Y-185393328D02*
X192600883Y-185464757D01*
X192600883Y-185464757D02*
X192672312Y-185607614D01*
X192672312Y-185607614D02*
X192672312Y-186393328D01*
X194029455Y-185393328D02*
X194029455Y-186393328D01*
X193386597Y-185393328D02*
X193386597Y-186179042D01*
X193386597Y-186179042D02*
X193458026Y-186321900D01*
X193458026Y-186321900D02*
X193600883Y-186393328D01*
X193600883Y-186393328D02*
X193815169Y-186393328D01*
X193815169Y-186393328D02*
X193958026Y-186321900D01*
X193958026Y-186321900D02*
X194029455Y-186250471D01*
X194743740Y-186250471D02*
X194815169Y-186321900D01*
X194815169Y-186321900D02*
X194743740Y-186393328D01*
X194743740Y-186393328D02*
X194672312Y-186321900D01*
X194672312Y-186321900D02*
X194743740Y-186250471D01*
X194743740Y-186250471D02*
X194743740Y-186393328D01*
X195458026Y-186393328D02*
X195458026Y-184893328D01*
X195600884Y-185821900D02*
X196029455Y-186393328D01*
X196029455Y-185393328D02*
X195458026Y-185964757D01*
X196672312Y-186393328D02*
X196672312Y-185393328D01*
X196672312Y-184893328D02*
X196600884Y-184964757D01*
X196600884Y-184964757D02*
X196672312Y-185036185D01*
X196672312Y-185036185D02*
X196743741Y-184964757D01*
X196743741Y-184964757D02*
X196672312Y-184893328D01*
X196672312Y-184893328D02*
X196672312Y-185036185D01*
X198029456Y-186321900D02*
X197886598Y-186393328D01*
X197886598Y-186393328D02*
X197600884Y-186393328D01*
X197600884Y-186393328D02*
X197458027Y-186321900D01*
X197458027Y-186321900D02*
X197386598Y-186250471D01*
X197386598Y-186250471D02*
X197315170Y-186107614D01*
X197315170Y-186107614D02*
X197315170Y-185679042D01*
X197315170Y-185679042D02*
X197386598Y-185536185D01*
X197386598Y-185536185D02*
X197458027Y-185464757D01*
X197458027Y-185464757D02*
X197600884Y-185393328D01*
X197600884Y-185393328D02*
X197886598Y-185393328D01*
X197886598Y-185393328D02*
X198029456Y-185464757D01*
X199315170Y-186393328D02*
X199315170Y-185607614D01*
X199315170Y-185607614D02*
X199243741Y-185464757D01*
X199243741Y-185464757D02*
X199100884Y-185393328D01*
X199100884Y-185393328D02*
X198815170Y-185393328D01*
X198815170Y-185393328D02*
X198672312Y-185464757D01*
X199315170Y-186321900D02*
X199172312Y-186393328D01*
X199172312Y-186393328D02*
X198815170Y-186393328D01*
X198815170Y-186393328D02*
X198672312Y-186321900D01*
X198672312Y-186321900D02*
X198600884Y-186179042D01*
X198600884Y-186179042D02*
X198600884Y-186036185D01*
X198600884Y-186036185D02*
X198672312Y-185893328D01*
X198672312Y-185893328D02*
X198815170Y-185821900D01*
X198815170Y-185821900D02*
X199172312Y-185821900D01*
X199172312Y-185821900D02*
X199315170Y-185750471D01*
X200672313Y-186393328D02*
X200672313Y-184893328D01*
X200672313Y-186321900D02*
X200529455Y-186393328D01*
X200529455Y-186393328D02*
X200243741Y-186393328D01*
X200243741Y-186393328D02*
X200100884Y-186321900D01*
X200100884Y-186321900D02*
X200029455Y-186250471D01*
X200029455Y-186250471D02*
X199958027Y-186107614D01*
X199958027Y-186107614D02*
X199958027Y-185679042D01*
X199958027Y-185679042D02*
X200029455Y-185536185D01*
X200029455Y-185536185D02*
X200100884Y-185464757D01*
X200100884Y-185464757D02*
X200243741Y-185393328D01*
X200243741Y-185393328D02*
X200529455Y-185393328D01*
X200529455Y-185393328D02*
X200672313Y-185464757D01*
X201029456Y-186536185D02*
X202172313Y-186536185D01*
X202529455Y-185393328D02*
X202529455Y-186893328D01*
X202529455Y-185464757D02*
X202672313Y-185393328D01*
X202672313Y-185393328D02*
X202958027Y-185393328D01*
X202958027Y-185393328D02*
X203100884Y-185464757D01*
X203100884Y-185464757D02*
X203172313Y-185536185D01*
X203172313Y-185536185D02*
X203243741Y-185679042D01*
X203243741Y-185679042D02*
X203243741Y-186107614D01*
X203243741Y-186107614D02*
X203172313Y-186250471D01*
X203172313Y-186250471D02*
X203100884Y-186321900D01*
X203100884Y-186321900D02*
X202958027Y-186393328D01*
X202958027Y-186393328D02*
X202672313Y-186393328D01*
X202672313Y-186393328D02*
X202529455Y-186321900D01*
X204529456Y-186321900D02*
X204386598Y-186393328D01*
X204386598Y-186393328D02*
X204100884Y-186393328D01*
X204100884Y-186393328D02*
X203958027Y-186321900D01*
X203958027Y-186321900D02*
X203886598Y-186250471D01*
X203886598Y-186250471D02*
X203815170Y-186107614D01*
X203815170Y-186107614D02*
X203815170Y-185679042D01*
X203815170Y-185679042D02*
X203886598Y-185536185D01*
X203886598Y-185536185D02*
X203958027Y-185464757D01*
X203958027Y-185464757D02*
X204100884Y-185393328D01*
X204100884Y-185393328D02*
X204386598Y-185393328D01*
X204386598Y-185393328D02*
X204529456Y-185464757D01*
X205172312Y-186393328D02*
X205172312Y-184893328D01*
X205172312Y-185464757D02*
X205315170Y-185393328D01*
X205315170Y-185393328D02*
X205600884Y-185393328D01*
X205600884Y-185393328D02*
X205743741Y-185464757D01*
X205743741Y-185464757D02*
X205815170Y-185536185D01*
X205815170Y-185536185D02*
X205886598Y-185679042D01*
X205886598Y-185679042D02*
X205886598Y-186107614D01*
X205886598Y-186107614D02*
X205815170Y-186250471D01*
X205815170Y-186250471D02*
X205743741Y-186321900D01*
X205743741Y-186321900D02*
X205600884Y-186393328D01*
X205600884Y-186393328D02*
X205315170Y-186393328D01*
X205315170Y-186393328D02*
X205172312Y-186321900D01*
D10*
D11*
X177002200Y-181507200D02*
X285002200Y-181507200D01*
D10*
D11*
X178386598Y-183621900D02*
X178600884Y-183693328D01*
X178600884Y-183693328D02*
X178958026Y-183693328D01*
X178958026Y-183693328D02*
X179100884Y-183621900D01*
X179100884Y-183621900D02*
X179172312Y-183550471D01*
X179172312Y-183550471D02*
X179243741Y-183407614D01*
X179243741Y-183407614D02*
X179243741Y-183264757D01*
X179243741Y-183264757D02*
X179172312Y-183121900D01*
X179172312Y-183121900D02*
X179100884Y-183050471D01*
X179100884Y-183050471D02*
X178958026Y-182979042D01*
X178958026Y-182979042D02*
X178672312Y-182907614D01*
X178672312Y-182907614D02*
X178529455Y-182836185D01*
X178529455Y-182836185D02*
X178458026Y-182764757D01*
X178458026Y-182764757D02*
X178386598Y-182621900D01*
X178386598Y-182621900D02*
X178386598Y-182479042D01*
X178386598Y-182479042D02*
X178458026Y-182336185D01*
X178458026Y-182336185D02*
X178529455Y-182264757D01*
X178529455Y-182264757D02*
X178672312Y-182193328D01*
X178672312Y-182193328D02*
X179029455Y-182193328D01*
X179029455Y-182193328D02*
X179243741Y-182264757D01*
X179886597Y-183693328D02*
X179886597Y-182193328D01*
X180529455Y-183693328D02*
X180529455Y-182907614D01*
X180529455Y-182907614D02*
X180458026Y-182764757D01*
X180458026Y-182764757D02*
X180315169Y-182693328D01*
X180315169Y-182693328D02*
X180100883Y-182693328D01*
X180100883Y-182693328D02*
X179958026Y-182764757D01*
X179958026Y-182764757D02*
X179886597Y-182836185D01*
X181815169Y-183621900D02*
X181672312Y-183693328D01*
X181672312Y-183693328D02*
X181386598Y-183693328D01*
X181386598Y-183693328D02*
X181243740Y-183621900D01*
X181243740Y-183621900D02*
X181172312Y-183479042D01*
X181172312Y-183479042D02*
X181172312Y-182907614D01*
X181172312Y-182907614D02*
X181243740Y-182764757D01*
X181243740Y-182764757D02*
X181386598Y-182693328D01*
X181386598Y-182693328D02*
X181672312Y-182693328D01*
X181672312Y-182693328D02*
X181815169Y-182764757D01*
X181815169Y-182764757D02*
X181886598Y-182907614D01*
X181886598Y-182907614D02*
X181886598Y-183050471D01*
X181886598Y-183050471D02*
X181172312Y-183193328D01*
X183100883Y-183621900D02*
X182958026Y-183693328D01*
X182958026Y-183693328D02*
X182672312Y-183693328D01*
X182672312Y-183693328D02*
X182529454Y-183621900D01*
X182529454Y-183621900D02*
X182458026Y-183479042D01*
X182458026Y-183479042D02*
X182458026Y-182907614D01*
X182458026Y-182907614D02*
X182529454Y-182764757D01*
X182529454Y-182764757D02*
X182672312Y-182693328D01*
X182672312Y-182693328D02*
X182958026Y-182693328D01*
X182958026Y-182693328D02*
X183100883Y-182764757D01*
X183100883Y-182764757D02*
X183172312Y-182907614D01*
X183172312Y-182907614D02*
X183172312Y-183050471D01*
X183172312Y-183050471D02*
X182458026Y-183193328D01*
X183600883Y-182693328D02*
X184172311Y-182693328D01*
X183815168Y-182193328D02*
X183815168Y-183479042D01*
X183815168Y-183479042D02*
X183886597Y-183621900D01*
X183886597Y-183621900D02*
X184029454Y-183693328D01*
X184029454Y-183693328D02*
X184172311Y-183693328D01*
X184672311Y-183550471D02*
X184743740Y-183621900D01*
X184743740Y-183621900D02*
X184672311Y-183693328D01*
X184672311Y-183693328D02*
X184600883Y-183621900D01*
X184600883Y-183621900D02*
X184672311Y-183550471D01*
X184672311Y-183550471D02*
X184672311Y-183693328D01*
X184672311Y-182764757D02*
X184743740Y-182836185D01*
X184743740Y-182836185D02*
X184672311Y-182907614D01*
X184672311Y-182907614D02*
X184600883Y-182836185D01*
X184600883Y-182836185D02*
X184672311Y-182764757D01*
X184672311Y-182764757D02*
X184672311Y-182907614D01*
D10*
D12*
D10*
D11*
D10*
D11*
D10*
D11*
D10*
D11*
D10*
D11*
X197002200Y-191507200D02*
X197002200Y-194507200D01*
D10*
D11*
X261002200Y-191507200D02*
X261002200Y-198007200D01*
D14*
%TO.P, ,1*%
%TO.N,GND*%
X100000000Y-53000000D03*
D15*
%TO.P, ,2*%
%TO.N,+5V*%
X100000000Y-54000000D03*
%TO.P, ,3*%
%TO.N,SCLK*%
X100000000Y-55000000D03*
%TO.P, ,4*%
%TO.N,MOSI*%
X100000000Y-56000000D03*
%TO.P, ,5*%
%TO.N,MISO*%
X100000000Y-57000000D03*
%TO.P, ,6*%
%TO.N,CS*%
X100000000Y-58000000D03*
%TO.P, ,7*%
%TO.N,INT*%
X100000000Y-59000000D03*
%TO.P, ,8*%
%TO.N,FSYNC*%
X100000000Y-60000000D03*
%TD*%
D16*
%TO.P, ,1*%
%TO.N,GND*%
X121000000Y-53000000D03*
D17*
%TO.P, ,2*%
X121000000Y-54000000D03*
%TO.P, ,3*%
X121000000Y-55000000D03*
%TO.P, ,4*%
X121000000Y-56000000D03*
%TO.P, ,5*%
X121000000Y-57000000D03*
%TO.P, ,6*%
X121000000Y-58000000D03*
%TO.P, ,7*%
X121000000Y-59000000D03*
%TO.P, ,8*%
X121000000Y-60000000D03*
%TD*%
D14*
%TO.P, ,1*%
%TO.N,GND*%
X142000000Y-60100000D03*
D15*
%TO.P, ,2*%
%TO.N,+5V*%
X142000000Y-59100000D03*
%TO.P, ,3*%
%TO.N,SCLK*%
X142000000Y-58100000D03*
%TO.P, ,4*%
%TO.N,MOSI*%
X142000000Y-57100000D03*
%TO.P, ,5*%
%TO.N,MISO*%
X142000000Y-56100000D03*
%TO.P, ,6*%
%TO.N,CS*%
X142000000Y-55100000D03*
%TO.P, ,7*%
%TO.N,INT*%
X142000000Y-54100000D03*
%TO.P, ,8*%
%TO.N,FSYNC*%
X142000000Y-53100000D03*
%TD*%
D18*
%TO.N,GND*%
X109450000Y-56320000D03*
D19*
X113250000Y-54895000D03*
D18*
X132550000Y-56780000D03*
X108700000Y-60720000D03*
D19*
X128750000Y-58205000D03*
D18*
X119400000Y-52420000D03*
X119400000Y-60720000D03*
X135000000Y-57280000D03*
X119900000Y-52920000D03*
D20*
X139000000Y-59400000D03*
D18*
X122100000Y-52880000D03*
X101600000Y-52100000D03*
X109450000Y-59270000D03*
X122600000Y-52380000D03*
X140400000Y-61000000D03*
X122600000Y-60680000D03*
X107000000Y-56820000D03*
X122100000Y-60180000D03*
X135000000Y-56280000D03*
X108000000Y-60720000D03*
X132550000Y-53830000D03*
D20*
X103000000Y-53700000D03*
D18*
X132600000Y-52380000D03*
X107000000Y-55820000D03*
D20*
X140400000Y-52300000D03*
D18*
X138650000Y-53430000D03*
X109450000Y-55320000D03*
X119900000Y-60220000D03*
X132550000Y-57780000D03*
X109450000Y-57320000D03*
X103350000Y-59670000D03*
X109400000Y-60720000D03*
X132550000Y-55780000D03*
D20*
X101600000Y-60800000D03*
D18*
X133300000Y-52380000D03*
X134000000Y-52380000D03*
%TD*%
%TA.AperFunction,Conductor*%
%TO.N,GND*%
G36*
X140520978Y-51640088D02*
G01*
X141679783Y-52258118D01*
X141729672Y-52307035D01*
X141745195Y-52375158D01*
X141721424Y-52440860D01*
X141679056Y-52477326D01*
X141599150Y-52519263D01*
X141534968Y-52576124D01*
X141471988Y-52631920D01*
X141471816Y-52632072D01*
X141375182Y-52772068D01*
X141314860Y-52931125D01*
X141314859Y-52931130D01*
X141294355Y-53099999D01*
X141314859Y-53268869D01*
X141314860Y-53268874D01*
X141375182Y-53427931D01*
X141445332Y-53529560D01*
X141467215Y-53595915D01*
X141449750Y-53663566D01*
X141445332Y-53670440D01*
X141375183Y-53772068D01*
X141375182Y-53772068D01*
X141314860Y-53931125D01*
X141314859Y-53931130D01*
X141294355Y-54100000D01*
X141314859Y-54268869D01*
X141314860Y-54268874D01*
X141375182Y-54427931D01*
X141445332Y-54529559D01*
X141467215Y-54595913D01*
X141449750Y-54663565D01*
X141445332Y-54670439D01*
X141375183Y-54772068D01*
X141375182Y-54772068D01*
X141314860Y-54931125D01*
X141314859Y-54931130D01*
X141294355Y-55100000D01*
X141314859Y-55268869D01*
X141314860Y-55268874D01*
X141375182Y-55427931D01*
X141445332Y-55529560D01*
X141467215Y-55595915D01*
X141449750Y-55663566D01*
X141445332Y-55670440D01*
X141375183Y-55772068D01*
X141375182Y-55772068D01*
X141314860Y-55931125D01*
X141314859Y-55931130D01*
X141294355Y-56100000D01*
X141314859Y-56268869D01*
X141314860Y-56268874D01*
X141375182Y-56427931D01*
X141445332Y-56529559D01*
X141467215Y-56595913D01*
X141449750Y-56663565D01*
X141445332Y-56670439D01*
X141375183Y-56772068D01*
X141375182Y-56772068D01*
X141314860Y-56931125D01*
X141314859Y-56931130D01*
X141294355Y-57099999D01*
X141314859Y-57268869D01*
X141314860Y-57268874D01*
X141375182Y-57427931D01*
X141445332Y-57529560D01*
X141467215Y-57595915D01*
X141449750Y-57663566D01*
X141445332Y-57670440D01*
X141375183Y-57772068D01*
X141375182Y-57772068D01*
X141314860Y-57931125D01*
X141314859Y-57931130D01*
X141294355Y-58099999D01*
X141314859Y-58268869D01*
X141314860Y-58268874D01*
X141375182Y-58427931D01*
X141445332Y-58529560D01*
X141467215Y-58595915D01*
X141449750Y-58663566D01*
X141445332Y-58670440D01*
X141375183Y-58772068D01*
X141375182Y-58772068D01*
X141314860Y-58931125D01*
X141314859Y-58931130D01*
X141294355Y-59100000D01*
X141314859Y-59268869D01*
X141314860Y-59268874D01*
X141375182Y-59427931D01*
X141420855Y-59494098D01*
X141471817Y-59567929D01*
X141557385Y-59643735D01*
X141599150Y-59680736D01*
X141756416Y-59763276D01*
X141755182Y-59765625D01*
X141800872Y-59800210D01*
X141824939Y-59865804D01*
X141809722Y-59933997D01*
X141804311Y-59942880D01*
X141762089Y-60006069D01*
X141708476Y-60050874D01*
X141639151Y-60059581D01*
X141576124Y-60029426D01*
X141571306Y-60024859D01*
X141211745Y-59665298D01*
X141173279Y-59731923D01*
X141114819Y-59911845D01*
X141095043Y-60100000D01*
X141114819Y-60288154D01*
X141173278Y-60468072D01*
X141173281Y-60468079D01*
X141211745Y-60534700D01*
X141571307Y-60175140D01*
X141632630Y-60141655D01*
X141702322Y-60146639D01*
X141758255Y-60188511D01*
X141762090Y-60193930D01*
X141764504Y-60197544D01*
X141764505Y-60197545D01*
X141799554Y-60250000D01*
X141819760Y-60280240D01*
X141906068Y-60337909D01*
X141950874Y-60391521D01*
X141959581Y-60460846D01*
X141929427Y-60523873D01*
X141924859Y-60528692D01*
X141562961Y-60890589D01*
X141565574Y-60904688D01*
X141558435Y-60974192D01*
X141514853Y-61028803D01*
X141502003Y-61036696D01*
X140520977Y-61559912D01*
X140462624Y-61574500D01*
X132515047Y-61574500D01*
X122986772Y-61554226D01*
X122936151Y-61543304D01*
X121595564Y-60940040D01*
X121542507Y-60894579D01*
X121522451Y-60827650D01*
X121541763Y-60760502D01*
X121573564Y-60726644D01*
X121622353Y-60691196D01*
X121622360Y-60691190D01*
X121752463Y-60546694D01*
X121849682Y-60378307D01*
X121849683Y-60378306D01*
X121891372Y-60250000D01*
X121356265Y-60250000D01*
X121289226Y-60230315D01*
X121243471Y-60177511D01*
X121233527Y-60108353D01*
X121234647Y-60101809D01*
X121237535Y-60087284D01*
X121254898Y-60000000D01*
X121235495Y-59902455D01*
X121234647Y-59898191D01*
X121240875Y-59828599D01*
X121283739Y-59773422D01*
X121349629Y-59750178D01*
X121356265Y-59750000D01*
X121891372Y-59750000D01*
X121891371Y-59749999D01*
X121849683Y-59621694D01*
X121815218Y-59561998D01*
X121798745Y-59494098D01*
X121815219Y-59437997D01*
X121849684Y-59378302D01*
X121891372Y-59250000D01*
X121356265Y-59250000D01*
X121289226Y-59230315D01*
X121243471Y-59177511D01*
X121233527Y-59108353D01*
X121234647Y-59101809D01*
X121237535Y-59087284D01*
X121254898Y-59000000D01*
X121235495Y-58902455D01*
X121234647Y-58898191D01*
X121240875Y-58828599D01*
X121283739Y-58773422D01*
X121349629Y-58750178D01*
X121356265Y-58750000D01*
X121891372Y-58750000D01*
X121891371Y-58749999D01*
X121849683Y-58621694D01*
X121815218Y-58561998D01*
X121798745Y-58494098D01*
X121815218Y-58437998D01*
X121849685Y-58378300D01*
X121891372Y-58250000D01*
X121356265Y-58250000D01*
X121289226Y-58230315D01*
X121243471Y-58177511D01*
X121233527Y-58108353D01*
X121234647Y-58101809D01*
X121237535Y-58087284D01*
X121254898Y-58000000D01*
X121235495Y-57902455D01*
X121234647Y-57898191D01*
X121240875Y-57828599D01*
X121283739Y-57773422D01*
X121349629Y-57750178D01*
X121356265Y-57750000D01*
X121891372Y-57750000D01*
X121891371Y-57749999D01*
X121849683Y-57621694D01*
X121815218Y-57561998D01*
X121798745Y-57494098D01*
X121815219Y-57437997D01*
X121849684Y-57378302D01*
X121891372Y-57250000D01*
X121356265Y-57250000D01*
X121289226Y-57230315D01*
X121243471Y-57177511D01*
X121233527Y-57108353D01*
X121234647Y-57101809D01*
X121237115Y-57089400D01*
X121254898Y-57000000D01*
X121235495Y-56902455D01*
X121234647Y-56898191D01*
X121240875Y-56828599D01*
X121283739Y-56773422D01*
X121349629Y-56750178D01*
X121356265Y-56750000D01*
X121891372Y-56750000D01*
X121891371Y-56749999D01*
X121849684Y-56621697D01*
X121815218Y-56562000D01*
X121798745Y-56494100D01*
X121815218Y-56438000D01*
X121849684Y-56378302D01*
X121891372Y-56250000D01*
X121356265Y-56250000D01*
X121289226Y-56230315D01*
X121243471Y-56177511D01*
X121233527Y-56108353D01*
X121234647Y-56101809D01*
X121237535Y-56087284D01*
X121254898Y-56000000D01*
X121235495Y-55902455D01*
X121234647Y-55898191D01*
X121240875Y-55828599D01*
X121283739Y-55773422D01*
X121349629Y-55750178D01*
X121356265Y-55750000D01*
X121891372Y-55750000D01*
X121891371Y-55749999D01*
X121849683Y-55621694D01*
X121815218Y-55561998D01*
X121798745Y-55494098D01*
X121815219Y-55437997D01*
X121849684Y-55378302D01*
X121891372Y-55250000D01*
X121356265Y-55250000D01*
X121289226Y-55230315D01*
X121243471Y-55177511D01*
X121233527Y-55108353D01*
X121234647Y-55101809D01*
X121237535Y-55087284D01*
X121254898Y-55000000D01*
X121235495Y-54902455D01*
X121234647Y-54898191D01*
X121240875Y-54828599D01*
X121283739Y-54773422D01*
X121349629Y-54750178D01*
X121356265Y-54750000D01*
X121891372Y-54750000D01*
X121891371Y-54749999D01*
X121849684Y-54621697D01*
X121815218Y-54562000D01*
X121798745Y-54494100D01*
X121815218Y-54438000D01*
X121849684Y-54378302D01*
X121891372Y-54250000D01*
X121356265Y-54250000D01*
X121289226Y-54230315D01*
X121243471Y-54177511D01*
X121233527Y-54108353D01*
X121234647Y-54101809D01*
X121237535Y-54087284D01*
X121254898Y-54000000D01*
X121235495Y-53902455D01*
X121234647Y-53898191D01*
X121240875Y-53828599D01*
X121283739Y-53773422D01*
X121349629Y-53750178D01*
X121356265Y-53750000D01*
X121891372Y-53750000D01*
X121891371Y-53749999D01*
X121849683Y-53621694D01*
X121815218Y-53561998D01*
X121798745Y-53494098D01*
X121815219Y-53437997D01*
X121849684Y-53378302D01*
X121909768Y-53193382D01*
X121909769Y-53193380D01*
X121930094Y-53000000D01*
X121909769Y-52806619D01*
X121909768Y-52806617D01*
X121849686Y-52621701D01*
X121849683Y-52621695D01*
X121806555Y-52546996D01*
X121428692Y-52924859D01*
X121367369Y-52958344D01*
X121297677Y-52953360D01*
X121241744Y-52911488D01*
X121237909Y-52906068D01*
X121180240Y-52819760D01*
X121180239Y-52819759D01*
X121093929Y-52762089D01*
X121049123Y-52708477D01*
X121040416Y-52639152D01*
X121070570Y-52576125D01*
X121075138Y-52571306D01*
X121453122Y-52193322D01*
X121482441Y-52171597D01*
X122479021Y-51640087D01*
X122537374Y-51625500D01*
X140462625Y-51625500D01*
X140520978Y-51640088D01*
G37*
%TD.AperFunction*%
%TA.AperFunction,Conductor*%
G36*
X144417539Y-51645185D02*
G01*
X144463294Y-51697989D01*
X144474500Y-51749500D01*
X144474500Y-61450500D01*
X144454815Y-61517539D01*
X144402011Y-61563294D01*
X144350500Y-61574500D01*
X143537375Y-61574500D01*
X143479022Y-61559912D01*
X142497995Y-61036697D01*
X142448106Y-60987780D01*
X142432583Y-60919657D01*
X142434424Y-60904688D01*
X142437037Y-60890589D01*
X142075140Y-60528692D01*
X142041655Y-60467369D01*
X142046639Y-60397677D01*
X142088511Y-60341744D01*
X142093931Y-60337908D01*
X142097541Y-60335495D01*
X142097545Y-60335495D01*
X142180240Y-60280240D01*
X142235495Y-60197545D01*
X142235495Y-60197541D01*
X142237908Y-60193931D01*
X142291520Y-60149126D01*
X142360845Y-60140418D01*
X142423873Y-60170572D01*
X142428692Y-60175140D01*
X142788253Y-60534701D01*
X142826720Y-60468076D01*
X142885180Y-60288154D01*
X142904956Y-60100000D01*
X142885180Y-59911845D01*
X142826721Y-59731927D01*
X142826718Y-59731920D01*
X142788253Y-59665297D01*
X142428692Y-60024859D01*
X142367369Y-60058344D01*
X142297677Y-60053360D01*
X142241744Y-60011488D01*
X142237908Y-60006068D01*
X142235495Y-60002457D01*
X142235495Y-60002455D01*
X142195686Y-59942877D01*
X142174810Y-59876202D01*
X142193295Y-59808822D01*
X142243717Y-59763530D01*
X142243584Y-59763276D01*
X142244585Y-59762750D01*
X142245274Y-59762132D01*
X142247920Y-59760999D01*
X142250222Y-59759790D01*
X142250225Y-59759790D01*
X142346438Y-59709292D01*
X142400849Y-59680736D01*
X142400850Y-59680734D01*
X142400852Y-59680734D01*
X142528183Y-59567929D01*
X142624818Y-59427930D01*
X142685140Y-59268872D01*
X142705645Y-59100000D01*
X142685140Y-58931128D01*
X142624818Y-58772070D01*
X142554666Y-58670437D01*
X142532784Y-58604086D01*
X142550249Y-58536435D01*
X142554652Y-58529581D01*
X142624818Y-58427930D01*
X142685140Y-58268872D01*
X142705645Y-58100000D01*
X142685140Y-57931128D01*
X142624818Y-57772070D01*
X142554666Y-57670437D01*
X142532784Y-57604086D01*
X142550249Y-57536435D01*
X142554652Y-57529581D01*
X142624818Y-57427930D01*
X142685140Y-57268872D01*
X142705645Y-57100000D01*
X142685140Y-56931128D01*
X142624818Y-56772070D01*
X142554666Y-56670437D01*
X142532784Y-56604086D01*
X142550249Y-56536435D01*
X142554652Y-56529581D01*
X142624818Y-56427930D01*
X142685140Y-56268872D01*
X142705645Y-56100000D01*
X142685140Y-55931128D01*
X142624818Y-55772070D01*
X142619596Y-55764505D01*
X142554667Y-55670439D01*
X142532784Y-55604085D01*
X142550249Y-55536433D01*
X142554667Y-55529560D01*
X142624818Y-55427930D01*
X142685140Y-55268872D01*
X142705645Y-55100000D01*
X142685140Y-54931128D01*
X142624818Y-54772070D01*
X142554666Y-54670437D01*
X142532784Y-54604086D01*
X142550249Y-54536435D01*
X142554652Y-54529581D01*
X142624818Y-54427930D01*
X142685140Y-54268872D01*
X142705645Y-54100000D01*
X142685140Y-53931128D01*
X142624818Y-53772070D01*
X142554666Y-53670437D01*
X142532784Y-53604086D01*
X142550249Y-53536435D01*
X142554652Y-53529581D01*
X142624818Y-53427930D01*
X142685140Y-53268872D01*
X142705645Y-53100000D01*
X142685140Y-52931128D01*
X142675636Y-52906069D01*
X142639902Y-52811845D01*
X142624818Y-52772070D01*
X142619596Y-52764505D01*
X142576673Y-52702320D01*
X142528183Y-52632071D01*
X142400852Y-52519266D01*
X142320940Y-52477324D01*
X142270731Y-52428742D01*
X142254756Y-52360723D01*
X142278091Y-52294865D01*
X142320214Y-52258119D01*
X143081300Y-51852206D01*
X143479022Y-51640088D01*
X143537375Y-51625500D01*
X144350500Y-51625500D01*
X144417539Y-51645185D01*
G37*
%TD.AperFunction*%
%TA.AperFunction,Conductor*%
G36*
X98520978Y-51540088D02*
G01*
X99502003Y-52063302D01*
X99551892Y-52112219D01*
X99567415Y-52180342D01*
X99565574Y-52195310D01*
X99562961Y-52209408D01*
X99924860Y-52571306D01*
X99958345Y-52632629D01*
X99953361Y-52702320D01*
X99911490Y-52758254D01*
X99906070Y-52762089D01*
X99819761Y-52819759D01*
X99762090Y-52906069D01*
X99708477Y-52950873D01*
X99639152Y-52959580D01*
X99576125Y-52929425D01*
X99571307Y-52924858D01*
X99211745Y-52565298D01*
X99173279Y-52631923D01*
X99114819Y-52811845D01*
X99095043Y-53000000D01*
X99114819Y-53188154D01*
X99173278Y-53368072D01*
X99173281Y-53368079D01*
X99211745Y-53434700D01*
X99571306Y-53075139D01*
X99632629Y-53041654D01*
X99702320Y-53046638D01*
X99758254Y-53088509D01*
X99762089Y-53093930D01*
X99804311Y-53157120D01*
X99825189Y-53223797D01*
X99806704Y-53291177D01*
X99756281Y-53336468D01*
X99756416Y-53336724D01*
X99755409Y-53337252D01*
X99754725Y-53337867D01*
X99752082Y-53338998D01*
X99599150Y-53419263D01*
X99501358Y-53505900D01*
X99474653Y-53529559D01*
X99471816Y-53532072D01*
X99375182Y-53672068D01*
X99314860Y-53831125D01*
X99314859Y-53831130D01*
X99294355Y-53999999D01*
X99314859Y-54168869D01*
X99314860Y-54168874D01*
X99375182Y-54327931D01*
X99445332Y-54429560D01*
X99467215Y-54495915D01*
X99449750Y-54563566D01*
X99445332Y-54570440D01*
X99375183Y-54672068D01*
X99375182Y-54672068D01*
X99314860Y-54831125D01*
X99314859Y-54831130D01*
X99294355Y-54999999D01*
X99314859Y-55168869D01*
X99314860Y-55168874D01*
X99375182Y-55327931D01*
X99437909Y-55418805D01*
X99444207Y-55427930D01*
X99445332Y-55429559D01*
X99467215Y-55495913D01*
X99449750Y-55563565D01*
X99445332Y-55570439D01*
X99375183Y-55672068D01*
X99375182Y-55672068D01*
X99314860Y-55831125D01*
X99314859Y-55831130D01*
X99294355Y-56000000D01*
X99314859Y-56168869D01*
X99314860Y-56168874D01*
X99375182Y-56327931D01*
X99445332Y-56429560D01*
X99467215Y-56495915D01*
X99449750Y-56563566D01*
X99445332Y-56570440D01*
X99375183Y-56672068D01*
X99375182Y-56672068D01*
X99314860Y-56831125D01*
X99314859Y-56831130D01*
X99294355Y-57000000D01*
X99314859Y-57168869D01*
X99314860Y-57168874D01*
X99375182Y-57327931D01*
X99445332Y-57429560D01*
X99467215Y-57495915D01*
X99449750Y-57563566D01*
X99445332Y-57570440D01*
X99375183Y-57672068D01*
X99375182Y-57672068D01*
X99314860Y-57831125D01*
X99314859Y-57831130D01*
X99294355Y-58000000D01*
X99314859Y-58168869D01*
X99314860Y-58168874D01*
X99375182Y-58327931D01*
X99445332Y-58429560D01*
X99467215Y-58495915D01*
X99449750Y-58563566D01*
X99445332Y-58570440D01*
X99375183Y-58672068D01*
X99375182Y-58672068D01*
X99314860Y-58831125D01*
X99314859Y-58831130D01*
X99294355Y-58999999D01*
X99314859Y-59168869D01*
X99314860Y-59168874D01*
X99375182Y-59327931D01*
X99445332Y-59429560D01*
X99467215Y-59495915D01*
X99449750Y-59563566D01*
X99445332Y-59570440D01*
X99375183Y-59672068D01*
X99375182Y-59672068D01*
X99314860Y-59831125D01*
X99314859Y-59831130D01*
X99294355Y-60000000D01*
X99314859Y-60168869D01*
X99314860Y-60168874D01*
X99375182Y-60327931D01*
X99409954Y-60378306D01*
X99471817Y-60467929D01*
X99599148Y-60580734D01*
X99679056Y-60622673D01*
X99729268Y-60671257D01*
X99745243Y-60739276D01*
X99721908Y-60805133D01*
X99679783Y-60841881D01*
X98520978Y-61459912D01*
X98462625Y-61474500D01*
X97649500Y-61474500D01*
X97582461Y-61454815D01*
X97536706Y-61402011D01*
X97525500Y-61350500D01*
X97525500Y-51649500D01*
X97545185Y-51582461D01*
X97597989Y-51536706D01*
X97649500Y-51525500D01*
X98462625Y-51525500D01*
X98520978Y-51540088D01*
G37*
%TD.AperFunction*%
%TA.AperFunction,Conductor*%
G36*
X119013227Y-51545771D02*
G01*
X119063845Y-51556693D01*
X120582033Y-52239877D01*
X120618828Y-52265273D01*
X120924860Y-52571307D01*
X120958344Y-52632630D01*
X120953360Y-52702322D01*
X120911488Y-52758255D01*
X120906069Y-52762090D01*
X120819760Y-52819760D01*
X120762089Y-52906070D01*
X120708476Y-52950875D01*
X120639151Y-52959582D01*
X120576124Y-52929427D01*
X120571306Y-52924860D01*
X120193443Y-52546996D01*
X120193442Y-52546997D01*
X120150317Y-52621692D01*
X120150316Y-52621694D01*
X120090231Y-52806617D01*
X120090230Y-52806619D01*
X120069905Y-53000000D01*
X120090230Y-53193380D01*
X120090231Y-53193382D01*
X120150313Y-53378298D01*
X120150316Y-53378304D01*
X120184781Y-53437999D01*
X120201254Y-53505900D01*
X120184781Y-53561998D01*
X120150319Y-53621687D01*
X120150316Y-53621693D01*
X120108628Y-53749999D01*
X120108628Y-53750000D01*
X120643735Y-53750000D01*
X120710774Y-53769685D01*
X120756529Y-53822489D01*
X120766473Y-53891647D01*
X120765353Y-53898191D01*
X120745102Y-54000000D01*
X120765353Y-54101809D01*
X120759125Y-54171401D01*
X120716261Y-54226578D01*
X120650371Y-54249822D01*
X120643735Y-54250000D01*
X120108628Y-54250000D01*
X120150316Y-54378306D01*
X120150317Y-54378307D01*
X120184781Y-54438000D01*
X120201254Y-54505900D01*
X120184781Y-54562000D01*
X120150317Y-54621692D01*
X120150316Y-54621693D01*
X120108628Y-54749999D01*
X120108628Y-54750000D01*
X120643735Y-54750000D01*
X120710774Y-54769685D01*
X120756529Y-54822489D01*
X120766473Y-54891647D01*
X120765353Y-54898191D01*
X120745102Y-54999999D01*
X120765353Y-55101809D01*
X120759125Y-55171401D01*
X120716261Y-55226578D01*
X120650371Y-55249822D01*
X120643735Y-55250000D01*
X120108628Y-55250000D01*
X120150315Y-55378302D01*
X120184781Y-55437999D01*
X120201254Y-55505900D01*
X120184781Y-55561998D01*
X120150319Y-55621687D01*
X120150316Y-55621693D01*
X120108628Y-55749999D01*
X120108628Y-55750000D01*
X120643735Y-55750000D01*
X120710774Y-55769685D01*
X120756529Y-55822489D01*
X120766473Y-55891647D01*
X120765353Y-55898191D01*
X120745102Y-56000000D01*
X120765353Y-56101809D01*
X120759125Y-56171401D01*
X120716261Y-56226578D01*
X120650371Y-56249822D01*
X120643735Y-56250000D01*
X120108628Y-56250000D01*
X120150316Y-56378306D01*
X120150317Y-56378307D01*
X120184781Y-56438000D01*
X120201254Y-56505900D01*
X120184781Y-56562000D01*
X120150317Y-56621692D01*
X120150316Y-56621693D01*
X120108628Y-56749999D01*
X120108628Y-56750000D01*
X120643735Y-56750000D01*
X120710774Y-56769685D01*
X120756529Y-56822489D01*
X120766473Y-56891647D01*
X120765353Y-56898191D01*
X120745102Y-57000000D01*
X120765353Y-57101809D01*
X120759125Y-57171401D01*
X120716261Y-57226578D01*
X120650371Y-57249822D01*
X120643735Y-57250000D01*
X120108628Y-57250000D01*
X120150315Y-57378302D01*
X120184781Y-57437999D01*
X120201254Y-57505900D01*
X120184781Y-57561998D01*
X120150319Y-57621687D01*
X120150316Y-57621693D01*
X120108628Y-57749999D01*
X120108628Y-57750000D01*
X120643735Y-57750000D01*
X120710774Y-57769685D01*
X120756529Y-57822489D01*
X120766473Y-57891647D01*
X120765353Y-57898191D01*
X120745102Y-58000000D01*
X120765353Y-58101809D01*
X120759125Y-58171401D01*
X120716261Y-58226578D01*
X120650371Y-58249822D01*
X120643735Y-58250000D01*
X120108628Y-58250000D01*
X120150316Y-58378306D01*
X120150317Y-58378307D01*
X120184781Y-58438000D01*
X120201254Y-58505900D01*
X120184781Y-58562000D01*
X120150317Y-58621692D01*
X120150316Y-58621693D01*
X120108628Y-58749999D01*
X120108628Y-58750000D01*
X120643735Y-58750000D01*
X120710774Y-58769685D01*
X120756529Y-58822489D01*
X120766473Y-58891647D01*
X120765353Y-58898191D01*
X120745102Y-58999999D01*
X120765353Y-59101809D01*
X120759125Y-59171401D01*
X120716261Y-59226578D01*
X120650371Y-59249822D01*
X120643735Y-59250000D01*
X120108628Y-59250000D01*
X120150315Y-59378302D01*
X120184781Y-59437999D01*
X120201254Y-59505900D01*
X120184781Y-59561998D01*
X120150319Y-59621687D01*
X120150316Y-59621693D01*
X120108628Y-59749999D01*
X120108628Y-59750000D01*
X120643735Y-59750000D01*
X120710774Y-59769685D01*
X120756529Y-59822489D01*
X120766473Y-59891647D01*
X120765353Y-59898191D01*
X120745102Y-60000000D01*
X120765353Y-60101809D01*
X120759125Y-60171401D01*
X120716261Y-60226578D01*
X120650371Y-60249822D01*
X120643735Y-60250000D01*
X120108628Y-60250000D01*
X120150316Y-60378306D01*
X120150317Y-60378307D01*
X120247536Y-60546694D01*
X120247535Y-60546694D01*
X120377639Y-60691190D01*
X120377646Y-60691196D01*
X120464833Y-60754541D01*
X120507499Y-60809871D01*
X120513478Y-60879484D01*
X120480872Y-60941279D01*
X120450301Y-60964271D01*
X119520978Y-61459912D01*
X119462625Y-61474500D01*
X101537375Y-61474500D01*
X101479022Y-61459912D01*
X100320216Y-60841881D01*
X100270327Y-60792964D01*
X100254804Y-60724840D01*
X100278575Y-60659139D01*
X100320939Y-60622675D01*
X100400852Y-60580734D01*
X100528183Y-60467929D01*
X100624818Y-60327930D01*
X100685140Y-60168872D01*
X100705645Y-60000000D01*
X100685140Y-59831128D01*
X100673524Y-59800500D01*
X100639496Y-59710774D01*
X100624818Y-59672070D01*
X100554667Y-59570440D01*
X100554667Y-59570439D01*
X100532784Y-59504085D01*
X100550249Y-59436433D01*
X100554667Y-59429560D01*
X100624818Y-59327930D01*
X100685140Y-59168872D01*
X100705645Y-59000000D01*
X100685140Y-58831128D01*
X100624818Y-58672070D01*
X100554666Y-58570437D01*
X100532784Y-58504086D01*
X100550249Y-58436435D01*
X100554652Y-58429581D01*
X100624818Y-58327930D01*
X100685140Y-58168872D01*
X100705645Y-58000000D01*
X100685140Y-57831128D01*
X100624818Y-57672070D01*
X100597208Y-57632071D01*
X100554667Y-57570439D01*
X100532784Y-57504085D01*
X100550249Y-57436433D01*
X100554667Y-57429560D01*
X100624818Y-57327930D01*
X100685140Y-57168872D01*
X100705645Y-57000000D01*
X100685140Y-56831128D01*
X100624818Y-56672070D01*
X100554666Y-56570437D01*
X100532784Y-56504086D01*
X100550249Y-56436435D01*
X100554652Y-56429581D01*
X100624818Y-56327930D01*
X100685140Y-56168872D01*
X100705645Y-56000000D01*
X100685140Y-55831128D01*
X100624818Y-55672070D01*
X100554666Y-55570437D01*
X100532784Y-55504086D01*
X100550249Y-55436435D01*
X100554652Y-55429581D01*
X100624818Y-55327930D01*
X100685140Y-55168872D01*
X100705645Y-55000000D01*
X100685140Y-54831128D01*
X100624818Y-54672070D01*
X100554666Y-54570437D01*
X100532784Y-54504086D01*
X100550249Y-54436435D01*
X100554652Y-54429581D01*
X100624818Y-54327930D01*
X100685140Y-54168872D01*
X100705645Y-54000000D01*
X100685140Y-53831128D01*
X100624818Y-53672070D01*
X100597208Y-53632071D01*
X100575071Y-53600000D01*
X100528183Y-53532071D01*
X100418275Y-53434701D01*
X100400849Y-53419263D01*
X100243584Y-53336724D01*
X100244814Y-53334379D01*
X100199111Y-53299766D01*
X100175059Y-53234167D01*
X100190290Y-53165978D01*
X100195688Y-53157120D01*
X100235495Y-53097545D01*
X100235495Y-53097544D01*
X100237910Y-53093930D01*
X100291522Y-53049124D01*
X100360847Y-53040417D01*
X100423874Y-53070571D01*
X100428693Y-53075139D01*
X100788253Y-53434701D01*
X100826720Y-53368076D01*
X100885180Y-53188154D01*
X100904956Y-53000000D01*
X100885180Y-52811845D01*
X100826721Y-52631927D01*
X100826718Y-52631920D01*
X100788253Y-52565297D01*
X100428692Y-52924859D01*
X100367369Y-52958344D01*
X100297677Y-52953360D01*
X100241744Y-52911488D01*
X100237909Y-52906068D01*
X100180240Y-52819760D01*
X100093930Y-52762089D01*
X100049125Y-52708476D01*
X100040418Y-52639151D01*
X100070573Y-52576124D01*
X100075140Y-52571306D01*
X100437037Y-52209409D01*
X100434424Y-52195310D01*
X100441562Y-52125806D01*
X100485144Y-52071195D01*
X100497980Y-52063309D01*
X101312818Y-51628728D01*
X101479022Y-51540087D01*
X101537375Y-51525499D01*
X109484952Y-51525499D01*
X119013227Y-51545771D01*
G37*
%TD.AperFunction*%
%TA.AperFunction,Conductor*%
G36*
X120898192Y-59234647D02*
G01*
X120975373Y-59250000D01*
X120975376Y-59250000D01*
X121024626Y-59250000D01*
X121101808Y-59234647D01*
X121171400Y-59240874D01*
X121226577Y-59283736D01*
X121249822Y-59349626D01*
X121250000Y-59356264D01*
X121250000Y-59643735D01*
X121230315Y-59710774D01*
X121177511Y-59756529D01*
X121108353Y-59766473D01*
X121101809Y-59765352D01*
X121024628Y-59750000D01*
X121024624Y-59750000D01*
X120975376Y-59750000D01*
X120975371Y-59750000D01*
X120898191Y-59765352D01*
X120828599Y-59759125D01*
X120773422Y-59716261D01*
X120750178Y-59650372D01*
X120750000Y-59643735D01*
X120750000Y-59356264D01*
X120769685Y-59289225D01*
X120822489Y-59243470D01*
X120891647Y-59233526D01*
X120898192Y-59234647D01*
G37*
%TD.AperFunction*%
%TA.AperFunction,Conductor*%
G36*
X120898192Y-58234647D02*
G01*
X120975373Y-58250000D01*
X120975376Y-58250000D01*
X121024626Y-58250000D01*
X121101808Y-58234647D01*
X121171400Y-58240874D01*
X121226577Y-58283736D01*
X121249822Y-58349626D01*
X121250000Y-58356264D01*
X121250000Y-58643735D01*
X121230315Y-58710774D01*
X121177511Y-58756529D01*
X121108353Y-58766473D01*
X121101809Y-58765352D01*
X121024628Y-58750000D01*
X121024624Y-58750000D01*
X120975376Y-58750000D01*
X120975371Y-58750000D01*
X120898191Y-58765352D01*
X120828599Y-58759125D01*
X120773422Y-58716261D01*
X120750178Y-58650372D01*
X120750000Y-58643735D01*
X120750000Y-58356264D01*
X120769685Y-58289225D01*
X120822489Y-58243470D01*
X120891647Y-58233526D01*
X120898192Y-58234647D01*
G37*
%TD.AperFunction*%
%TA.AperFunction,Conductor*%
G36*
X120898192Y-57234647D02*
G01*
X120975373Y-57250000D01*
X120975376Y-57250000D01*
X121024626Y-57250000D01*
X121101808Y-57234647D01*
X121171400Y-57240874D01*
X121226577Y-57283736D01*
X121249822Y-57349626D01*
X121250000Y-57356264D01*
X121250000Y-57643735D01*
X121230315Y-57710774D01*
X121177511Y-57756529D01*
X121108353Y-57766473D01*
X121101809Y-57765352D01*
X121024628Y-57750000D01*
X121024624Y-57750000D01*
X120975376Y-57750000D01*
X120975371Y-57750000D01*
X120898191Y-57765352D01*
X120828599Y-57759125D01*
X120773422Y-57716261D01*
X120750178Y-57650372D01*
X120750000Y-57643735D01*
X120750000Y-57356264D01*
X120769685Y-57289225D01*
X120822489Y-57243470D01*
X120891647Y-57233526D01*
X120898192Y-57234647D01*
G37*
%TD.AperFunction*%
%TA.AperFunction,Conductor*%
G36*
X120898192Y-56234647D02*
G01*
X120975373Y-56250000D01*
X120975376Y-56250000D01*
X121024626Y-56250000D01*
X121101808Y-56234647D01*
X121171400Y-56240874D01*
X121226577Y-56283736D01*
X121249822Y-56349626D01*
X121250000Y-56356264D01*
X121250000Y-56643735D01*
X121230315Y-56710774D01*
X121177511Y-56756529D01*
X121108353Y-56766473D01*
X121101809Y-56765352D01*
X121024628Y-56750000D01*
X121024624Y-56750000D01*
X120975376Y-56750000D01*
X120975371Y-56750000D01*
X120898191Y-56765352D01*
X120828599Y-56759125D01*
X120773422Y-56716261D01*
X120750178Y-56650372D01*
X120750000Y-56643735D01*
X120750000Y-56356264D01*
X120769685Y-56289225D01*
X120822489Y-56243470D01*
X120891647Y-56233526D01*
X120898192Y-56234647D01*
G37*
%TD.AperFunction*%
%TA.AperFunction,Conductor*%
G36*
X120898192Y-55234647D02*
G01*
X120975373Y-55250000D01*
X120975376Y-55250000D01*
X121024626Y-55250000D01*
X121101808Y-55234647D01*
X121171400Y-55240874D01*
X121226577Y-55283736D01*
X121249822Y-55349626D01*
X121250000Y-55356264D01*
X121250000Y-55643735D01*
X121230315Y-55710774D01*
X121177511Y-55756529D01*
X121108353Y-55766473D01*
X121101809Y-55765352D01*
X121024628Y-55750000D01*
X121024624Y-55750000D01*
X120975376Y-55750000D01*
X120975371Y-55750000D01*
X120898191Y-55765352D01*
X120828599Y-55759125D01*
X120773422Y-55716261D01*
X120750178Y-55650372D01*
X120750000Y-55643735D01*
X120750000Y-55356264D01*
X120769685Y-55289225D01*
X120822489Y-55243470D01*
X120891647Y-55233526D01*
X120898192Y-55234647D01*
G37*
%TD.AperFunction*%
%TA.AperFunction,Conductor*%
G36*
X120898192Y-54234647D02*
G01*
X120975373Y-54250000D01*
X120975376Y-54250000D01*
X121024626Y-54250000D01*
X121101808Y-54234647D01*
X121171400Y-54240874D01*
X121226577Y-54283736D01*
X121249822Y-54349626D01*
X121250000Y-54356264D01*
X121250000Y-54643735D01*
X121230315Y-54710774D01*
X121177511Y-54756529D01*
X121108353Y-54766473D01*
X121101809Y-54765352D01*
X121024628Y-54750000D01*
X121024624Y-54750000D01*
X120975376Y-54750000D01*
X120975371Y-54750000D01*
X120898191Y-54765352D01*
X120828599Y-54759125D01*
X120773422Y-54716261D01*
X120750178Y-54650372D01*
X120750000Y-54643735D01*
X120750000Y-54356264D01*
X120769685Y-54289225D01*
X120822489Y-54243470D01*
X120891647Y-54233526D01*
X120898192Y-54234647D01*
G37*
%TD.AperFunction*%
%TD*%
M02*
