%TF.GenerationSoftware,KiCad,Pcbnew,7.0.7*%
%TF.CreationDate,2024-01-01T11:16:14+09:00*%
%TF.ProjectId,crow_imu,63726f77-5f69-46d7-952e-6b696361645f,rev?*%
%TF.SameCoordinates,Original*%
%TF.FileFunction,Legend,Top*%
%TF.FilePolarity,Positive*%
%FSLAX46Y46*%
G04 Gerber Fmt 4.6, Leading zero omitted, Abs format (unit mm)*
G04 Created by KiCad (PCBNEW 7.0.7) date 2024-01-01 11:16:14*
%MOMM*%
%LPD*%
G01*
G04 APERTURE LIST*
%ADD10C,0.100000*%
%ADD11C,0.150000*%
%ADD12C,0.300000*%
%ADD13C,0.400000*%
%ADD14C,0.120000*%
%ADD15C,0.050000*%
G04 APERTURE END LIST*
D10*
D11*
X177002200Y-166007200D02*
X285002200Y-166007200D01*
X285002200Y-198007200D01*
X177002200Y-198007200D01*
X177002200Y-166007200D01*
D10*
D11*
X10000000Y-10000000D02*
X287002200Y-10000000D01*
X287002200Y-200007200D01*
X10000000Y-200007200D01*
X10000000Y-10000000D01*
D10*
D11*
X12000000Y-12000000D02*
X285002200Y-12000000D01*
X285002200Y-198007200D01*
X12000000Y-198007200D01*
X12000000Y-12000000D01*
D10*
D11*
X60000000Y-12000000D02*
X60000000Y-10000000D01*
D10*
D11*
X110000000Y-12000000D02*
X110000000Y-10000000D01*
D10*
D11*
X160000000Y-12000000D02*
X160000000Y-10000000D01*
D10*
D11*
X210000000Y-12000000D02*
X210000000Y-10000000D01*
D10*
D11*
X260000000Y-12000000D02*
X260000000Y-10000000D01*
D10*
D11*
X36089160Y-11593604D02*
X35346303Y-11593604D01*
X35717731Y-11593604D02*
X35717731Y-10293604D01*
X35717731Y-10293604D02*
X35593922Y-10479319D01*
X35593922Y-10479319D02*
X35470112Y-10603128D01*
X35470112Y-10603128D02*
X35346303Y-10665033D01*
D10*
D11*
X85346303Y-10417414D02*
X85408207Y-10355509D01*
X85408207Y-10355509D02*
X85532017Y-10293604D01*
X85532017Y-10293604D02*
X85841541Y-10293604D01*
X85841541Y-10293604D02*
X85965350Y-10355509D01*
X85965350Y-10355509D02*
X86027255Y-10417414D01*
X86027255Y-10417414D02*
X86089160Y-10541223D01*
X86089160Y-10541223D02*
X86089160Y-10665033D01*
X86089160Y-10665033D02*
X86027255Y-10850747D01*
X86027255Y-10850747D02*
X85284398Y-11593604D01*
X85284398Y-11593604D02*
X86089160Y-11593604D01*
D10*
D11*
X135284398Y-10293604D02*
X136089160Y-10293604D01*
X136089160Y-10293604D02*
X135655826Y-10788842D01*
X135655826Y-10788842D02*
X135841541Y-10788842D01*
X135841541Y-10788842D02*
X135965350Y-10850747D01*
X135965350Y-10850747D02*
X136027255Y-10912652D01*
X136027255Y-10912652D02*
X136089160Y-11036461D01*
X136089160Y-11036461D02*
X136089160Y-11345985D01*
X136089160Y-11345985D02*
X136027255Y-11469795D01*
X136027255Y-11469795D02*
X135965350Y-11531700D01*
X135965350Y-11531700D02*
X135841541Y-11593604D01*
X135841541Y-11593604D02*
X135470112Y-11593604D01*
X135470112Y-11593604D02*
X135346303Y-11531700D01*
X135346303Y-11531700D02*
X135284398Y-11469795D01*
D10*
D11*
X185965350Y-10726938D02*
X185965350Y-11593604D01*
X185655826Y-10231700D02*
X185346303Y-11160271D01*
X185346303Y-11160271D02*
X186151064Y-11160271D01*
D10*
D11*
X236027255Y-10293604D02*
X235408207Y-10293604D01*
X235408207Y-10293604D02*
X235346303Y-10912652D01*
X235346303Y-10912652D02*
X235408207Y-10850747D01*
X235408207Y-10850747D02*
X235532017Y-10788842D01*
X235532017Y-10788842D02*
X235841541Y-10788842D01*
X235841541Y-10788842D02*
X235965350Y-10850747D01*
X235965350Y-10850747D02*
X236027255Y-10912652D01*
X236027255Y-10912652D02*
X236089160Y-11036461D01*
X236089160Y-11036461D02*
X236089160Y-11345985D01*
X236089160Y-11345985D02*
X236027255Y-11469795D01*
X236027255Y-11469795D02*
X235965350Y-11531700D01*
X235965350Y-11531700D02*
X235841541Y-11593604D01*
X235841541Y-11593604D02*
X235532017Y-11593604D01*
X235532017Y-11593604D02*
X235408207Y-11531700D01*
X235408207Y-11531700D02*
X235346303Y-11469795D01*
D10*
D11*
X285965350Y-10293604D02*
X285717731Y-10293604D01*
X285717731Y-10293604D02*
X285593922Y-10355509D01*
X285593922Y-10355509D02*
X285532017Y-10417414D01*
X285532017Y-10417414D02*
X285408207Y-10603128D01*
X285408207Y-10603128D02*
X285346303Y-10850747D01*
X285346303Y-10850747D02*
X285346303Y-11345985D01*
X285346303Y-11345985D02*
X285408207Y-11469795D01*
X285408207Y-11469795D02*
X285470112Y-11531700D01*
X285470112Y-11531700D02*
X285593922Y-11593604D01*
X285593922Y-11593604D02*
X285841541Y-11593604D01*
X285841541Y-11593604D02*
X285965350Y-11531700D01*
X285965350Y-11531700D02*
X286027255Y-11469795D01*
X286027255Y-11469795D02*
X286089160Y-11345985D01*
X286089160Y-11345985D02*
X286089160Y-11036461D01*
X286089160Y-11036461D02*
X286027255Y-10912652D01*
X286027255Y-10912652D02*
X285965350Y-10850747D01*
X285965350Y-10850747D02*
X285841541Y-10788842D01*
X285841541Y-10788842D02*
X285593922Y-10788842D01*
X285593922Y-10788842D02*
X285470112Y-10850747D01*
X285470112Y-10850747D02*
X285408207Y-10912652D01*
X285408207Y-10912652D02*
X285346303Y-11036461D01*
D10*
D11*
X60000000Y-198007200D02*
X60000000Y-200007200D01*
D10*
D11*
X110000000Y-198007200D02*
X110000000Y-200007200D01*
D10*
D11*
X160000000Y-198007200D02*
X160000000Y-200007200D01*
D10*
D11*
X210000000Y-198007200D02*
X210000000Y-200007200D01*
D10*
D11*
X260000000Y-198007200D02*
X260000000Y-200007200D01*
D10*
D11*
X36089160Y-199600804D02*
X35346303Y-199600804D01*
X35717731Y-199600804D02*
X35717731Y-198300804D01*
X35717731Y-198300804D02*
X35593922Y-198486519D01*
X35593922Y-198486519D02*
X35470112Y-198610328D01*
X35470112Y-198610328D02*
X35346303Y-198672233D01*
D10*
D11*
X85346303Y-198424614D02*
X85408207Y-198362709D01*
X85408207Y-198362709D02*
X85532017Y-198300804D01*
X85532017Y-198300804D02*
X85841541Y-198300804D01*
X85841541Y-198300804D02*
X85965350Y-198362709D01*
X85965350Y-198362709D02*
X86027255Y-198424614D01*
X86027255Y-198424614D02*
X86089160Y-198548423D01*
X86089160Y-198548423D02*
X86089160Y-198672233D01*
X86089160Y-198672233D02*
X86027255Y-198857947D01*
X86027255Y-198857947D02*
X85284398Y-199600804D01*
X85284398Y-199600804D02*
X86089160Y-199600804D01*
D10*
D11*
X135284398Y-198300804D02*
X136089160Y-198300804D01*
X136089160Y-198300804D02*
X135655826Y-198796042D01*
X135655826Y-198796042D02*
X135841541Y-198796042D01*
X135841541Y-198796042D02*
X135965350Y-198857947D01*
X135965350Y-198857947D02*
X136027255Y-198919852D01*
X136027255Y-198919852D02*
X136089160Y-199043661D01*
X136089160Y-199043661D02*
X136089160Y-199353185D01*
X136089160Y-199353185D02*
X136027255Y-199476995D01*
X136027255Y-199476995D02*
X135965350Y-199538900D01*
X135965350Y-199538900D02*
X135841541Y-199600804D01*
X135841541Y-199600804D02*
X135470112Y-199600804D01*
X135470112Y-199600804D02*
X135346303Y-199538900D01*
X135346303Y-199538900D02*
X135284398Y-199476995D01*
D10*
D11*
X185965350Y-198734138D02*
X185965350Y-199600804D01*
X185655826Y-198238900D02*
X185346303Y-199167471D01*
X185346303Y-199167471D02*
X186151064Y-199167471D01*
D10*
D11*
X236027255Y-198300804D02*
X235408207Y-198300804D01*
X235408207Y-198300804D02*
X235346303Y-198919852D01*
X235346303Y-198919852D02*
X235408207Y-198857947D01*
X235408207Y-198857947D02*
X235532017Y-198796042D01*
X235532017Y-198796042D02*
X235841541Y-198796042D01*
X235841541Y-198796042D02*
X235965350Y-198857947D01*
X235965350Y-198857947D02*
X236027255Y-198919852D01*
X236027255Y-198919852D02*
X236089160Y-199043661D01*
X236089160Y-199043661D02*
X236089160Y-199353185D01*
X236089160Y-199353185D02*
X236027255Y-199476995D01*
X236027255Y-199476995D02*
X235965350Y-199538900D01*
X235965350Y-199538900D02*
X235841541Y-199600804D01*
X235841541Y-199600804D02*
X235532017Y-199600804D01*
X235532017Y-199600804D02*
X235408207Y-199538900D01*
X235408207Y-199538900D02*
X235346303Y-199476995D01*
D10*
D11*
X285965350Y-198300804D02*
X285717731Y-198300804D01*
X285717731Y-198300804D02*
X285593922Y-198362709D01*
X285593922Y-198362709D02*
X285532017Y-198424614D01*
X285532017Y-198424614D02*
X285408207Y-198610328D01*
X285408207Y-198610328D02*
X285346303Y-198857947D01*
X285346303Y-198857947D02*
X285346303Y-199353185D01*
X285346303Y-199353185D02*
X285408207Y-199476995D01*
X285408207Y-199476995D02*
X285470112Y-199538900D01*
X285470112Y-199538900D02*
X285593922Y-199600804D01*
X285593922Y-199600804D02*
X285841541Y-199600804D01*
X285841541Y-199600804D02*
X285965350Y-199538900D01*
X285965350Y-199538900D02*
X286027255Y-199476995D01*
X286027255Y-199476995D02*
X286089160Y-199353185D01*
X286089160Y-199353185D02*
X286089160Y-199043661D01*
X286089160Y-199043661D02*
X286027255Y-198919852D01*
X286027255Y-198919852D02*
X285965350Y-198857947D01*
X285965350Y-198857947D02*
X285841541Y-198796042D01*
X285841541Y-198796042D02*
X285593922Y-198796042D01*
X285593922Y-198796042D02*
X285470112Y-198857947D01*
X285470112Y-198857947D02*
X285408207Y-198919852D01*
X285408207Y-198919852D02*
X285346303Y-199043661D01*
D10*
D11*
X10000000Y-60000000D02*
X12000000Y-60000000D01*
D10*
D11*
X10000000Y-110000000D02*
X12000000Y-110000000D01*
D10*
D11*
X10000000Y-160000000D02*
X12000000Y-160000000D01*
D10*
D11*
X10690476Y-35222176D02*
X11309523Y-35222176D01*
X10566666Y-35593604D02*
X10999999Y-34293604D01*
X10999999Y-34293604D02*
X11433333Y-35593604D01*
D10*
D11*
X11092857Y-84912652D02*
X11278571Y-84974557D01*
X11278571Y-84974557D02*
X11340476Y-85036461D01*
X11340476Y-85036461D02*
X11402380Y-85160271D01*
X11402380Y-85160271D02*
X11402380Y-85345985D01*
X11402380Y-85345985D02*
X11340476Y-85469795D01*
X11340476Y-85469795D02*
X11278571Y-85531700D01*
X11278571Y-85531700D02*
X11154761Y-85593604D01*
X11154761Y-85593604D02*
X10659523Y-85593604D01*
X10659523Y-85593604D02*
X10659523Y-84293604D01*
X10659523Y-84293604D02*
X11092857Y-84293604D01*
X11092857Y-84293604D02*
X11216666Y-84355509D01*
X11216666Y-84355509D02*
X11278571Y-84417414D01*
X11278571Y-84417414D02*
X11340476Y-84541223D01*
X11340476Y-84541223D02*
X11340476Y-84665033D01*
X11340476Y-84665033D02*
X11278571Y-84788842D01*
X11278571Y-84788842D02*
X11216666Y-84850747D01*
X11216666Y-84850747D02*
X11092857Y-84912652D01*
X11092857Y-84912652D02*
X10659523Y-84912652D01*
D10*
D11*
X11402380Y-135469795D02*
X11340476Y-135531700D01*
X11340476Y-135531700D02*
X11154761Y-135593604D01*
X11154761Y-135593604D02*
X11030952Y-135593604D01*
X11030952Y-135593604D02*
X10845238Y-135531700D01*
X10845238Y-135531700D02*
X10721428Y-135407890D01*
X10721428Y-135407890D02*
X10659523Y-135284080D01*
X10659523Y-135284080D02*
X10597619Y-135036461D01*
X10597619Y-135036461D02*
X10597619Y-134850747D01*
X10597619Y-134850747D02*
X10659523Y-134603128D01*
X10659523Y-134603128D02*
X10721428Y-134479319D01*
X10721428Y-134479319D02*
X10845238Y-134355509D01*
X10845238Y-134355509D02*
X11030952Y-134293604D01*
X11030952Y-134293604D02*
X11154761Y-134293604D01*
X11154761Y-134293604D02*
X11340476Y-134355509D01*
X11340476Y-134355509D02*
X11402380Y-134417414D01*
D10*
D11*
X10659523Y-185593604D02*
X10659523Y-184293604D01*
X10659523Y-184293604D02*
X10969047Y-184293604D01*
X10969047Y-184293604D02*
X11154761Y-184355509D01*
X11154761Y-184355509D02*
X11278571Y-184479319D01*
X11278571Y-184479319D02*
X11340476Y-184603128D01*
X11340476Y-184603128D02*
X11402380Y-184850747D01*
X11402380Y-184850747D02*
X11402380Y-185036461D01*
X11402380Y-185036461D02*
X11340476Y-185284080D01*
X11340476Y-185284080D02*
X11278571Y-185407890D01*
X11278571Y-185407890D02*
X11154761Y-185531700D01*
X11154761Y-185531700D02*
X10969047Y-185593604D01*
X10969047Y-185593604D02*
X10659523Y-185593604D01*
D10*
D11*
X287002200Y-60000000D02*
X285002200Y-60000000D01*
D10*
D11*
X287002200Y-110000000D02*
X285002200Y-110000000D01*
D10*
D11*
X287002200Y-160000000D02*
X285002200Y-160000000D01*
D10*
D11*
X285692676Y-35222176D02*
X286311723Y-35222176D01*
X285568866Y-35593604D02*
X286002199Y-34293604D01*
X286002199Y-34293604D02*
X286435533Y-35593604D01*
D10*
D11*
X286095057Y-84912652D02*
X286280771Y-84974557D01*
X286280771Y-84974557D02*
X286342676Y-85036461D01*
X286342676Y-85036461D02*
X286404580Y-85160271D01*
X286404580Y-85160271D02*
X286404580Y-85345985D01*
X286404580Y-85345985D02*
X286342676Y-85469795D01*
X286342676Y-85469795D02*
X286280771Y-85531700D01*
X286280771Y-85531700D02*
X286156961Y-85593604D01*
X286156961Y-85593604D02*
X285661723Y-85593604D01*
X285661723Y-85593604D02*
X285661723Y-84293604D01*
X285661723Y-84293604D02*
X286095057Y-84293604D01*
X286095057Y-84293604D02*
X286218866Y-84355509D01*
X286218866Y-84355509D02*
X286280771Y-84417414D01*
X286280771Y-84417414D02*
X286342676Y-84541223D01*
X286342676Y-84541223D02*
X286342676Y-84665033D01*
X286342676Y-84665033D02*
X286280771Y-84788842D01*
X286280771Y-84788842D02*
X286218866Y-84850747D01*
X286218866Y-84850747D02*
X286095057Y-84912652D01*
X286095057Y-84912652D02*
X285661723Y-84912652D01*
D10*
D11*
X286404580Y-135469795D02*
X286342676Y-135531700D01*
X286342676Y-135531700D02*
X286156961Y-135593604D01*
X286156961Y-135593604D02*
X286033152Y-135593604D01*
X286033152Y-135593604D02*
X285847438Y-135531700D01*
X285847438Y-135531700D02*
X285723628Y-135407890D01*
X285723628Y-135407890D02*
X285661723Y-135284080D01*
X285661723Y-135284080D02*
X285599819Y-135036461D01*
X285599819Y-135036461D02*
X285599819Y-134850747D01*
X285599819Y-134850747D02*
X285661723Y-134603128D01*
X285661723Y-134603128D02*
X285723628Y-134479319D01*
X285723628Y-134479319D02*
X285847438Y-134355509D01*
X285847438Y-134355509D02*
X286033152Y-134293604D01*
X286033152Y-134293604D02*
X286156961Y-134293604D01*
X286156961Y-134293604D02*
X286342676Y-134355509D01*
X286342676Y-134355509D02*
X286404580Y-134417414D01*
D10*
D11*
X285661723Y-185593604D02*
X285661723Y-184293604D01*
X285661723Y-184293604D02*
X285971247Y-184293604D01*
X285971247Y-184293604D02*
X286156961Y-184355509D01*
X286156961Y-184355509D02*
X286280771Y-184479319D01*
X286280771Y-184479319D02*
X286342676Y-184603128D01*
X286342676Y-184603128D02*
X286404580Y-184850747D01*
X286404580Y-184850747D02*
X286404580Y-185036461D01*
X286404580Y-185036461D02*
X286342676Y-185284080D01*
X286342676Y-185284080D02*
X286280771Y-185407890D01*
X286280771Y-185407890D02*
X286156961Y-185531700D01*
X286156961Y-185531700D02*
X285971247Y-185593604D01*
X285971247Y-185593604D02*
X285661723Y-185593604D01*
D10*
D11*
X200458026Y-193793328D02*
X200458026Y-192293328D01*
X200458026Y-192293328D02*
X200815169Y-192293328D01*
X200815169Y-192293328D02*
X201029455Y-192364757D01*
X201029455Y-192364757D02*
X201172312Y-192507614D01*
X201172312Y-192507614D02*
X201243741Y-192650471D01*
X201243741Y-192650471D02*
X201315169Y-192936185D01*
X201315169Y-192936185D02*
X201315169Y-193150471D01*
X201315169Y-193150471D02*
X201243741Y-193436185D01*
X201243741Y-193436185D02*
X201172312Y-193579042D01*
X201172312Y-193579042D02*
X201029455Y-193721900D01*
X201029455Y-193721900D02*
X200815169Y-193793328D01*
X200815169Y-193793328D02*
X200458026Y-193793328D01*
X202600884Y-193793328D02*
X202600884Y-193007614D01*
X202600884Y-193007614D02*
X202529455Y-192864757D01*
X202529455Y-192864757D02*
X202386598Y-192793328D01*
X202386598Y-192793328D02*
X202100884Y-192793328D01*
X202100884Y-192793328D02*
X201958026Y-192864757D01*
X202600884Y-193721900D02*
X202458026Y-193793328D01*
X202458026Y-193793328D02*
X202100884Y-193793328D01*
X202100884Y-193793328D02*
X201958026Y-193721900D01*
X201958026Y-193721900D02*
X201886598Y-193579042D01*
X201886598Y-193579042D02*
X201886598Y-193436185D01*
X201886598Y-193436185D02*
X201958026Y-193293328D01*
X201958026Y-193293328D02*
X202100884Y-193221900D01*
X202100884Y-193221900D02*
X202458026Y-193221900D01*
X202458026Y-193221900D02*
X202600884Y-193150471D01*
X203100884Y-192793328D02*
X203672312Y-192793328D01*
X203315169Y-192293328D02*
X203315169Y-193579042D01*
X203315169Y-193579042D02*
X203386598Y-193721900D01*
X203386598Y-193721900D02*
X203529455Y-193793328D01*
X203529455Y-193793328D02*
X203672312Y-193793328D01*
X204743741Y-193721900D02*
X204600884Y-193793328D01*
X204600884Y-193793328D02*
X204315170Y-193793328D01*
X204315170Y-193793328D02*
X204172312Y-193721900D01*
X204172312Y-193721900D02*
X204100884Y-193579042D01*
X204100884Y-193579042D02*
X204100884Y-193007614D01*
X204100884Y-193007614D02*
X204172312Y-192864757D01*
X204172312Y-192864757D02*
X204315170Y-192793328D01*
X204315170Y-192793328D02*
X204600884Y-192793328D01*
X204600884Y-192793328D02*
X204743741Y-192864757D01*
X204743741Y-192864757D02*
X204815170Y-193007614D01*
X204815170Y-193007614D02*
X204815170Y-193150471D01*
X204815170Y-193150471D02*
X204100884Y-193293328D01*
X205458026Y-193650471D02*
X205529455Y-193721900D01*
X205529455Y-193721900D02*
X205458026Y-193793328D01*
X205458026Y-193793328D02*
X205386598Y-193721900D01*
X205386598Y-193721900D02*
X205458026Y-193650471D01*
X205458026Y-193650471D02*
X205458026Y-193793328D01*
X205458026Y-192864757D02*
X205529455Y-192936185D01*
X205529455Y-192936185D02*
X205458026Y-193007614D01*
X205458026Y-193007614D02*
X205386598Y-192936185D01*
X205386598Y-192936185D02*
X205458026Y-192864757D01*
X205458026Y-192864757D02*
X205458026Y-193007614D01*
D10*
D11*
X177002200Y-194507200D02*
X285002200Y-194507200D01*
D10*
D11*
X178458026Y-196593328D02*
X178458026Y-195093328D01*
X179315169Y-196593328D02*
X178672312Y-195736185D01*
X179315169Y-195093328D02*
X178458026Y-195950471D01*
X179958026Y-196593328D02*
X179958026Y-195593328D01*
X179958026Y-195093328D02*
X179886598Y-195164757D01*
X179886598Y-195164757D02*
X179958026Y-195236185D01*
X179958026Y-195236185D02*
X180029455Y-195164757D01*
X180029455Y-195164757D02*
X179958026Y-195093328D01*
X179958026Y-195093328D02*
X179958026Y-195236185D01*
X181529455Y-196450471D02*
X181458027Y-196521900D01*
X181458027Y-196521900D02*
X181243741Y-196593328D01*
X181243741Y-196593328D02*
X181100884Y-196593328D01*
X181100884Y-196593328D02*
X180886598Y-196521900D01*
X180886598Y-196521900D02*
X180743741Y-196379042D01*
X180743741Y-196379042D02*
X180672312Y-196236185D01*
X180672312Y-196236185D02*
X180600884Y-195950471D01*
X180600884Y-195950471D02*
X180600884Y-195736185D01*
X180600884Y-195736185D02*
X180672312Y-195450471D01*
X180672312Y-195450471D02*
X180743741Y-195307614D01*
X180743741Y-195307614D02*
X180886598Y-195164757D01*
X180886598Y-195164757D02*
X181100884Y-195093328D01*
X181100884Y-195093328D02*
X181243741Y-195093328D01*
X181243741Y-195093328D02*
X181458027Y-195164757D01*
X181458027Y-195164757D02*
X181529455Y-195236185D01*
X182815170Y-196593328D02*
X182815170Y-195807614D01*
X182815170Y-195807614D02*
X182743741Y-195664757D01*
X182743741Y-195664757D02*
X182600884Y-195593328D01*
X182600884Y-195593328D02*
X182315170Y-195593328D01*
X182315170Y-195593328D02*
X182172312Y-195664757D01*
X182815170Y-196521900D02*
X182672312Y-196593328D01*
X182672312Y-196593328D02*
X182315170Y-196593328D01*
X182315170Y-196593328D02*
X182172312Y-196521900D01*
X182172312Y-196521900D02*
X182100884Y-196379042D01*
X182100884Y-196379042D02*
X182100884Y-196236185D01*
X182100884Y-196236185D02*
X182172312Y-196093328D01*
X182172312Y-196093328D02*
X182315170Y-196021900D01*
X182315170Y-196021900D02*
X182672312Y-196021900D01*
X182672312Y-196021900D02*
X182815170Y-195950471D01*
X184172313Y-196593328D02*
X184172313Y-195093328D01*
X184172313Y-196521900D02*
X184029455Y-196593328D01*
X184029455Y-196593328D02*
X183743741Y-196593328D01*
X183743741Y-196593328D02*
X183600884Y-196521900D01*
X183600884Y-196521900D02*
X183529455Y-196450471D01*
X183529455Y-196450471D02*
X183458027Y-196307614D01*
X183458027Y-196307614D02*
X183458027Y-195879042D01*
X183458027Y-195879042D02*
X183529455Y-195736185D01*
X183529455Y-195736185D02*
X183600884Y-195664757D01*
X183600884Y-195664757D02*
X183743741Y-195593328D01*
X183743741Y-195593328D02*
X184029455Y-195593328D01*
X184029455Y-195593328D02*
X184172313Y-195664757D01*
X186029455Y-195807614D02*
X186529455Y-195807614D01*
X186743741Y-196593328D02*
X186029455Y-196593328D01*
X186029455Y-196593328D02*
X186029455Y-195093328D01*
X186029455Y-195093328D02*
X186743741Y-195093328D01*
X187386598Y-196450471D02*
X187458027Y-196521900D01*
X187458027Y-196521900D02*
X187386598Y-196593328D01*
X187386598Y-196593328D02*
X187315170Y-196521900D01*
X187315170Y-196521900D02*
X187386598Y-196450471D01*
X187386598Y-196450471D02*
X187386598Y-196593328D01*
X188100884Y-196593328D02*
X188100884Y-195093328D01*
X188100884Y-195093328D02*
X188458027Y-195093328D01*
X188458027Y-195093328D02*
X188672313Y-195164757D01*
X188672313Y-195164757D02*
X188815170Y-195307614D01*
X188815170Y-195307614D02*
X188886599Y-195450471D01*
X188886599Y-195450471D02*
X188958027Y-195736185D01*
X188958027Y-195736185D02*
X188958027Y-195950471D01*
X188958027Y-195950471D02*
X188886599Y-196236185D01*
X188886599Y-196236185D02*
X188815170Y-196379042D01*
X188815170Y-196379042D02*
X188672313Y-196521900D01*
X188672313Y-196521900D02*
X188458027Y-196593328D01*
X188458027Y-196593328D02*
X188100884Y-196593328D01*
X189600884Y-196450471D02*
X189672313Y-196521900D01*
X189672313Y-196521900D02*
X189600884Y-196593328D01*
X189600884Y-196593328D02*
X189529456Y-196521900D01*
X189529456Y-196521900D02*
X189600884Y-196450471D01*
X189600884Y-196450471D02*
X189600884Y-196593328D01*
X190243742Y-196164757D02*
X190958028Y-196164757D01*
X190100885Y-196593328D02*
X190600885Y-195093328D01*
X190600885Y-195093328D02*
X191100885Y-196593328D01*
X191600884Y-196450471D02*
X191672313Y-196521900D01*
X191672313Y-196521900D02*
X191600884Y-196593328D01*
X191600884Y-196593328D02*
X191529456Y-196521900D01*
X191529456Y-196521900D02*
X191600884Y-196450471D01*
X191600884Y-196450471D02*
X191600884Y-196593328D01*
X194600884Y-196593328D02*
X194600884Y-195093328D01*
X194743742Y-196021900D02*
X195172313Y-196593328D01*
X195172313Y-195593328D02*
X194600884Y-196164757D01*
X195815170Y-196593328D02*
X195815170Y-195593328D01*
X195815170Y-195093328D02*
X195743742Y-195164757D01*
X195743742Y-195164757D02*
X195815170Y-195236185D01*
X195815170Y-195236185D02*
X195886599Y-195164757D01*
X195886599Y-195164757D02*
X195815170Y-195093328D01*
X195815170Y-195093328D02*
X195815170Y-195236185D01*
X197172314Y-196521900D02*
X197029456Y-196593328D01*
X197029456Y-196593328D02*
X196743742Y-196593328D01*
X196743742Y-196593328D02*
X196600885Y-196521900D01*
X196600885Y-196521900D02*
X196529456Y-196450471D01*
X196529456Y-196450471D02*
X196458028Y-196307614D01*
X196458028Y-196307614D02*
X196458028Y-195879042D01*
X196458028Y-195879042D02*
X196529456Y-195736185D01*
X196529456Y-195736185D02*
X196600885Y-195664757D01*
X196600885Y-195664757D02*
X196743742Y-195593328D01*
X196743742Y-195593328D02*
X197029456Y-195593328D01*
X197029456Y-195593328D02*
X197172314Y-195664757D01*
X198458028Y-196593328D02*
X198458028Y-195807614D01*
X198458028Y-195807614D02*
X198386599Y-195664757D01*
X198386599Y-195664757D02*
X198243742Y-195593328D01*
X198243742Y-195593328D02*
X197958028Y-195593328D01*
X197958028Y-195593328D02*
X197815170Y-195664757D01*
X198458028Y-196521900D02*
X198315170Y-196593328D01*
X198315170Y-196593328D02*
X197958028Y-196593328D01*
X197958028Y-196593328D02*
X197815170Y-196521900D01*
X197815170Y-196521900D02*
X197743742Y-196379042D01*
X197743742Y-196379042D02*
X197743742Y-196236185D01*
X197743742Y-196236185D02*
X197815170Y-196093328D01*
X197815170Y-196093328D02*
X197958028Y-196021900D01*
X197958028Y-196021900D02*
X198315170Y-196021900D01*
X198315170Y-196021900D02*
X198458028Y-195950471D01*
X199815171Y-196593328D02*
X199815171Y-195093328D01*
X199815171Y-196521900D02*
X199672313Y-196593328D01*
X199672313Y-196593328D02*
X199386599Y-196593328D01*
X199386599Y-196593328D02*
X199243742Y-196521900D01*
X199243742Y-196521900D02*
X199172313Y-196450471D01*
X199172313Y-196450471D02*
X199100885Y-196307614D01*
X199100885Y-196307614D02*
X199100885Y-195879042D01*
X199100885Y-195879042D02*
X199172313Y-195736185D01*
X199172313Y-195736185D02*
X199243742Y-195664757D01*
X199243742Y-195664757D02*
X199386599Y-195593328D01*
X199386599Y-195593328D02*
X199672313Y-195593328D01*
X199672313Y-195593328D02*
X199815171Y-195664757D01*
X201529456Y-195093328D02*
X202529456Y-195093328D01*
X202529456Y-195093328D02*
X201886599Y-196593328D01*
X203100884Y-196450471D02*
X203172313Y-196521900D01*
X203172313Y-196521900D02*
X203100884Y-196593328D01*
X203100884Y-196593328D02*
X203029456Y-196521900D01*
X203029456Y-196521900D02*
X203100884Y-196450471D01*
X203100884Y-196450471D02*
X203100884Y-196593328D01*
X204100885Y-195093328D02*
X204243742Y-195093328D01*
X204243742Y-195093328D02*
X204386599Y-195164757D01*
X204386599Y-195164757D02*
X204458028Y-195236185D01*
X204458028Y-195236185D02*
X204529456Y-195379042D01*
X204529456Y-195379042D02*
X204600885Y-195664757D01*
X204600885Y-195664757D02*
X204600885Y-196021900D01*
X204600885Y-196021900D02*
X204529456Y-196307614D01*
X204529456Y-196307614D02*
X204458028Y-196450471D01*
X204458028Y-196450471D02*
X204386599Y-196521900D01*
X204386599Y-196521900D02*
X204243742Y-196593328D01*
X204243742Y-196593328D02*
X204100885Y-196593328D01*
X204100885Y-196593328D02*
X203958028Y-196521900D01*
X203958028Y-196521900D02*
X203886599Y-196450471D01*
X203886599Y-196450471D02*
X203815170Y-196307614D01*
X203815170Y-196307614D02*
X203743742Y-196021900D01*
X203743742Y-196021900D02*
X203743742Y-195664757D01*
X203743742Y-195664757D02*
X203815170Y-195379042D01*
X203815170Y-195379042D02*
X203886599Y-195236185D01*
X203886599Y-195236185D02*
X203958028Y-195164757D01*
X203958028Y-195164757D02*
X204100885Y-195093328D01*
X205243741Y-196450471D02*
X205315170Y-196521900D01*
X205315170Y-196521900D02*
X205243741Y-196593328D01*
X205243741Y-196593328D02*
X205172313Y-196521900D01*
X205172313Y-196521900D02*
X205243741Y-196450471D01*
X205243741Y-196450471D02*
X205243741Y-196593328D01*
X205815170Y-195093328D02*
X206815170Y-195093328D01*
X206815170Y-195093328D02*
X206172313Y-196593328D01*
D10*
D11*
X177002200Y-191507200D02*
X285002200Y-191507200D01*
D10*
D12*
X264413853Y-193785528D02*
X263913853Y-193071242D01*
X263556710Y-193785528D02*
X263556710Y-192285528D01*
X263556710Y-192285528D02*
X264128139Y-192285528D01*
X264128139Y-192285528D02*
X264270996Y-192356957D01*
X264270996Y-192356957D02*
X264342425Y-192428385D01*
X264342425Y-192428385D02*
X264413853Y-192571242D01*
X264413853Y-192571242D02*
X264413853Y-192785528D01*
X264413853Y-192785528D02*
X264342425Y-192928385D01*
X264342425Y-192928385D02*
X264270996Y-192999814D01*
X264270996Y-192999814D02*
X264128139Y-193071242D01*
X264128139Y-193071242D02*
X263556710Y-193071242D01*
X265628139Y-193714100D02*
X265485282Y-193785528D01*
X265485282Y-193785528D02*
X265199568Y-193785528D01*
X265199568Y-193785528D02*
X265056710Y-193714100D01*
X265056710Y-193714100D02*
X264985282Y-193571242D01*
X264985282Y-193571242D02*
X264985282Y-192999814D01*
X264985282Y-192999814D02*
X265056710Y-192856957D01*
X265056710Y-192856957D02*
X265199568Y-192785528D01*
X265199568Y-192785528D02*
X265485282Y-192785528D01*
X265485282Y-192785528D02*
X265628139Y-192856957D01*
X265628139Y-192856957D02*
X265699568Y-192999814D01*
X265699568Y-192999814D02*
X265699568Y-193142671D01*
X265699568Y-193142671D02*
X264985282Y-193285528D01*
X266199567Y-192785528D02*
X266556710Y-193785528D01*
X266556710Y-193785528D02*
X266913853Y-192785528D01*
X267485281Y-193642671D02*
X267556710Y-193714100D01*
X267556710Y-193714100D02*
X267485281Y-193785528D01*
X267485281Y-193785528D02*
X267413853Y-193714100D01*
X267413853Y-193714100D02*
X267485281Y-193642671D01*
X267485281Y-193642671D02*
X267485281Y-193785528D01*
X267485281Y-192856957D02*
X267556710Y-192928385D01*
X267556710Y-192928385D02*
X267485281Y-192999814D01*
X267485281Y-192999814D02*
X267413853Y-192928385D01*
X267413853Y-192928385D02*
X267485281Y-192856957D01*
X267485281Y-192856957D02*
X267485281Y-192999814D01*
D10*
D11*
X178386598Y-193721900D02*
X178600884Y-193793328D01*
X178600884Y-193793328D02*
X178958026Y-193793328D01*
X178958026Y-193793328D02*
X179100884Y-193721900D01*
X179100884Y-193721900D02*
X179172312Y-193650471D01*
X179172312Y-193650471D02*
X179243741Y-193507614D01*
X179243741Y-193507614D02*
X179243741Y-193364757D01*
X179243741Y-193364757D02*
X179172312Y-193221900D01*
X179172312Y-193221900D02*
X179100884Y-193150471D01*
X179100884Y-193150471D02*
X178958026Y-193079042D01*
X178958026Y-193079042D02*
X178672312Y-193007614D01*
X178672312Y-193007614D02*
X178529455Y-192936185D01*
X178529455Y-192936185D02*
X178458026Y-192864757D01*
X178458026Y-192864757D02*
X178386598Y-192721900D01*
X178386598Y-192721900D02*
X178386598Y-192579042D01*
X178386598Y-192579042D02*
X178458026Y-192436185D01*
X178458026Y-192436185D02*
X178529455Y-192364757D01*
X178529455Y-192364757D02*
X178672312Y-192293328D01*
X178672312Y-192293328D02*
X179029455Y-192293328D01*
X179029455Y-192293328D02*
X179243741Y-192364757D01*
X179886597Y-193793328D02*
X179886597Y-192793328D01*
X179886597Y-192293328D02*
X179815169Y-192364757D01*
X179815169Y-192364757D02*
X179886597Y-192436185D01*
X179886597Y-192436185D02*
X179958026Y-192364757D01*
X179958026Y-192364757D02*
X179886597Y-192293328D01*
X179886597Y-192293328D02*
X179886597Y-192436185D01*
X180458026Y-192793328D02*
X181243741Y-192793328D01*
X181243741Y-192793328D02*
X180458026Y-193793328D01*
X180458026Y-193793328D02*
X181243741Y-193793328D01*
X182386598Y-193721900D02*
X182243741Y-193793328D01*
X182243741Y-193793328D02*
X181958027Y-193793328D01*
X181958027Y-193793328D02*
X181815169Y-193721900D01*
X181815169Y-193721900D02*
X181743741Y-193579042D01*
X181743741Y-193579042D02*
X181743741Y-193007614D01*
X181743741Y-193007614D02*
X181815169Y-192864757D01*
X181815169Y-192864757D02*
X181958027Y-192793328D01*
X181958027Y-192793328D02*
X182243741Y-192793328D01*
X182243741Y-192793328D02*
X182386598Y-192864757D01*
X182386598Y-192864757D02*
X182458027Y-193007614D01*
X182458027Y-193007614D02*
X182458027Y-193150471D01*
X182458027Y-193150471D02*
X181743741Y-193293328D01*
X183100883Y-193650471D02*
X183172312Y-193721900D01*
X183172312Y-193721900D02*
X183100883Y-193793328D01*
X183100883Y-193793328D02*
X183029455Y-193721900D01*
X183029455Y-193721900D02*
X183100883Y-193650471D01*
X183100883Y-193650471D02*
X183100883Y-193793328D01*
X183100883Y-192864757D02*
X183172312Y-192936185D01*
X183172312Y-192936185D02*
X183100883Y-193007614D01*
X183100883Y-193007614D02*
X183029455Y-192936185D01*
X183029455Y-192936185D02*
X183100883Y-192864757D01*
X183100883Y-192864757D02*
X183100883Y-193007614D01*
X184886598Y-193364757D02*
X185600884Y-193364757D01*
X184743741Y-193793328D02*
X185243741Y-192293328D01*
X185243741Y-192293328D02*
X185743741Y-193793328D01*
X186886598Y-192793328D02*
X186886598Y-193793328D01*
X186529455Y-192221900D02*
X186172312Y-193293328D01*
X186172312Y-193293328D02*
X187100883Y-193293328D01*
D10*
D11*
X263458026Y-196593328D02*
X263458026Y-195093328D01*
X264815170Y-196593328D02*
X264815170Y-195093328D01*
X264815170Y-196521900D02*
X264672312Y-196593328D01*
X264672312Y-196593328D02*
X264386598Y-196593328D01*
X264386598Y-196593328D02*
X264243741Y-196521900D01*
X264243741Y-196521900D02*
X264172312Y-196450471D01*
X264172312Y-196450471D02*
X264100884Y-196307614D01*
X264100884Y-196307614D02*
X264100884Y-195879042D01*
X264100884Y-195879042D02*
X264172312Y-195736185D01*
X264172312Y-195736185D02*
X264243741Y-195664757D01*
X264243741Y-195664757D02*
X264386598Y-195593328D01*
X264386598Y-195593328D02*
X264672312Y-195593328D01*
X264672312Y-195593328D02*
X264815170Y-195664757D01*
X265529455Y-196450471D02*
X265600884Y-196521900D01*
X265600884Y-196521900D02*
X265529455Y-196593328D01*
X265529455Y-196593328D02*
X265458027Y-196521900D01*
X265458027Y-196521900D02*
X265529455Y-196450471D01*
X265529455Y-196450471D02*
X265529455Y-196593328D01*
X265529455Y-195664757D02*
X265600884Y-195736185D01*
X265600884Y-195736185D02*
X265529455Y-195807614D01*
X265529455Y-195807614D02*
X265458027Y-195736185D01*
X265458027Y-195736185D02*
X265529455Y-195664757D01*
X265529455Y-195664757D02*
X265529455Y-195807614D01*
X268172313Y-196593328D02*
X267315170Y-196593328D01*
X267743741Y-196593328D02*
X267743741Y-195093328D01*
X267743741Y-195093328D02*
X267600884Y-195307614D01*
X267600884Y-195307614D02*
X267458027Y-195450471D01*
X267458027Y-195450471D02*
X267315170Y-195521900D01*
X269886598Y-195021900D02*
X268600884Y-196950471D01*
X271172313Y-196593328D02*
X270315170Y-196593328D01*
X270743741Y-196593328D02*
X270743741Y-195093328D01*
X270743741Y-195093328D02*
X270600884Y-195307614D01*
X270600884Y-195307614D02*
X270458027Y-195450471D01*
X270458027Y-195450471D02*
X270315170Y-195521900D01*
D10*
D11*
X177002200Y-187507200D02*
X285002200Y-187507200D01*
D10*
D13*
X178693928Y-188211638D02*
X179836785Y-188211638D01*
X179015357Y-190211638D02*
X179265357Y-188211638D01*
X180253452Y-190211638D02*
X180420119Y-188878304D01*
X180503452Y-188211638D02*
X180396309Y-188306876D01*
X180396309Y-188306876D02*
X180479643Y-188402114D01*
X180479643Y-188402114D02*
X180586786Y-188306876D01*
X180586786Y-188306876D02*
X180503452Y-188211638D01*
X180503452Y-188211638D02*
X180479643Y-188402114D01*
X181086786Y-188878304D02*
X181848690Y-188878304D01*
X181455833Y-188211638D02*
X181241548Y-189925923D01*
X181241548Y-189925923D02*
X181312976Y-190116400D01*
X181312976Y-190116400D02*
X181491548Y-190211638D01*
X181491548Y-190211638D02*
X181682024Y-190211638D01*
X182634405Y-190211638D02*
X182455833Y-190116400D01*
X182455833Y-190116400D02*
X182384405Y-189925923D01*
X182384405Y-189925923D02*
X182598690Y-188211638D01*
X184170119Y-190116400D02*
X183967738Y-190211638D01*
X183967738Y-190211638D02*
X183586785Y-190211638D01*
X183586785Y-190211638D02*
X183408214Y-190116400D01*
X183408214Y-190116400D02*
X183336785Y-189925923D01*
X183336785Y-189925923D02*
X183432024Y-189164019D01*
X183432024Y-189164019D02*
X183551071Y-188973542D01*
X183551071Y-188973542D02*
X183753452Y-188878304D01*
X183753452Y-188878304D02*
X184134404Y-188878304D01*
X184134404Y-188878304D02*
X184312976Y-188973542D01*
X184312976Y-188973542D02*
X184384404Y-189164019D01*
X184384404Y-189164019D02*
X184360595Y-189354495D01*
X184360595Y-189354495D02*
X183384404Y-189544971D01*
X185134405Y-190021161D02*
X185217738Y-190116400D01*
X185217738Y-190116400D02*
X185110595Y-190211638D01*
X185110595Y-190211638D02*
X185027262Y-190116400D01*
X185027262Y-190116400D02*
X185134405Y-190021161D01*
X185134405Y-190021161D02*
X185110595Y-190211638D01*
X185265357Y-188973542D02*
X185348690Y-189068780D01*
X185348690Y-189068780D02*
X185241548Y-189164019D01*
X185241548Y-189164019D02*
X185158214Y-189068780D01*
X185158214Y-189068780D02*
X185265357Y-188973542D01*
X185265357Y-188973542D02*
X185241548Y-189164019D01*
D10*
D11*
X178958026Y-185607614D02*
X178458026Y-185607614D01*
X178458026Y-186393328D02*
X178458026Y-184893328D01*
X178458026Y-184893328D02*
X179172312Y-184893328D01*
X179743740Y-186393328D02*
X179743740Y-185393328D01*
X179743740Y-184893328D02*
X179672312Y-184964757D01*
X179672312Y-184964757D02*
X179743740Y-185036185D01*
X179743740Y-185036185D02*
X179815169Y-184964757D01*
X179815169Y-184964757D02*
X179743740Y-184893328D01*
X179743740Y-184893328D02*
X179743740Y-185036185D01*
X180672312Y-186393328D02*
X180529455Y-186321900D01*
X180529455Y-186321900D02*
X180458026Y-186179042D01*
X180458026Y-186179042D02*
X180458026Y-184893328D01*
X181815169Y-186321900D02*
X181672312Y-186393328D01*
X181672312Y-186393328D02*
X181386598Y-186393328D01*
X181386598Y-186393328D02*
X181243740Y-186321900D01*
X181243740Y-186321900D02*
X181172312Y-186179042D01*
X181172312Y-186179042D02*
X181172312Y-185607614D01*
X181172312Y-185607614D02*
X181243740Y-185464757D01*
X181243740Y-185464757D02*
X181386598Y-185393328D01*
X181386598Y-185393328D02*
X181672312Y-185393328D01*
X181672312Y-185393328D02*
X181815169Y-185464757D01*
X181815169Y-185464757D02*
X181886598Y-185607614D01*
X181886598Y-185607614D02*
X181886598Y-185750471D01*
X181886598Y-185750471D02*
X181172312Y-185893328D01*
X182529454Y-186250471D02*
X182600883Y-186321900D01*
X182600883Y-186321900D02*
X182529454Y-186393328D01*
X182529454Y-186393328D02*
X182458026Y-186321900D01*
X182458026Y-186321900D02*
X182529454Y-186250471D01*
X182529454Y-186250471D02*
X182529454Y-186393328D01*
X182529454Y-185464757D02*
X182600883Y-185536185D01*
X182600883Y-185536185D02*
X182529454Y-185607614D01*
X182529454Y-185607614D02*
X182458026Y-185536185D01*
X182458026Y-185536185D02*
X182529454Y-185464757D01*
X182529454Y-185464757D02*
X182529454Y-185607614D01*
X185029455Y-186321900D02*
X184886597Y-186393328D01*
X184886597Y-186393328D02*
X184600883Y-186393328D01*
X184600883Y-186393328D02*
X184458026Y-186321900D01*
X184458026Y-186321900D02*
X184386597Y-186250471D01*
X184386597Y-186250471D02*
X184315169Y-186107614D01*
X184315169Y-186107614D02*
X184315169Y-185679042D01*
X184315169Y-185679042D02*
X184386597Y-185536185D01*
X184386597Y-185536185D02*
X184458026Y-185464757D01*
X184458026Y-185464757D02*
X184600883Y-185393328D01*
X184600883Y-185393328D02*
X184886597Y-185393328D01*
X184886597Y-185393328D02*
X185029455Y-185464757D01*
X185672311Y-186393328D02*
X185672311Y-185393328D01*
X185672311Y-185679042D02*
X185743740Y-185536185D01*
X185743740Y-185536185D02*
X185815169Y-185464757D01*
X185815169Y-185464757D02*
X185958026Y-185393328D01*
X185958026Y-185393328D02*
X186100883Y-185393328D01*
X186815168Y-186393328D02*
X186672311Y-186321900D01*
X186672311Y-186321900D02*
X186600882Y-186250471D01*
X186600882Y-186250471D02*
X186529454Y-186107614D01*
X186529454Y-186107614D02*
X186529454Y-185679042D01*
X186529454Y-185679042D02*
X186600882Y-185536185D01*
X186600882Y-185536185D02*
X186672311Y-185464757D01*
X186672311Y-185464757D02*
X186815168Y-185393328D01*
X186815168Y-185393328D02*
X187029454Y-185393328D01*
X187029454Y-185393328D02*
X187172311Y-185464757D01*
X187172311Y-185464757D02*
X187243740Y-185536185D01*
X187243740Y-185536185D02*
X187315168Y-185679042D01*
X187315168Y-185679042D02*
X187315168Y-186107614D01*
X187315168Y-186107614D02*
X187243740Y-186250471D01*
X187243740Y-186250471D02*
X187172311Y-186321900D01*
X187172311Y-186321900D02*
X187029454Y-186393328D01*
X187029454Y-186393328D02*
X186815168Y-186393328D01*
X187815168Y-185393328D02*
X188100883Y-186393328D01*
X188100883Y-186393328D02*
X188386597Y-185679042D01*
X188386597Y-185679042D02*
X188672311Y-186393328D01*
X188672311Y-186393328D02*
X188958025Y-185393328D01*
X189172312Y-186536185D02*
X190315169Y-186536185D01*
X190672311Y-186393328D02*
X190672311Y-185393328D01*
X190672311Y-184893328D02*
X190600883Y-184964757D01*
X190600883Y-184964757D02*
X190672311Y-185036185D01*
X190672311Y-185036185D02*
X190743740Y-184964757D01*
X190743740Y-184964757D02*
X190672311Y-184893328D01*
X190672311Y-184893328D02*
X190672311Y-185036185D01*
X191386597Y-186393328D02*
X191386597Y-185393328D01*
X191386597Y-185536185D02*
X191458026Y-185464757D01*
X191458026Y-185464757D02*
X191600883Y-185393328D01*
X191600883Y-185393328D02*
X191815169Y-185393328D01*
X191815169Y-185393328D02*
X191958026Y-185464757D01*
X191958026Y-185464757D02*
X192029455Y-185607614D01*
X192029455Y-185607614D02*
X192029455Y-186393328D01*
X192029455Y-185607614D02*
X192100883Y-185464757D01*
X192100883Y-185464757D02*
X192243740Y-185393328D01*
X192243740Y-185393328D02*
X192458026Y-185393328D01*
X192458026Y-185393328D02*
X192600883Y-185464757D01*
X192600883Y-185464757D02*
X192672312Y-185607614D01*
X192672312Y-185607614D02*
X192672312Y-186393328D01*
X194029455Y-185393328D02*
X194029455Y-186393328D01*
X193386597Y-185393328D02*
X193386597Y-186179042D01*
X193386597Y-186179042D02*
X193458026Y-186321900D01*
X193458026Y-186321900D02*
X193600883Y-186393328D01*
X193600883Y-186393328D02*
X193815169Y-186393328D01*
X193815169Y-186393328D02*
X193958026Y-186321900D01*
X193958026Y-186321900D02*
X194029455Y-186250471D01*
X194743740Y-186250471D02*
X194815169Y-186321900D01*
X194815169Y-186321900D02*
X194743740Y-186393328D01*
X194743740Y-186393328D02*
X194672312Y-186321900D01*
X194672312Y-186321900D02*
X194743740Y-186250471D01*
X194743740Y-186250471D02*
X194743740Y-186393328D01*
X195458026Y-186393328D02*
X195458026Y-184893328D01*
X195600884Y-185821900D02*
X196029455Y-186393328D01*
X196029455Y-185393328D02*
X195458026Y-185964757D01*
X196672312Y-186393328D02*
X196672312Y-185393328D01*
X196672312Y-184893328D02*
X196600884Y-184964757D01*
X196600884Y-184964757D02*
X196672312Y-185036185D01*
X196672312Y-185036185D02*
X196743741Y-184964757D01*
X196743741Y-184964757D02*
X196672312Y-184893328D01*
X196672312Y-184893328D02*
X196672312Y-185036185D01*
X198029456Y-186321900D02*
X197886598Y-186393328D01*
X197886598Y-186393328D02*
X197600884Y-186393328D01*
X197600884Y-186393328D02*
X197458027Y-186321900D01*
X197458027Y-186321900D02*
X197386598Y-186250471D01*
X197386598Y-186250471D02*
X197315170Y-186107614D01*
X197315170Y-186107614D02*
X197315170Y-185679042D01*
X197315170Y-185679042D02*
X197386598Y-185536185D01*
X197386598Y-185536185D02*
X197458027Y-185464757D01*
X197458027Y-185464757D02*
X197600884Y-185393328D01*
X197600884Y-185393328D02*
X197886598Y-185393328D01*
X197886598Y-185393328D02*
X198029456Y-185464757D01*
X199315170Y-186393328D02*
X199315170Y-185607614D01*
X199315170Y-185607614D02*
X199243741Y-185464757D01*
X199243741Y-185464757D02*
X199100884Y-185393328D01*
X199100884Y-185393328D02*
X198815170Y-185393328D01*
X198815170Y-185393328D02*
X198672312Y-185464757D01*
X199315170Y-186321900D02*
X199172312Y-186393328D01*
X199172312Y-186393328D02*
X198815170Y-186393328D01*
X198815170Y-186393328D02*
X198672312Y-186321900D01*
X198672312Y-186321900D02*
X198600884Y-186179042D01*
X198600884Y-186179042D02*
X198600884Y-186036185D01*
X198600884Y-186036185D02*
X198672312Y-185893328D01*
X198672312Y-185893328D02*
X198815170Y-185821900D01*
X198815170Y-185821900D02*
X199172312Y-185821900D01*
X199172312Y-185821900D02*
X199315170Y-185750471D01*
X200672313Y-186393328D02*
X200672313Y-184893328D01*
X200672313Y-186321900D02*
X200529455Y-186393328D01*
X200529455Y-186393328D02*
X200243741Y-186393328D01*
X200243741Y-186393328D02*
X200100884Y-186321900D01*
X200100884Y-186321900D02*
X200029455Y-186250471D01*
X200029455Y-186250471D02*
X199958027Y-186107614D01*
X199958027Y-186107614D02*
X199958027Y-185679042D01*
X199958027Y-185679042D02*
X200029455Y-185536185D01*
X200029455Y-185536185D02*
X200100884Y-185464757D01*
X200100884Y-185464757D02*
X200243741Y-185393328D01*
X200243741Y-185393328D02*
X200529455Y-185393328D01*
X200529455Y-185393328D02*
X200672313Y-185464757D01*
X201029456Y-186536185D02*
X202172313Y-186536185D01*
X202529455Y-185393328D02*
X202529455Y-186893328D01*
X202529455Y-185464757D02*
X202672313Y-185393328D01*
X202672313Y-185393328D02*
X202958027Y-185393328D01*
X202958027Y-185393328D02*
X203100884Y-185464757D01*
X203100884Y-185464757D02*
X203172313Y-185536185D01*
X203172313Y-185536185D02*
X203243741Y-185679042D01*
X203243741Y-185679042D02*
X203243741Y-186107614D01*
X203243741Y-186107614D02*
X203172313Y-186250471D01*
X203172313Y-186250471D02*
X203100884Y-186321900D01*
X203100884Y-186321900D02*
X202958027Y-186393328D01*
X202958027Y-186393328D02*
X202672313Y-186393328D01*
X202672313Y-186393328D02*
X202529455Y-186321900D01*
X204529456Y-186321900D02*
X204386598Y-186393328D01*
X204386598Y-186393328D02*
X204100884Y-186393328D01*
X204100884Y-186393328D02*
X203958027Y-186321900D01*
X203958027Y-186321900D02*
X203886598Y-186250471D01*
X203886598Y-186250471D02*
X203815170Y-186107614D01*
X203815170Y-186107614D02*
X203815170Y-185679042D01*
X203815170Y-185679042D02*
X203886598Y-185536185D01*
X203886598Y-185536185D02*
X203958027Y-185464757D01*
X203958027Y-185464757D02*
X204100884Y-185393328D01*
X204100884Y-185393328D02*
X204386598Y-185393328D01*
X204386598Y-185393328D02*
X204529456Y-185464757D01*
X205172312Y-186393328D02*
X205172312Y-184893328D01*
X205172312Y-185464757D02*
X205315170Y-185393328D01*
X205315170Y-185393328D02*
X205600884Y-185393328D01*
X205600884Y-185393328D02*
X205743741Y-185464757D01*
X205743741Y-185464757D02*
X205815170Y-185536185D01*
X205815170Y-185536185D02*
X205886598Y-185679042D01*
X205886598Y-185679042D02*
X205886598Y-186107614D01*
X205886598Y-186107614D02*
X205815170Y-186250471D01*
X205815170Y-186250471D02*
X205743741Y-186321900D01*
X205743741Y-186321900D02*
X205600884Y-186393328D01*
X205600884Y-186393328D02*
X205315170Y-186393328D01*
X205315170Y-186393328D02*
X205172312Y-186321900D01*
D10*
D11*
X177002200Y-181507200D02*
X285002200Y-181507200D01*
D10*
D11*
X178386598Y-183621900D02*
X178600884Y-183693328D01*
X178600884Y-183693328D02*
X178958026Y-183693328D01*
X178958026Y-183693328D02*
X179100884Y-183621900D01*
X179100884Y-183621900D02*
X179172312Y-183550471D01*
X179172312Y-183550471D02*
X179243741Y-183407614D01*
X179243741Y-183407614D02*
X179243741Y-183264757D01*
X179243741Y-183264757D02*
X179172312Y-183121900D01*
X179172312Y-183121900D02*
X179100884Y-183050471D01*
X179100884Y-183050471D02*
X178958026Y-182979042D01*
X178958026Y-182979042D02*
X178672312Y-182907614D01*
X178672312Y-182907614D02*
X178529455Y-182836185D01*
X178529455Y-182836185D02*
X178458026Y-182764757D01*
X178458026Y-182764757D02*
X178386598Y-182621900D01*
X178386598Y-182621900D02*
X178386598Y-182479042D01*
X178386598Y-182479042D02*
X178458026Y-182336185D01*
X178458026Y-182336185D02*
X178529455Y-182264757D01*
X178529455Y-182264757D02*
X178672312Y-182193328D01*
X178672312Y-182193328D02*
X179029455Y-182193328D01*
X179029455Y-182193328D02*
X179243741Y-182264757D01*
X179886597Y-183693328D02*
X179886597Y-182193328D01*
X180529455Y-183693328D02*
X180529455Y-182907614D01*
X180529455Y-182907614D02*
X180458026Y-182764757D01*
X180458026Y-182764757D02*
X180315169Y-182693328D01*
X180315169Y-182693328D02*
X180100883Y-182693328D01*
X180100883Y-182693328D02*
X179958026Y-182764757D01*
X179958026Y-182764757D02*
X179886597Y-182836185D01*
X181815169Y-183621900D02*
X181672312Y-183693328D01*
X181672312Y-183693328D02*
X181386598Y-183693328D01*
X181386598Y-183693328D02*
X181243740Y-183621900D01*
X181243740Y-183621900D02*
X181172312Y-183479042D01*
X181172312Y-183479042D02*
X181172312Y-182907614D01*
X181172312Y-182907614D02*
X181243740Y-182764757D01*
X181243740Y-182764757D02*
X181386598Y-182693328D01*
X181386598Y-182693328D02*
X181672312Y-182693328D01*
X181672312Y-182693328D02*
X181815169Y-182764757D01*
X181815169Y-182764757D02*
X181886598Y-182907614D01*
X181886598Y-182907614D02*
X181886598Y-183050471D01*
X181886598Y-183050471D02*
X181172312Y-183193328D01*
X183100883Y-183621900D02*
X182958026Y-183693328D01*
X182958026Y-183693328D02*
X182672312Y-183693328D01*
X182672312Y-183693328D02*
X182529454Y-183621900D01*
X182529454Y-183621900D02*
X182458026Y-183479042D01*
X182458026Y-183479042D02*
X182458026Y-182907614D01*
X182458026Y-182907614D02*
X182529454Y-182764757D01*
X182529454Y-182764757D02*
X182672312Y-182693328D01*
X182672312Y-182693328D02*
X182958026Y-182693328D01*
X182958026Y-182693328D02*
X183100883Y-182764757D01*
X183100883Y-182764757D02*
X183172312Y-182907614D01*
X183172312Y-182907614D02*
X183172312Y-183050471D01*
X183172312Y-183050471D02*
X182458026Y-183193328D01*
X183600883Y-182693328D02*
X184172311Y-182693328D01*
X183815168Y-182193328D02*
X183815168Y-183479042D01*
X183815168Y-183479042D02*
X183886597Y-183621900D01*
X183886597Y-183621900D02*
X184029454Y-183693328D01*
X184029454Y-183693328D02*
X184172311Y-183693328D01*
X184672311Y-183550471D02*
X184743740Y-183621900D01*
X184743740Y-183621900D02*
X184672311Y-183693328D01*
X184672311Y-183693328D02*
X184600883Y-183621900D01*
X184600883Y-183621900D02*
X184672311Y-183550471D01*
X184672311Y-183550471D02*
X184672311Y-183693328D01*
X184672311Y-182764757D02*
X184743740Y-182836185D01*
X184743740Y-182836185D02*
X184672311Y-182907614D01*
X184672311Y-182907614D02*
X184600883Y-182836185D01*
X184600883Y-182836185D02*
X184672311Y-182764757D01*
X184672311Y-182764757D02*
X184672311Y-182907614D01*
D10*
D12*
D10*
D11*
D10*
D11*
D10*
D11*
D10*
D11*
D10*
D11*
X197002200Y-191507200D02*
X197002200Y-194507200D01*
D10*
D11*
X261002200Y-191507200D02*
X261002200Y-198007200D01*
X102651541Y-60918771D02*
X102651541Y-60318771D01*
X102937255Y-60918771D02*
X102937255Y-60318771D01*
X102937255Y-60318771D02*
X103137255Y-60747342D01*
X103137255Y-60747342D02*
X103337255Y-60318771D01*
X103337255Y-60318771D02*
X103337255Y-60918771D01*
X103622969Y-60318771D02*
X103622969Y-60804485D01*
X103622969Y-60804485D02*
X103651540Y-60861628D01*
X103651540Y-60861628D02*
X103680112Y-60890200D01*
X103680112Y-60890200D02*
X103737254Y-60918771D01*
X103737254Y-60918771D02*
X103851540Y-60918771D01*
X103851540Y-60918771D02*
X103908683Y-60890200D01*
X103908683Y-60890200D02*
X103937254Y-60861628D01*
X103937254Y-60861628D02*
X103965826Y-60804485D01*
X103965826Y-60804485D02*
X103965826Y-60318771D01*
X104622968Y-60318771D02*
X104822968Y-60918771D01*
X104822968Y-60918771D02*
X105022968Y-60318771D01*
X105165826Y-60318771D02*
X105537254Y-60318771D01*
X105537254Y-60318771D02*
X105337254Y-60547342D01*
X105337254Y-60547342D02*
X105422969Y-60547342D01*
X105422969Y-60547342D02*
X105480112Y-60575914D01*
X105480112Y-60575914D02*
X105508683Y-60604485D01*
X105508683Y-60604485D02*
X105537254Y-60661628D01*
X105537254Y-60661628D02*
X105537254Y-60804485D01*
X105537254Y-60804485D02*
X105508683Y-60861628D01*
X105508683Y-60861628D02*
X105480112Y-60890200D01*
X105480112Y-60890200D02*
X105422969Y-60918771D01*
X105422969Y-60918771D02*
X105251540Y-60918771D01*
X105251540Y-60918771D02*
X105194397Y-60890200D01*
X105194397Y-60890200D02*
X105165826Y-60861628D01*
X105794398Y-60861628D02*
X105822969Y-60890200D01*
X105822969Y-60890200D02*
X105794398Y-60918771D01*
X105794398Y-60918771D02*
X105765826Y-60890200D01*
X105765826Y-60890200D02*
X105794398Y-60861628D01*
X105794398Y-60861628D02*
X105794398Y-60918771D01*
X106194397Y-60318771D02*
X106251540Y-60318771D01*
X106251540Y-60318771D02*
X106308683Y-60347342D01*
X106308683Y-60347342D02*
X106337255Y-60375914D01*
X106337255Y-60375914D02*
X106365826Y-60433057D01*
X106365826Y-60433057D02*
X106394397Y-60547342D01*
X106394397Y-60547342D02*
X106394397Y-60690200D01*
X106394397Y-60690200D02*
X106365826Y-60804485D01*
X106365826Y-60804485D02*
X106337255Y-60861628D01*
X106337255Y-60861628D02*
X106308683Y-60890200D01*
X106308683Y-60890200D02*
X106251540Y-60918771D01*
X106251540Y-60918771D02*
X106194397Y-60918771D01*
X106194397Y-60918771D02*
X106137255Y-60890200D01*
X106137255Y-60890200D02*
X106108683Y-60861628D01*
X106108683Y-60861628D02*
X106080112Y-60804485D01*
X106080112Y-60804485D02*
X106051540Y-60690200D01*
X106051540Y-60690200D02*
X106051540Y-60547342D01*
X106051540Y-60547342D02*
X106080112Y-60433057D01*
X106080112Y-60433057D02*
X106108683Y-60375914D01*
X106108683Y-60375914D02*
X106137255Y-60347342D01*
X106137255Y-60347342D02*
X106194397Y-60318771D01*
X139348458Y-52181228D02*
X139348458Y-52781228D01*
X139062744Y-52181228D02*
X139062744Y-52781228D01*
X139062744Y-52781228D02*
X138862744Y-52352657D01*
X138862744Y-52352657D02*
X138662744Y-52781228D01*
X138662744Y-52781228D02*
X138662744Y-52181228D01*
X138377030Y-52781228D02*
X138377030Y-52295514D01*
X138377030Y-52295514D02*
X138348459Y-52238371D01*
X138348459Y-52238371D02*
X138319888Y-52209800D01*
X138319888Y-52209800D02*
X138262745Y-52181228D01*
X138262745Y-52181228D02*
X138148459Y-52181228D01*
X138148459Y-52181228D02*
X138091316Y-52209800D01*
X138091316Y-52209800D02*
X138062745Y-52238371D01*
X138062745Y-52238371D02*
X138034173Y-52295514D01*
X138034173Y-52295514D02*
X138034173Y-52781228D01*
X137377031Y-52781228D02*
X137177031Y-52181228D01*
X137177031Y-52181228D02*
X136977031Y-52781228D01*
X136834173Y-52781228D02*
X136462745Y-52781228D01*
X136462745Y-52781228D02*
X136662745Y-52552657D01*
X136662745Y-52552657D02*
X136577030Y-52552657D01*
X136577030Y-52552657D02*
X136519888Y-52524085D01*
X136519888Y-52524085D02*
X136491316Y-52495514D01*
X136491316Y-52495514D02*
X136462745Y-52438371D01*
X136462745Y-52438371D02*
X136462745Y-52295514D01*
X136462745Y-52295514D02*
X136491316Y-52238371D01*
X136491316Y-52238371D02*
X136519888Y-52209800D01*
X136519888Y-52209800D02*
X136577030Y-52181228D01*
X136577030Y-52181228D02*
X136748459Y-52181228D01*
X136748459Y-52181228D02*
X136805602Y-52209800D01*
X136805602Y-52209800D02*
X136834173Y-52238371D01*
X136205601Y-52238371D02*
X136177030Y-52209800D01*
X136177030Y-52209800D02*
X136205601Y-52181228D01*
X136205601Y-52181228D02*
X136234173Y-52209800D01*
X136234173Y-52209800D02*
X136205601Y-52238371D01*
X136205601Y-52238371D02*
X136205601Y-52181228D01*
X135805602Y-52781228D02*
X135748459Y-52781228D01*
X135748459Y-52781228D02*
X135691316Y-52752657D01*
X135691316Y-52752657D02*
X135662745Y-52724085D01*
X135662745Y-52724085D02*
X135634173Y-52666942D01*
X135634173Y-52666942D02*
X135605602Y-52552657D01*
X135605602Y-52552657D02*
X135605602Y-52409800D01*
X135605602Y-52409800D02*
X135634173Y-52295514D01*
X135634173Y-52295514D02*
X135662745Y-52238371D01*
X135662745Y-52238371D02*
X135691316Y-52209800D01*
X135691316Y-52209800D02*
X135748459Y-52181228D01*
X135748459Y-52181228D02*
X135805602Y-52181228D01*
X135805602Y-52181228D02*
X135862745Y-52209800D01*
X135862745Y-52209800D02*
X135891316Y-52238371D01*
X135891316Y-52238371D02*
X135919887Y-52295514D01*
X135919887Y-52295514D02*
X135948459Y-52409800D01*
X135948459Y-52409800D02*
X135948459Y-52552657D01*
X135948459Y-52552657D02*
X135919887Y-52666942D01*
X135919887Y-52666942D02*
X135891316Y-52724085D01*
X135891316Y-52724085D02*
X135862745Y-52752657D01*
X135862745Y-52752657D02*
X135805602Y-52781228D01*
X115031428Y-52239771D02*
X115088571Y-52239771D01*
X115088571Y-52239771D02*
X115145714Y-52268342D01*
X115145714Y-52268342D02*
X115174286Y-52296914D01*
X115174286Y-52296914D02*
X115202857Y-52354057D01*
X115202857Y-52354057D02*
X115231428Y-52468342D01*
X115231428Y-52468342D02*
X115231428Y-52611200D01*
X115231428Y-52611200D02*
X115202857Y-52725485D01*
X115202857Y-52725485D02*
X115174286Y-52782628D01*
X115174286Y-52782628D02*
X115145714Y-52811200D01*
X115145714Y-52811200D02*
X115088571Y-52839771D01*
X115088571Y-52839771D02*
X115031428Y-52839771D01*
X115031428Y-52839771D02*
X114974286Y-52811200D01*
X114974286Y-52811200D02*
X114945714Y-52782628D01*
X114945714Y-52782628D02*
X114917143Y-52725485D01*
X114917143Y-52725485D02*
X114888571Y-52611200D01*
X114888571Y-52611200D02*
X114888571Y-52468342D01*
X114888571Y-52468342D02*
X114917143Y-52354057D01*
X114917143Y-52354057D02*
X114945714Y-52296914D01*
X114945714Y-52296914D02*
X114974286Y-52268342D01*
X114974286Y-52268342D02*
X115031428Y-52239771D01*
X115488572Y-52782628D02*
X115517143Y-52811200D01*
X115517143Y-52811200D02*
X115488572Y-52839771D01*
X115488572Y-52839771D02*
X115460000Y-52811200D01*
X115460000Y-52811200D02*
X115488572Y-52782628D01*
X115488572Y-52782628D02*
X115488572Y-52839771D01*
X116088571Y-52839771D02*
X115745714Y-52839771D01*
X115917143Y-52839771D02*
X115917143Y-52239771D01*
X115917143Y-52239771D02*
X115860000Y-52325485D01*
X115860000Y-52325485D02*
X115802857Y-52382628D01*
X115802857Y-52382628D02*
X115745714Y-52411200D01*
X116602858Y-52439771D02*
X116602858Y-52839771D01*
X116345715Y-52439771D02*
X116345715Y-52754057D01*
X116345715Y-52754057D02*
X116374286Y-52811200D01*
X116374286Y-52811200D02*
X116431429Y-52839771D01*
X116431429Y-52839771D02*
X116517143Y-52839771D01*
X116517143Y-52839771D02*
X116574286Y-52811200D01*
X116574286Y-52811200D02*
X116602858Y-52782628D01*
X113639771Y-60828571D02*
X113639771Y-60771428D01*
X113639771Y-60771428D02*
X113668342Y-60714285D01*
X113668342Y-60714285D02*
X113696914Y-60685714D01*
X113696914Y-60685714D02*
X113754057Y-60657142D01*
X113754057Y-60657142D02*
X113868342Y-60628571D01*
X113868342Y-60628571D02*
X114011200Y-60628571D01*
X114011200Y-60628571D02*
X114125485Y-60657142D01*
X114125485Y-60657142D02*
X114182628Y-60685714D01*
X114182628Y-60685714D02*
X114211200Y-60714285D01*
X114211200Y-60714285D02*
X114239771Y-60771428D01*
X114239771Y-60771428D02*
X114239771Y-60828571D01*
X114239771Y-60828571D02*
X114211200Y-60885714D01*
X114211200Y-60885714D02*
X114182628Y-60914285D01*
X114182628Y-60914285D02*
X114125485Y-60942856D01*
X114125485Y-60942856D02*
X114011200Y-60971428D01*
X114011200Y-60971428D02*
X113868342Y-60971428D01*
X113868342Y-60971428D02*
X113754057Y-60942856D01*
X113754057Y-60942856D02*
X113696914Y-60914285D01*
X113696914Y-60914285D02*
X113668342Y-60885714D01*
X113668342Y-60885714D02*
X113639771Y-60828571D01*
X114182628Y-60371427D02*
X114211200Y-60342856D01*
X114211200Y-60342856D02*
X114239771Y-60371427D01*
X114239771Y-60371427D02*
X114211200Y-60399999D01*
X114211200Y-60399999D02*
X114182628Y-60371427D01*
X114182628Y-60371427D02*
X114239771Y-60371427D01*
X114239771Y-59771428D02*
X114239771Y-60114285D01*
X114239771Y-59942856D02*
X113639771Y-59942856D01*
X113639771Y-59942856D02*
X113725485Y-59999999D01*
X113725485Y-59999999D02*
X113782628Y-60057142D01*
X113782628Y-60057142D02*
X113811200Y-60114285D01*
X113839771Y-59257142D02*
X114239771Y-59257142D01*
X113839771Y-59514284D02*
X114154057Y-59514284D01*
X114154057Y-59514284D02*
X114211200Y-59485713D01*
X114211200Y-59485713D02*
X114239771Y-59428570D01*
X114239771Y-59428570D02*
X114239771Y-59342856D01*
X114239771Y-59342856D02*
X114211200Y-59285713D01*
X114211200Y-59285713D02*
X114182628Y-59257142D01*
X112189771Y-60818571D02*
X112189771Y-60761428D01*
X112189771Y-60761428D02*
X112218342Y-60704285D01*
X112218342Y-60704285D02*
X112246914Y-60675714D01*
X112246914Y-60675714D02*
X112304057Y-60647142D01*
X112304057Y-60647142D02*
X112418342Y-60618571D01*
X112418342Y-60618571D02*
X112561200Y-60618571D01*
X112561200Y-60618571D02*
X112675485Y-60647142D01*
X112675485Y-60647142D02*
X112732628Y-60675714D01*
X112732628Y-60675714D02*
X112761200Y-60704285D01*
X112761200Y-60704285D02*
X112789771Y-60761428D01*
X112789771Y-60761428D02*
X112789771Y-60818571D01*
X112789771Y-60818571D02*
X112761200Y-60875714D01*
X112761200Y-60875714D02*
X112732628Y-60904285D01*
X112732628Y-60904285D02*
X112675485Y-60932856D01*
X112675485Y-60932856D02*
X112561200Y-60961428D01*
X112561200Y-60961428D02*
X112418342Y-60961428D01*
X112418342Y-60961428D02*
X112304057Y-60932856D01*
X112304057Y-60932856D02*
X112246914Y-60904285D01*
X112246914Y-60904285D02*
X112218342Y-60875714D01*
X112218342Y-60875714D02*
X112189771Y-60818571D01*
X112732628Y-60361427D02*
X112761200Y-60332856D01*
X112761200Y-60332856D02*
X112789771Y-60361427D01*
X112789771Y-60361427D02*
X112761200Y-60389999D01*
X112761200Y-60389999D02*
X112732628Y-60361427D01*
X112732628Y-60361427D02*
X112789771Y-60361427D01*
X112789771Y-59761428D02*
X112789771Y-60104285D01*
X112789771Y-59932856D02*
X112189771Y-59932856D01*
X112189771Y-59932856D02*
X112275485Y-59989999D01*
X112275485Y-59989999D02*
X112332628Y-60047142D01*
X112332628Y-60047142D02*
X112361200Y-60104285D01*
X112389771Y-59247142D02*
X112789771Y-59247142D01*
X112389771Y-59504284D02*
X112704057Y-59504284D01*
X112704057Y-59504284D02*
X112761200Y-59475713D01*
X112761200Y-59475713D02*
X112789771Y-59418570D01*
X112789771Y-59418570D02*
X112789771Y-59332856D01*
X112789771Y-59332856D02*
X112761200Y-59275713D01*
X112761200Y-59275713D02*
X112732628Y-59247142D01*
D14*
D11*
X109571428Y-53109771D02*
X109628571Y-53109771D01*
X109628571Y-53109771D02*
X109685714Y-53138342D01*
X109685714Y-53138342D02*
X109714286Y-53166914D01*
X109714286Y-53166914D02*
X109742857Y-53224057D01*
X109742857Y-53224057D02*
X109771428Y-53338342D01*
X109771428Y-53338342D02*
X109771428Y-53481200D01*
X109771428Y-53481200D02*
X109742857Y-53595485D01*
X109742857Y-53595485D02*
X109714286Y-53652628D01*
X109714286Y-53652628D02*
X109685714Y-53681200D01*
X109685714Y-53681200D02*
X109628571Y-53709771D01*
X109628571Y-53709771D02*
X109571428Y-53709771D01*
X109571428Y-53709771D02*
X109514286Y-53681200D01*
X109514286Y-53681200D02*
X109485714Y-53652628D01*
X109485714Y-53652628D02*
X109457143Y-53595485D01*
X109457143Y-53595485D02*
X109428571Y-53481200D01*
X109428571Y-53481200D02*
X109428571Y-53338342D01*
X109428571Y-53338342D02*
X109457143Y-53224057D01*
X109457143Y-53224057D02*
X109485714Y-53166914D01*
X109485714Y-53166914D02*
X109514286Y-53138342D01*
X109514286Y-53138342D02*
X109571428Y-53109771D01*
X110028572Y-53652628D02*
X110057143Y-53681200D01*
X110057143Y-53681200D02*
X110028572Y-53709771D01*
X110028572Y-53709771D02*
X110000000Y-53681200D01*
X110000000Y-53681200D02*
X110028572Y-53652628D01*
X110028572Y-53652628D02*
X110028572Y-53709771D01*
X110628571Y-53709771D02*
X110285714Y-53709771D01*
X110457143Y-53709771D02*
X110457143Y-53109771D01*
X110457143Y-53109771D02*
X110400000Y-53195485D01*
X110400000Y-53195485D02*
X110342857Y-53252628D01*
X110342857Y-53252628D02*
X110285714Y-53281200D01*
X111142858Y-53309771D02*
X111142858Y-53709771D01*
X110885715Y-53309771D02*
X110885715Y-53624057D01*
X110885715Y-53624057D02*
X110914286Y-53681200D01*
X110914286Y-53681200D02*
X110971429Y-53709771D01*
X110971429Y-53709771D02*
X111057143Y-53709771D01*
X111057143Y-53709771D02*
X111114286Y-53681200D01*
X111114286Y-53681200D02*
X111142858Y-53652628D01*
X115264286Y-59839771D02*
X115264286Y-59239771D01*
X115264286Y-59239771D02*
X115492857Y-59239771D01*
X115492857Y-59239771D02*
X115550000Y-59268342D01*
X115550000Y-59268342D02*
X115578571Y-59296914D01*
X115578571Y-59296914D02*
X115607143Y-59354057D01*
X115607143Y-59354057D02*
X115607143Y-59439771D01*
X115607143Y-59439771D02*
X115578571Y-59496914D01*
X115578571Y-59496914D02*
X115550000Y-59525485D01*
X115550000Y-59525485D02*
X115492857Y-59554057D01*
X115492857Y-59554057D02*
X115264286Y-59554057D01*
X115950000Y-59839771D02*
X115892857Y-59811200D01*
X115892857Y-59811200D02*
X115864286Y-59782628D01*
X115864286Y-59782628D02*
X115835714Y-59725485D01*
X115835714Y-59725485D02*
X115835714Y-59554057D01*
X115835714Y-59554057D02*
X115864286Y-59496914D01*
X115864286Y-59496914D02*
X115892857Y-59468342D01*
X115892857Y-59468342D02*
X115950000Y-59439771D01*
X115950000Y-59439771D02*
X116035714Y-59439771D01*
X116035714Y-59439771D02*
X116092857Y-59468342D01*
X116092857Y-59468342D02*
X116121429Y-59496914D01*
X116121429Y-59496914D02*
X116150000Y-59554057D01*
X116150000Y-59554057D02*
X116150000Y-59725485D01*
X116150000Y-59725485D02*
X116121429Y-59782628D01*
X116121429Y-59782628D02*
X116092857Y-59811200D01*
X116092857Y-59811200D02*
X116035714Y-59839771D01*
X116035714Y-59839771D02*
X115950000Y-59839771D01*
X116350000Y-59439771D02*
X116464286Y-59839771D01*
X116464286Y-59839771D02*
X116578571Y-59554057D01*
X116578571Y-59554057D02*
X116692857Y-59839771D01*
X116692857Y-59839771D02*
X116807143Y-59439771D01*
X117264285Y-59811200D02*
X117207142Y-59839771D01*
X117207142Y-59839771D02*
X117092857Y-59839771D01*
X117092857Y-59839771D02*
X117035714Y-59811200D01*
X117035714Y-59811200D02*
X117007142Y-59754057D01*
X117007142Y-59754057D02*
X117007142Y-59525485D01*
X117007142Y-59525485D02*
X117035714Y-59468342D01*
X117035714Y-59468342D02*
X117092857Y-59439771D01*
X117092857Y-59439771D02*
X117207142Y-59439771D01*
X117207142Y-59439771D02*
X117264285Y-59468342D01*
X117264285Y-59468342D02*
X117292857Y-59525485D01*
X117292857Y-59525485D02*
X117292857Y-59582628D01*
X117292857Y-59582628D02*
X117007142Y-59639771D01*
X117550000Y-59839771D02*
X117550000Y-59439771D01*
X117550000Y-59554057D02*
X117578571Y-59496914D01*
X117578571Y-59496914D02*
X117607143Y-59468342D01*
X117607143Y-59468342D02*
X117664285Y-59439771D01*
X117664285Y-59439771D02*
X117721428Y-59439771D01*
D10*
X110282856Y-58442371D02*
X109939999Y-58442371D01*
X110111428Y-58442371D02*
X110111428Y-57842371D01*
X110111428Y-57842371D02*
X110054285Y-57928085D01*
X110054285Y-57928085D02*
X109997142Y-57985228D01*
X109997142Y-57985228D02*
X109939999Y-58013800D01*
X110654285Y-57842371D02*
X110711428Y-57842371D01*
X110711428Y-57842371D02*
X110768571Y-57870942D01*
X110768571Y-57870942D02*
X110797143Y-57899514D01*
X110797143Y-57899514D02*
X110825714Y-57956657D01*
X110825714Y-57956657D02*
X110854285Y-58070942D01*
X110854285Y-58070942D02*
X110854285Y-58213800D01*
X110854285Y-58213800D02*
X110825714Y-58328085D01*
X110825714Y-58328085D02*
X110797143Y-58385228D01*
X110797143Y-58385228D02*
X110768571Y-58413800D01*
X110768571Y-58413800D02*
X110711428Y-58442371D01*
X110711428Y-58442371D02*
X110654285Y-58442371D01*
X110654285Y-58442371D02*
X110597143Y-58413800D01*
X110597143Y-58413800D02*
X110568571Y-58385228D01*
X110568571Y-58385228D02*
X110540000Y-58328085D01*
X110540000Y-58328085D02*
X110511428Y-58213800D01*
X110511428Y-58213800D02*
X110511428Y-58070942D01*
X110511428Y-58070942D02*
X110540000Y-57956657D01*
X110540000Y-57956657D02*
X110568571Y-57899514D01*
X110568571Y-57899514D02*
X110597143Y-57870942D01*
X110597143Y-57870942D02*
X110654285Y-57842371D01*
X111111429Y-58442371D02*
X111111429Y-57842371D01*
X111168572Y-58213800D02*
X111340000Y-58442371D01*
X111340000Y-58042371D02*
X111111429Y-58270942D01*
D11*
X118569771Y-60028571D02*
X118569771Y-59971428D01*
X118569771Y-59971428D02*
X118598342Y-59914285D01*
X118598342Y-59914285D02*
X118626914Y-59885714D01*
X118626914Y-59885714D02*
X118684057Y-59857142D01*
X118684057Y-59857142D02*
X118798342Y-59828571D01*
X118798342Y-59828571D02*
X118941200Y-59828571D01*
X118941200Y-59828571D02*
X119055485Y-59857142D01*
X119055485Y-59857142D02*
X119112628Y-59885714D01*
X119112628Y-59885714D02*
X119141200Y-59914285D01*
X119141200Y-59914285D02*
X119169771Y-59971428D01*
X119169771Y-59971428D02*
X119169771Y-60028571D01*
X119169771Y-60028571D02*
X119141200Y-60085714D01*
X119141200Y-60085714D02*
X119112628Y-60114285D01*
X119112628Y-60114285D02*
X119055485Y-60142856D01*
X119055485Y-60142856D02*
X118941200Y-60171428D01*
X118941200Y-60171428D02*
X118798342Y-60171428D01*
X118798342Y-60171428D02*
X118684057Y-60142856D01*
X118684057Y-60142856D02*
X118626914Y-60114285D01*
X118626914Y-60114285D02*
X118598342Y-60085714D01*
X118598342Y-60085714D02*
X118569771Y-60028571D01*
X119112628Y-59571427D02*
X119141200Y-59542856D01*
X119141200Y-59542856D02*
X119169771Y-59571427D01*
X119169771Y-59571427D02*
X119141200Y-59599999D01*
X119141200Y-59599999D02*
X119112628Y-59571427D01*
X119112628Y-59571427D02*
X119169771Y-59571427D01*
X119169771Y-58971428D02*
X119169771Y-59314285D01*
X119169771Y-59142856D02*
X118569771Y-59142856D01*
X118569771Y-59142856D02*
X118655485Y-59199999D01*
X118655485Y-59199999D02*
X118712628Y-59257142D01*
X118712628Y-59257142D02*
X118741200Y-59314285D01*
X118769771Y-58457142D02*
X119169771Y-58457142D01*
X118769771Y-58714284D02*
X119084057Y-58714284D01*
X119084057Y-58714284D02*
X119141200Y-58685713D01*
X119141200Y-58685713D02*
X119169771Y-58628570D01*
X119169771Y-58628570D02*
X119169771Y-58542856D01*
X119169771Y-58542856D02*
X119141200Y-58485713D01*
X119141200Y-58485713D02*
X119112628Y-58457142D01*
X124364286Y-53799771D02*
X124364286Y-53199771D01*
X124364286Y-53199771D02*
X124592857Y-53199771D01*
X124592857Y-53199771D02*
X124650000Y-53228342D01*
X124650000Y-53228342D02*
X124678571Y-53256914D01*
X124678571Y-53256914D02*
X124707143Y-53314057D01*
X124707143Y-53314057D02*
X124707143Y-53399771D01*
X124707143Y-53399771D02*
X124678571Y-53456914D01*
X124678571Y-53456914D02*
X124650000Y-53485485D01*
X124650000Y-53485485D02*
X124592857Y-53514057D01*
X124592857Y-53514057D02*
X124364286Y-53514057D01*
X125050000Y-53799771D02*
X124992857Y-53771200D01*
X124992857Y-53771200D02*
X124964286Y-53742628D01*
X124964286Y-53742628D02*
X124935714Y-53685485D01*
X124935714Y-53685485D02*
X124935714Y-53514057D01*
X124935714Y-53514057D02*
X124964286Y-53456914D01*
X124964286Y-53456914D02*
X124992857Y-53428342D01*
X124992857Y-53428342D02*
X125050000Y-53399771D01*
X125050000Y-53399771D02*
X125135714Y-53399771D01*
X125135714Y-53399771D02*
X125192857Y-53428342D01*
X125192857Y-53428342D02*
X125221429Y-53456914D01*
X125221429Y-53456914D02*
X125250000Y-53514057D01*
X125250000Y-53514057D02*
X125250000Y-53685485D01*
X125250000Y-53685485D02*
X125221429Y-53742628D01*
X125221429Y-53742628D02*
X125192857Y-53771200D01*
X125192857Y-53771200D02*
X125135714Y-53799771D01*
X125135714Y-53799771D02*
X125050000Y-53799771D01*
X125450000Y-53399771D02*
X125564286Y-53799771D01*
X125564286Y-53799771D02*
X125678571Y-53514057D01*
X125678571Y-53514057D02*
X125792857Y-53799771D01*
X125792857Y-53799771D02*
X125907143Y-53399771D01*
X126364285Y-53771200D02*
X126307142Y-53799771D01*
X126307142Y-53799771D02*
X126192857Y-53799771D01*
X126192857Y-53799771D02*
X126135714Y-53771200D01*
X126135714Y-53771200D02*
X126107142Y-53714057D01*
X126107142Y-53714057D02*
X126107142Y-53485485D01*
X126107142Y-53485485D02*
X126135714Y-53428342D01*
X126135714Y-53428342D02*
X126192857Y-53399771D01*
X126192857Y-53399771D02*
X126307142Y-53399771D01*
X126307142Y-53399771D02*
X126364285Y-53428342D01*
X126364285Y-53428342D02*
X126392857Y-53485485D01*
X126392857Y-53485485D02*
X126392857Y-53542628D01*
X126392857Y-53542628D02*
X126107142Y-53599771D01*
X126650000Y-53799771D02*
X126650000Y-53399771D01*
X126650000Y-53514057D02*
X126678571Y-53456914D01*
X126678571Y-53456914D02*
X126707143Y-53428342D01*
X126707143Y-53428342D02*
X126764285Y-53399771D01*
X126764285Y-53399771D02*
X126821428Y-53399771D01*
X127699771Y-53728571D02*
X127699771Y-53671428D01*
X127699771Y-53671428D02*
X127728342Y-53614285D01*
X127728342Y-53614285D02*
X127756914Y-53585714D01*
X127756914Y-53585714D02*
X127814057Y-53557142D01*
X127814057Y-53557142D02*
X127928342Y-53528571D01*
X127928342Y-53528571D02*
X128071200Y-53528571D01*
X128071200Y-53528571D02*
X128185485Y-53557142D01*
X128185485Y-53557142D02*
X128242628Y-53585714D01*
X128242628Y-53585714D02*
X128271200Y-53614285D01*
X128271200Y-53614285D02*
X128299771Y-53671428D01*
X128299771Y-53671428D02*
X128299771Y-53728571D01*
X128299771Y-53728571D02*
X128271200Y-53785714D01*
X128271200Y-53785714D02*
X128242628Y-53814285D01*
X128242628Y-53814285D02*
X128185485Y-53842856D01*
X128185485Y-53842856D02*
X128071200Y-53871428D01*
X128071200Y-53871428D02*
X127928342Y-53871428D01*
X127928342Y-53871428D02*
X127814057Y-53842856D01*
X127814057Y-53842856D02*
X127756914Y-53814285D01*
X127756914Y-53814285D02*
X127728342Y-53785714D01*
X127728342Y-53785714D02*
X127699771Y-53728571D01*
X128242628Y-53271427D02*
X128271200Y-53242856D01*
X128271200Y-53242856D02*
X128299771Y-53271427D01*
X128299771Y-53271427D02*
X128271200Y-53299999D01*
X128271200Y-53299999D02*
X128242628Y-53271427D01*
X128242628Y-53271427D02*
X128299771Y-53271427D01*
X128299771Y-52671428D02*
X128299771Y-53014285D01*
X128299771Y-52842856D02*
X127699771Y-52842856D01*
X127699771Y-52842856D02*
X127785485Y-52899999D01*
X127785485Y-52899999D02*
X127842628Y-52957142D01*
X127842628Y-52957142D02*
X127871200Y-53014285D01*
X127899771Y-52157142D02*
X128299771Y-52157142D01*
X127899771Y-52414284D02*
X128214057Y-52414284D01*
X128214057Y-52414284D02*
X128271200Y-52385713D01*
X128271200Y-52385713D02*
X128299771Y-52328570D01*
X128299771Y-52328570D02*
X128299771Y-52242856D01*
X128299771Y-52242856D02*
X128271200Y-52185713D01*
X128271200Y-52185713D02*
X128242628Y-52157142D01*
X130971428Y-59329771D02*
X131028571Y-59329771D01*
X131028571Y-59329771D02*
X131085714Y-59358342D01*
X131085714Y-59358342D02*
X131114286Y-59386914D01*
X131114286Y-59386914D02*
X131142857Y-59444057D01*
X131142857Y-59444057D02*
X131171428Y-59558342D01*
X131171428Y-59558342D02*
X131171428Y-59701200D01*
X131171428Y-59701200D02*
X131142857Y-59815485D01*
X131142857Y-59815485D02*
X131114286Y-59872628D01*
X131114286Y-59872628D02*
X131085714Y-59901200D01*
X131085714Y-59901200D02*
X131028571Y-59929771D01*
X131028571Y-59929771D02*
X130971428Y-59929771D01*
X130971428Y-59929771D02*
X130914286Y-59901200D01*
X130914286Y-59901200D02*
X130885714Y-59872628D01*
X130885714Y-59872628D02*
X130857143Y-59815485D01*
X130857143Y-59815485D02*
X130828571Y-59701200D01*
X130828571Y-59701200D02*
X130828571Y-59558342D01*
X130828571Y-59558342D02*
X130857143Y-59444057D01*
X130857143Y-59444057D02*
X130885714Y-59386914D01*
X130885714Y-59386914D02*
X130914286Y-59358342D01*
X130914286Y-59358342D02*
X130971428Y-59329771D01*
X131428572Y-59872628D02*
X131457143Y-59901200D01*
X131457143Y-59901200D02*
X131428572Y-59929771D01*
X131428572Y-59929771D02*
X131400000Y-59901200D01*
X131400000Y-59901200D02*
X131428572Y-59872628D01*
X131428572Y-59872628D02*
X131428572Y-59929771D01*
X132028571Y-59929771D02*
X131685714Y-59929771D01*
X131857143Y-59929771D02*
X131857143Y-59329771D01*
X131857143Y-59329771D02*
X131800000Y-59415485D01*
X131800000Y-59415485D02*
X131742857Y-59472628D01*
X131742857Y-59472628D02*
X131685714Y-59501200D01*
X132542858Y-59529771D02*
X132542858Y-59929771D01*
X132285715Y-59529771D02*
X132285715Y-59844057D01*
X132285715Y-59844057D02*
X132314286Y-59901200D01*
X132314286Y-59901200D02*
X132371429Y-59929771D01*
X132371429Y-59929771D02*
X132457143Y-59929771D01*
X132457143Y-59929771D02*
X132514286Y-59901200D01*
X132514286Y-59901200D02*
X132542858Y-59872628D01*
D14*
D10*
X131002856Y-55202371D02*
X130659999Y-55202371D01*
X130831428Y-55202371D02*
X130831428Y-54602371D01*
X130831428Y-54602371D02*
X130774285Y-54688085D01*
X130774285Y-54688085D02*
X130717142Y-54745228D01*
X130717142Y-54745228D02*
X130659999Y-54773800D01*
X131374285Y-54602371D02*
X131431428Y-54602371D01*
X131431428Y-54602371D02*
X131488571Y-54630942D01*
X131488571Y-54630942D02*
X131517143Y-54659514D01*
X131517143Y-54659514D02*
X131545714Y-54716657D01*
X131545714Y-54716657D02*
X131574285Y-54830942D01*
X131574285Y-54830942D02*
X131574285Y-54973800D01*
X131574285Y-54973800D02*
X131545714Y-55088085D01*
X131545714Y-55088085D02*
X131517143Y-55145228D01*
X131517143Y-55145228D02*
X131488571Y-55173800D01*
X131488571Y-55173800D02*
X131431428Y-55202371D01*
X131431428Y-55202371D02*
X131374285Y-55202371D01*
X131374285Y-55202371D02*
X131317143Y-55173800D01*
X131317143Y-55173800D02*
X131288571Y-55145228D01*
X131288571Y-55145228D02*
X131260000Y-55088085D01*
X131260000Y-55088085D02*
X131231428Y-54973800D01*
X131231428Y-54973800D02*
X131231428Y-54830942D01*
X131231428Y-54830942D02*
X131260000Y-54716657D01*
X131260000Y-54716657D02*
X131288571Y-54659514D01*
X131288571Y-54659514D02*
X131317143Y-54630942D01*
X131317143Y-54630942D02*
X131374285Y-54602371D01*
X131831429Y-55202371D02*
X131831429Y-54602371D01*
X131888572Y-54973800D02*
X132060000Y-55202371D01*
X132060000Y-54802371D02*
X131831429Y-55030942D01*
D11*
X129149771Y-53738571D02*
X129149771Y-53681428D01*
X129149771Y-53681428D02*
X129178342Y-53624285D01*
X129178342Y-53624285D02*
X129206914Y-53595714D01*
X129206914Y-53595714D02*
X129264057Y-53567142D01*
X129264057Y-53567142D02*
X129378342Y-53538571D01*
X129378342Y-53538571D02*
X129521200Y-53538571D01*
X129521200Y-53538571D02*
X129635485Y-53567142D01*
X129635485Y-53567142D02*
X129692628Y-53595714D01*
X129692628Y-53595714D02*
X129721200Y-53624285D01*
X129721200Y-53624285D02*
X129749771Y-53681428D01*
X129749771Y-53681428D02*
X129749771Y-53738571D01*
X129749771Y-53738571D02*
X129721200Y-53795714D01*
X129721200Y-53795714D02*
X129692628Y-53824285D01*
X129692628Y-53824285D02*
X129635485Y-53852856D01*
X129635485Y-53852856D02*
X129521200Y-53881428D01*
X129521200Y-53881428D02*
X129378342Y-53881428D01*
X129378342Y-53881428D02*
X129264057Y-53852856D01*
X129264057Y-53852856D02*
X129206914Y-53824285D01*
X129206914Y-53824285D02*
X129178342Y-53795714D01*
X129178342Y-53795714D02*
X129149771Y-53738571D01*
X129692628Y-53281427D02*
X129721200Y-53252856D01*
X129721200Y-53252856D02*
X129749771Y-53281427D01*
X129749771Y-53281427D02*
X129721200Y-53309999D01*
X129721200Y-53309999D02*
X129692628Y-53281427D01*
X129692628Y-53281427D02*
X129749771Y-53281427D01*
X129749771Y-52681428D02*
X129749771Y-53024285D01*
X129749771Y-52852856D02*
X129149771Y-52852856D01*
X129149771Y-52852856D02*
X129235485Y-52909999D01*
X129235485Y-52909999D02*
X129292628Y-52967142D01*
X129292628Y-52967142D02*
X129321200Y-53024285D01*
X129349771Y-52167142D02*
X129749771Y-52167142D01*
X129349771Y-52424284D02*
X129664057Y-52424284D01*
X129664057Y-52424284D02*
X129721200Y-52395713D01*
X129721200Y-52395713D02*
X129749771Y-52338570D01*
X129749771Y-52338570D02*
X129749771Y-52252856D01*
X129749771Y-52252856D02*
X129721200Y-52195713D01*
X129721200Y-52195713D02*
X129692628Y-52167142D01*
X125511428Y-60199771D02*
X125568571Y-60199771D01*
X125568571Y-60199771D02*
X125625714Y-60228342D01*
X125625714Y-60228342D02*
X125654286Y-60256914D01*
X125654286Y-60256914D02*
X125682857Y-60314057D01*
X125682857Y-60314057D02*
X125711428Y-60428342D01*
X125711428Y-60428342D02*
X125711428Y-60571200D01*
X125711428Y-60571200D02*
X125682857Y-60685485D01*
X125682857Y-60685485D02*
X125654286Y-60742628D01*
X125654286Y-60742628D02*
X125625714Y-60771200D01*
X125625714Y-60771200D02*
X125568571Y-60799771D01*
X125568571Y-60799771D02*
X125511428Y-60799771D01*
X125511428Y-60799771D02*
X125454286Y-60771200D01*
X125454286Y-60771200D02*
X125425714Y-60742628D01*
X125425714Y-60742628D02*
X125397143Y-60685485D01*
X125397143Y-60685485D02*
X125368571Y-60571200D01*
X125368571Y-60571200D02*
X125368571Y-60428342D01*
X125368571Y-60428342D02*
X125397143Y-60314057D01*
X125397143Y-60314057D02*
X125425714Y-60256914D01*
X125425714Y-60256914D02*
X125454286Y-60228342D01*
X125454286Y-60228342D02*
X125511428Y-60199771D01*
X125968572Y-60742628D02*
X125997143Y-60771200D01*
X125997143Y-60771200D02*
X125968572Y-60799771D01*
X125968572Y-60799771D02*
X125940000Y-60771200D01*
X125940000Y-60771200D02*
X125968572Y-60742628D01*
X125968572Y-60742628D02*
X125968572Y-60799771D01*
X126568571Y-60799771D02*
X126225714Y-60799771D01*
X126397143Y-60799771D02*
X126397143Y-60199771D01*
X126397143Y-60199771D02*
X126340000Y-60285485D01*
X126340000Y-60285485D02*
X126282857Y-60342628D01*
X126282857Y-60342628D02*
X126225714Y-60371200D01*
X127082858Y-60399771D02*
X127082858Y-60799771D01*
X126825715Y-60399771D02*
X126825715Y-60714057D01*
X126825715Y-60714057D02*
X126854286Y-60771200D01*
X126854286Y-60771200D02*
X126911429Y-60799771D01*
X126911429Y-60799771D02*
X126997143Y-60799771D01*
X126997143Y-60799771D02*
X127054286Y-60771200D01*
X127054286Y-60771200D02*
X127082858Y-60742628D01*
X122369771Y-54728571D02*
X122369771Y-54671428D01*
X122369771Y-54671428D02*
X122398342Y-54614285D01*
X122398342Y-54614285D02*
X122426914Y-54585714D01*
X122426914Y-54585714D02*
X122484057Y-54557142D01*
X122484057Y-54557142D02*
X122598342Y-54528571D01*
X122598342Y-54528571D02*
X122741200Y-54528571D01*
X122741200Y-54528571D02*
X122855485Y-54557142D01*
X122855485Y-54557142D02*
X122912628Y-54585714D01*
X122912628Y-54585714D02*
X122941200Y-54614285D01*
X122941200Y-54614285D02*
X122969771Y-54671428D01*
X122969771Y-54671428D02*
X122969771Y-54728571D01*
X122969771Y-54728571D02*
X122941200Y-54785714D01*
X122941200Y-54785714D02*
X122912628Y-54814285D01*
X122912628Y-54814285D02*
X122855485Y-54842856D01*
X122855485Y-54842856D02*
X122741200Y-54871428D01*
X122741200Y-54871428D02*
X122598342Y-54871428D01*
X122598342Y-54871428D02*
X122484057Y-54842856D01*
X122484057Y-54842856D02*
X122426914Y-54814285D01*
X122426914Y-54814285D02*
X122398342Y-54785714D01*
X122398342Y-54785714D02*
X122369771Y-54728571D01*
X122912628Y-54271427D02*
X122941200Y-54242856D01*
X122941200Y-54242856D02*
X122969771Y-54271427D01*
X122969771Y-54271427D02*
X122941200Y-54299999D01*
X122941200Y-54299999D02*
X122912628Y-54271427D01*
X122912628Y-54271427D02*
X122969771Y-54271427D01*
X122969771Y-53671428D02*
X122969771Y-54014285D01*
X122969771Y-53842856D02*
X122369771Y-53842856D01*
X122369771Y-53842856D02*
X122455485Y-53899999D01*
X122455485Y-53899999D02*
X122512628Y-53957142D01*
X122512628Y-53957142D02*
X122541200Y-54014285D01*
X122569771Y-53157142D02*
X122969771Y-53157142D01*
X122569771Y-53414284D02*
X122884057Y-53414284D01*
X122884057Y-53414284D02*
X122941200Y-53385713D01*
X122941200Y-53385713D02*
X122969771Y-53328570D01*
X122969771Y-53328570D02*
X122969771Y-53242856D01*
X122969771Y-53242856D02*
X122941200Y-53185713D01*
X122941200Y-53185713D02*
X122912628Y-53157142D01*
D14*
%TO.C,0.1u*%
X113246267Y-53880000D02*
X112903733Y-53880000D01*
X113246267Y-52860000D02*
X112903733Y-52860000D01*
X113465000Y-55941267D02*
X113465000Y-55598733D01*
X114485000Y-55941267D02*
X114485000Y-55598733D01*
X111990000Y-55941267D02*
X111990000Y-55598733D01*
X113010000Y-55941267D02*
X113010000Y-55598733D01*
%TO.C, *%
X114865000Y-54365000D02*
X114865000Y-56125000D01*
X117935000Y-56125000D02*
X117935000Y-53695000D01*
D15*
X105500000Y-54820000D02*
X108500000Y-54820000D01*
X105500000Y-57820000D02*
X105500000Y-54820000D01*
X108500000Y-54820000D02*
X108500000Y-57820000D01*
X108500000Y-57820000D02*
X105500000Y-57820000D01*
X106341421Y-55420000D02*
G75*
G03*
X106341421Y-55420000I-141421J0D01*
G01*
D14*
%TO.C,0.1u*%
X111210000Y-55598733D02*
X111210000Y-55941267D01*
X110190000Y-55598733D02*
X110190000Y-55941267D01*
%TO.C,Power*%
X118085000Y-58905000D02*
X118085000Y-57435000D01*
X118085000Y-57435000D02*
X115625000Y-57435000D01*
X115625000Y-58905000D02*
X118085000Y-58905000D01*
%TO.C,10k*%
X112953733Y-57660000D02*
X113296267Y-57660000D01*
X112953733Y-58680000D02*
X113296267Y-58680000D01*
%TO.C,0.1u*%
X118540000Y-55541267D02*
X118540000Y-55198733D01*
X119560000Y-55541267D02*
X119560000Y-55198733D01*
%TO.C,Power*%
X123915000Y-54195000D02*
X123915000Y-55665000D01*
X123915000Y-55665000D02*
X126375000Y-55665000D01*
X126375000Y-54195000D02*
X123915000Y-54195000D01*
%TO.C,0.1u*%
X128535000Y-57158733D02*
X128535000Y-57501267D01*
X127515000Y-57158733D02*
X127515000Y-57501267D01*
X130790000Y-57501267D02*
X130790000Y-57158733D01*
X131810000Y-57501267D02*
X131810000Y-57158733D01*
D15*
%TO.C, *%
X136500000Y-58280000D02*
X133500000Y-58280000D01*
X136500000Y-55280000D02*
X136500000Y-58280000D01*
X133500000Y-58280000D02*
X133500000Y-55280000D01*
X133500000Y-55280000D02*
X136500000Y-55280000D01*
X135941421Y-57680000D02*
G75*
G03*
X135941421Y-57680000I-141421J0D01*
G01*
D14*
%TO.C,10k*%
X129046267Y-55440000D02*
X128703733Y-55440000D01*
X129046267Y-54420000D02*
X128703733Y-54420000D01*
%TO.C,0.1u*%
X130010000Y-57158733D02*
X130010000Y-57501267D01*
X128990000Y-57158733D02*
X128990000Y-57501267D01*
X128753733Y-59220000D02*
X129096267Y-59220000D01*
X128753733Y-60240000D02*
X129096267Y-60240000D01*
%TO.C, *%
X127135000Y-58735000D02*
X127135000Y-56975000D01*
X124065000Y-56975000D02*
X124065000Y-59405000D01*
%TO.C,0.1u*%
X123460000Y-57558733D02*
X123460000Y-57901267D01*
X122440000Y-57558733D02*
X122440000Y-57901267D01*
%TD*%
M02*
